<svg width="160" height="64" viewBox="0 0 160 64" fill="none" xmlns="http://www.w3.org/2000/svg">
<mask id="mask0_16434_11319" style="mask-type:luminance" maskUnits="userSpaceOnUse" x="0" y="14" width="160" height="37">
<path d="M160 14.6719H0V50.6639H160V14.6719Z" fill="white"/>
</mask>
<g mask="url(#mask0_16434_11319)">
<path d="M140.011 34.3452C140.015 34.6581 139.946 34.9676 139.809 35.2491C139.672 35.5306 139.472 35.7762 139.223 35.9665C138.781 36.3032 138.278 36.5517 137.742 36.6985C136.936 36.945 136.095 37.0624 135.253 37.0465C134.628 37.0461 134.005 36.9695 133.399 36.8185C132.782 36.6859 132.18 36.4925 131.602 36.2412C131.576 36.2249 131.546 36.2159 131.515 36.215C131.484 36.2142 131.453 36.2215 131.426 36.2363C131.399 36.251 131.376 36.2727 131.36 36.2991C131.344 36.3255 131.336 36.3557 131.335 36.3865V36.8038H130.11V33.7212H131.218C131.223 34.0319 131.321 34.3339 131.498 34.5892C131.854 35.0246 132.33 35.3463 132.867 35.5145C133.636 35.7573 134.435 35.892 135.241 35.9145C135.924 35.9368 136.605 35.8183 137.241 35.5665C137.425 35.5185 137.589 35.4129 137.708 35.2651C137.828 35.1174 137.898 34.9352 137.907 34.7452C137.907 34.1478 137.374 34.0052 137.057 33.9212C136.657 33.8238 135.675 33.6878 134.677 33.5838C133.678 33.4798 132.642 33.3332 132.17 33.2278C131.524 33.1311 130.924 32.8405 130.447 32.3945C130.073 32.0109 129.866 31.4945 129.871 30.9585C129.894 30.4966 130.058 30.0528 130.341 29.6867C130.624 29.3206 131.011 29.0498 131.453 28.9105C132.404 28.5081 133.426 28.3026 134.459 28.3065C135.706 28.3117 136.936 28.595 138.059 29.1358C138.262 29.2398 138.366 29.1132 138.366 29.0025V28.6918H139.467V31.3758H138.477C138.39 30.9776 138.176 30.6184 137.867 30.3532C137.674 30.2068 137.465 30.0816 137.245 29.9798C136.417 29.635 135.528 29.4635 134.633 29.4759C133.858 29.4405 133.086 29.5919 132.382 29.9172C132.262 29.9791 132.16 30.0712 132.087 30.1843C132.014 30.2975 131.971 30.4278 131.963 30.5625C131.97 30.6972 132.018 30.8265 132.101 30.9328C132.184 31.039 132.298 31.1169 132.427 31.1559C133.234 31.3299 134.05 31.4514 134.873 31.5198C135.801 31.6117 136.724 31.7528 137.638 31.9425C137.962 32.0164 138.28 32.1194 138.586 32.2505C138.878 32.3775 139.146 32.5553 139.377 32.7758C139.584 32.9803 139.747 33.225 139.856 33.4949C139.965 33.7648 140.018 34.0541 140.011 34.3452ZM146.065 35.3158C146.065 35.3158 146.041 35.6638 146.487 35.6638H147.579V36.6438H142.113V35.6652H143.154C143.601 35.6652 143.577 35.3198 143.577 35.3198L143.59 30.1345C143.59 30.1345 143.615 29.7892 143.17 29.7892H142.129V28.8039H147.567V29.7852H146.474C146.029 29.7852 146.054 30.1305 146.054 30.1305L146.065 35.3158ZM123.665 28.8092H128.225V29.7838H127.234C126.854 29.7838 126.765 29.8865 126.742 30.1665L126.758 34.2545C126.758 36.6678 124.55 37.1345 122.267 37.1345C120.03 37.1345 117.422 36.6905 117.422 34.1758V30.3919C117.422 29.9679 117.337 29.7838 116.875 29.7838H115.922V28.8039H121.486V29.7785H120.529C120.079 29.7785 120.037 29.9225 120.025 30.3345V34.2972C120.025 34.5718 119.925 36.1932 122.277 36.1932C124.79 36.1932 125.121 35.1985 125.121 34.2878V30.3439C125.11 29.9545 125.018 29.7825 124.577 29.7825H123.67L123.665 28.8092ZM114.417 28.8092V29.7865H113.561C112.941 29.7865 112.894 30.1305 112.894 30.4305L112.919 35.0145C112.919 35.2918 112.903 35.6652 113.298 35.6652H114.365V36.6438H109.207V35.6652H110.045C110.483 35.6652 110.506 35.4678 110.514 35.0345L110.478 30.0438H110.438L107.485 36.6478H105.807L102.827 30.0438H102.795V35.0345C102.803 35.4678 102.827 35.6652 103.266 35.6652H104.102V36.6438H99.8352V35.6652H100.902C101.302 35.6652 101.281 35.2932 101.281 35.0145V30.4292C101.281 30.1292 101.237 29.7852 100.614 29.7852H99.7578V28.8039H104.814L107.134 33.9278L109.462 28.8039L114.417 28.8092ZM159.995 33.8545C159.995 33.8745 159.986 33.8985 159.982 33.9185C159.857 34.4446 159.624 34.9392 159.299 35.3713C158.973 35.8033 158.562 36.1635 158.091 36.4292C156.898 37.0149 155.561 37.2401 154.242 37.0772C152.862 36.9801 151.547 36.4511 150.485 35.5652C150.112 35.2299 149.81 34.8245 149.595 34.3721C149.381 33.9197 149.257 33.4294 149.233 32.9292C149.233 32.8532 149.233 32.7785 149.233 32.7025C149.234 32.165 149.346 31.6335 149.563 31.1415C149.779 30.6495 150.095 30.2077 150.491 29.8439C151.75 28.8537 153.302 28.3105 154.903 28.2999H154.918H155.117C156.323 28.3166 157.507 28.6332 158.561 29.2212C158.593 29.2426 158.631 29.2554 158.67 29.2584C158.709 29.2614 158.748 29.2546 158.783 29.2385C158.808 29.2234 158.829 29.202 158.843 29.1765C158.857 29.1511 158.865 29.1224 158.865 29.0932V28.7825H159.967V31.6812H158.901C158.702 30.9746 158.232 30.375 157.594 30.0132C156.857 29.6328 156.034 29.4492 155.205 29.4798H155.035C154.144 29.4708 153.282 29.8006 152.625 30.4025C152.044 31.0293 151.721 31.8522 151.721 32.7065C151.721 33.5609 152.044 34.3837 152.625 35.0105C153.09 35.4569 153.675 35.7592 154.309 35.8812C154.493 35.9203 154.679 35.9453 154.867 35.9558C154.93 35.9558 155.09 35.9638 155.109 35.9652C155.925 35.9898 156.735 35.8116 157.466 35.4465C158.107 35.1075 158.599 34.5432 158.849 33.8625L159.995 33.8545ZM76.3578 29.7825H77.3712C77.8312 29.7825 77.9125 29.9665 77.9165 30.3905L77.9738 33.6625L72.5898 28.8039H68.7378V29.7812H69.5952C70.2125 29.7812 70.2618 30.1252 70.2618 30.4252V35.0092C70.2618 35.2865 70.2805 35.6598 69.8832 35.6598H68.8165V36.6385H73.3418V35.6598H72.2392C71.8005 35.6598 71.7765 35.4625 71.7698 35.0292V31.1079L77.9752 36.6438H79.5525L79.4618 30.3919C79.4738 29.9385 79.4992 29.7838 79.9672 29.7838H80.9578V28.8039H76.3578V29.7825ZM65.0458 32.7158C65.0561 32.2902 64.9811 31.8669 64.8251 31.4707C64.6692 31.0745 64.4355 30.7136 64.1378 30.4092C63.4555 29.7977 62.5714 29.4595 61.6552 29.4595C60.7389 29.4595 59.8549 29.7977 59.1725 30.4092C58.5919 31.0354 58.2692 31.8579 58.2692 32.7119C58.2692 33.5658 58.5919 34.3883 59.1725 35.0145C59.8447 35.6437 60.7359 35.9857 61.6565 35.9678C62.5771 35.9905 63.4692 35.6477 64.1378 35.0145C64.4396 34.7147 64.676 34.3558 64.8323 33.9602C64.9886 33.5646 65.0613 33.1409 65.0458 32.7158ZM66.2898 29.8625C66.6858 30.224 67.0011 30.665 67.215 31.1567C67.4289 31.6484 67.5367 32.1797 67.5312 32.7158C67.5288 33.2522 67.4175 33.7824 67.2041 34.2745C66.9907 34.7666 66.6797 35.2102 66.2898 35.5785C64.989 36.6486 63.3395 37.2021 61.6565 37.1332C59.979 37.1893 58.3377 36.6371 57.0352 35.5785C56.6351 35.2173 56.3159 34.7754 56.0988 34.282C55.8816 33.7887 55.7713 33.2549 55.7752 32.7158C55.7748 32.1779 55.8867 31.6458 56.1036 31.1536C56.3206 30.6614 56.6379 30.2198 57.0352 29.8572C58.352 28.8257 59.9841 28.2795 61.6565 28.3105C63.3429 28.2142 65.0017 28.7699 66.2898 29.8625ZM89.1618 33.5558C89.2352 33.4705 92.0165 30.2959 92.1418 30.1585C92.2247 30.032 92.3405 29.9303 92.4767 29.8646C92.613 29.7988 92.7645 29.7714 92.9152 29.7852H93.9032V28.8039H89.4765V29.7785H90.1432C90.1799 29.7754 90.2168 29.783 90.2492 29.8005C90.2817 29.818 90.3083 29.8446 90.3259 29.877C90.3435 29.9094 90.3512 29.9463 90.3481 29.983C90.345 30.0198 90.3312 30.0548 90.3085 30.0838L88.4352 32.2758H88.3752L86.5418 30.0878C86.4085 29.9238 86.5165 29.7825 86.6605 29.7825H87.3112V28.8039H81.9098V29.7785H82.8712C83.0353 29.7865 83.1957 29.8295 83.3418 29.9047C83.4878 29.9799 83.6161 30.0856 83.7178 30.2145C83.8445 30.3478 86.5952 33.4705 86.6605 33.5585C86.7258 33.6465 86.7272 33.6585 86.7272 33.6918V35.2918C86.7272 35.6838 86.3152 35.6585 86.3152 35.6585H85.2645V36.6372H90.6365V35.6545H89.5178C89.5178 35.6545 89.1178 35.6825 89.1178 35.3092V33.7372C89.1178 33.7372 89.1178 33.6038 89.1565 33.5572M53.3112 32.7572C53.5177 32.9687 53.6804 33.219 53.79 33.4935C53.8996 33.7681 53.9539 34.0616 53.9498 34.3572C53.9538 34.6703 53.8845 34.9799 53.7474 35.2614C53.6104 35.543 53.4094 35.7885 53.1605 35.9785C52.7186 36.315 52.2162 36.5635 51.6805 36.7105C50.8741 36.9584 50.0333 37.0763 49.1898 37.0598C48.5646 37.059 47.9418 36.982 47.3352 36.8305C46.7193 36.6982 46.1181 36.5048 45.5405 36.2532C45.5143 36.2369 45.4842 36.2279 45.4534 36.227C45.4225 36.2262 45.392 36.2335 45.3649 36.2483C45.3378 36.263 45.3151 36.2847 45.2991 36.3111C45.2831 36.3375 45.2744 36.3677 45.2738 36.3985V36.8038H44.0485V33.7212H45.1578C45.1633 34.032 45.2612 34.3342 45.4392 34.5892C45.7956 35.0269 46.2719 35.3512 46.8098 35.5225C47.5783 35.7645 48.3765 35.8991 49.1818 35.9225C49.8653 35.9451 50.5461 35.8266 51.1818 35.5745C51.366 35.5266 51.5301 35.4211 51.6501 35.2733C51.77 35.1256 51.8395 34.9433 51.8485 34.7532C51.8485 34.1558 51.3152 34.0438 50.9978 33.9612C50.5978 33.8625 49.6072 33.7598 48.6072 33.6572C47.6072 33.5545 46.5832 33.3905 46.1112 33.2852C45.4628 33.1807 44.8617 32.8806 44.3885 32.4252C44.0173 32.0309 43.8112 31.5094 43.8125 30.9678C43.8356 30.5061 43.9993 30.0624 44.2817 29.6963C44.5641 29.3303 44.9517 29.0593 45.3925 28.9199C46.3436 28.5174 47.3664 28.312 48.3992 28.3159C49.6459 28.3213 50.8757 28.6046 51.9992 29.1452C52.1992 29.2492 52.3032 29.1225 52.3032 29.0118V28.7012H53.4058V31.3852H52.4152C52.3288 30.9868 52.1143 30.6276 51.8045 30.3625C51.6112 30.2158 51.4024 30.0906 51.1818 29.9892C50.3558 29.6442 49.4676 29.4726 48.5725 29.4852C47.7973 29.4497 47.025 29.601 46.3205 29.9265C46.2005 29.9883 46.0986 30.0804 46.025 30.1935C45.9513 30.3067 45.9084 30.4371 45.9005 30.5718C45.9072 30.701 45.9559 30.8244 46.0391 30.9233C46.1224 31.0222 46.2357 31.0913 46.3618 31.1198C47.1709 31.282 47.9894 31.3929 48.8125 31.4518C49.7317 31.5431 50.6454 31.6828 51.5498 31.8705C51.8842 31.9536 52.2103 32.0665 52.5245 32.2078C52.8174 32.3376 53.0851 32.5182 53.3152 32.7412" fill="#121217"/>
<path d="M14.588 48.7343C14.3975 48.7345 14.2113 48.7913 14.0529 48.8973C13.8946 49.0033 13.7713 49.1539 13.6985 49.33C13.6257 49.5061 13.6067 49.6998 13.6439 49.8867C13.6812 50.0735 13.7729 50.2452 13.9077 50.3799C14.0424 50.5147 14.2141 50.6064 14.4009 50.6437C14.5878 50.6809 14.7815 50.6619 14.9576 50.5891C15.1337 50.5163 15.2843 50.393 15.3903 50.2347C15.4963 50.0763 15.5531 49.8902 15.5533 49.6996C15.5535 49.5728 15.5287 49.4472 15.4802 49.33C15.4318 49.2128 15.3607 49.1063 15.271 49.0166C15.1813 48.9269 15.0748 48.8558 14.9576 48.8074C14.8404 48.7589 14.7148 48.7341 14.588 48.7343ZM7.776 45.3276C7.5854 45.3276 7.39907 45.3841 7.24057 45.49C7.08207 45.5958 6.95851 45.7463 6.88551 45.9224C6.81251 46.0985 6.79334 46.2922 6.83043 46.4792C6.86752 46.6661 6.9592 46.8379 7.09388 46.9728C7.22856 47.1077 7.40021 47.1996 7.58712 47.2369C7.77403 47.2743 7.96781 47.2554 8.14398 47.1826C8.32016 47.1098 8.4708 46.9865 8.57689 46.8281C8.68298 46.6698 8.73974 46.4835 8.74 46.2929C8.74018 46.1662 8.71537 46.0407 8.667 45.9236C8.61864 45.8065 8.54766 45.7001 8.45812 45.6104C8.36859 45.5208 8.26226 45.4496 8.14522 45.4011C8.02817 45.3526 7.90271 45.3276 7.776 45.3276ZM31.62 41.9223C31.4293 41.9223 31.243 41.9788 31.0844 42.0847C30.9259 42.1907 30.8023 42.3412 30.7294 42.5174C30.6564 42.6935 30.6373 42.8873 30.6745 43.0743C30.7117 43.2613 30.8035 43.4331 30.9384 43.5679C31.0732 43.7027 31.2449 43.7946 31.4319 43.8317C31.6189 43.8689 31.8128 43.8499 31.9889 43.7769C32.1651 43.7039 32.3156 43.5804 32.4215 43.4218C32.5275 43.2633 32.584 43.0769 32.584 42.8863C32.584 42.6306 32.4824 42.3854 32.3017 42.2046C32.1209 42.0238 31.8757 41.9223 31.62 41.9223ZM31.62 38.5156C31.4293 38.5156 31.243 38.5721 31.0844 38.6781C30.9259 38.784 30.8023 38.9346 30.7294 39.1107C30.6564 39.2868 30.6373 39.4807 30.6745 39.6677C30.7117 39.8547 30.8035 40.0264 30.9384 40.1613C31.0732 40.2961 31.2449 40.3879 31.4319 40.4251C31.6189 40.4623 31.8128 40.4432 31.9889 40.3702C32.1651 40.2973 32.3156 40.1737 32.4215 40.0152C32.5275 39.8566 32.584 39.6703 32.584 39.4796C32.584 39.2239 32.4824 38.9787 32.3017 38.798C32.1209 38.6172 31.8757 38.5156 31.62 38.5156ZM31.62 35.1089C31.4293 35.1089 31.243 35.1655 31.0844 35.2714C30.9259 35.3773 30.8023 35.5279 30.7294 35.704C30.6564 35.8802 30.6373 36.074 30.6745 36.261C30.7117 36.448 30.8035 36.6198 30.9384 36.7546C31.0732 36.8894 31.2449 36.9812 31.4319 37.0184C31.6189 37.0556 31.8128 37.0365 31.9889 36.9636C32.1651 36.8906 32.3156 36.767 32.4215 36.6085C32.5275 36.45 32.584 36.2636 32.584 36.0729C32.584 35.8173 32.4824 35.5721 32.3017 35.3913C32.1209 35.2105 31.8757 35.1089 31.62 35.1089ZM31.62 31.7023C31.4293 31.7023 31.243 31.7588 31.0844 31.8647C30.9259 31.9707 30.8023 32.1212 30.7294 32.2974C30.6564 32.4735 30.6373 32.6673 30.6745 32.8543C30.7117 33.0413 30.8035 33.2131 30.9384 33.3479C31.0732 33.4827 31.2449 33.5746 31.4319 33.6118C31.6189 33.6489 31.8128 33.6299 31.9889 33.5569C32.1651 33.4839 32.3156 33.3604 32.4215 33.2018C32.5275 33.0433 32.584 32.8569 32.584 32.6663C32.584 32.4106 32.4824 32.1654 32.3017 31.9846C32.1209 31.8038 31.8757 31.7023 31.62 31.7023ZM31.62 28.2956C31.4294 28.2956 31.2431 28.3521 31.0846 28.458C30.9261 28.5638 30.8025 28.7143 30.7295 28.8904C30.6565 29.0665 30.6373 29.2602 30.6744 29.4472C30.7115 29.6341 30.8032 29.8059 30.9379 29.9408C31.0726 30.0757 31.2442 30.1676 31.4311 30.2049C31.618 30.2423 31.8118 30.2234 31.988 30.1506C32.1642 30.0779 32.3148 29.9545 32.4209 29.7961C32.527 29.6378 32.5837 29.4515 32.584 29.2609C32.5842 29.1342 32.5594 29.0087 32.511 28.8916C32.4626 28.7745 32.3917 28.6681 32.3021 28.5784C32.2126 28.4888 32.1063 28.4176 31.9892 28.3691C31.8722 28.3206 31.7467 28.2956 31.62 28.2956ZM31.62 24.8889C31.4294 24.8889 31.2431 24.9454 31.0846 25.0513C30.9261 25.1572 30.8025 25.3077 30.7295 25.4837C30.6565 25.6598 30.6373 25.8536 30.6744 26.0405C30.7115 26.2275 30.8032 26.3993 30.9379 26.5341C31.0726 26.669 31.2442 26.7609 31.4311 26.7983C31.618 26.8356 31.8118 26.8167 31.988 26.7439C32.1642 26.6712 32.3148 26.5478 32.4209 26.3895C32.527 26.2311 32.5837 26.0449 32.584 25.8543C32.5842 25.7276 32.5594 25.6021 32.511 25.485C32.4626 25.3678 32.3917 25.2614 32.3021 25.1718C32.2126 25.0821 32.1063 25.011 31.9892 24.9625C31.8722 24.9139 31.7467 24.8889 31.62 24.8889ZM31.62 21.4836C31.4293 21.4836 31.243 21.5401 31.0844 21.6461C30.9259 21.752 30.8023 21.9026 30.7294 22.0787C30.6564 22.2549 30.6373 22.4487 30.6745 22.6357C30.7117 22.8227 30.8035 22.9944 30.9384 23.1293C31.0732 23.2641 31.2449 23.3559 31.4319 23.3931C31.6189 23.4303 31.8128 23.4112 31.9889 23.3382C32.1651 23.2653 32.3156 23.1417 32.4215 22.9832C32.5275 22.8247 32.584 22.6383 32.584 22.4476C32.584 22.1919 32.4824 21.9467 32.3017 21.766C32.1209 21.5852 31.8757 21.4836 31.62 21.4836ZM4.36933 41.9209C4.17867 41.9207 3.99222 41.977 3.83354 42.0827C3.67487 42.1884 3.5511 42.3388 3.47789 42.5148C3.40469 42.6908 3.38533 42.8847 3.42227 43.0717C3.4592 43.2587 3.55078 43.4306 3.68541 43.5656C3.82004 43.7007 3.99168 43.7927 4.17863 43.8302C4.36557 43.8676 4.55943 43.8488 4.73568 43.7761C4.91192 43.7033 5.06265 43.58 5.1688 43.4216C5.27494 43.2632 5.33174 43.0769 5.332 42.8863C5.332 42.6306 5.23044 42.3854 5.04965 42.2046C4.86887 42.0238 4.62367 41.9223 4.368 41.9223M4.368 38.5156C4.17734 38.5156 3.99096 38.5721 3.83243 38.6781C3.6739 38.784 3.55034 38.9346 3.47738 39.1107C3.40442 39.2868 3.38533 39.4807 3.42252 39.6677C3.45972 39.8547 3.55153 40.0264 3.68635 40.1613C3.82117 40.2961 3.99294 40.3879 4.17993 40.4251C4.36693 40.4623 4.56076 40.4432 4.73691 40.3702C4.91306 40.2973 5.06361 40.1737 5.16954 40.0152C5.27546 39.8566 5.332 39.6703 5.332 39.4796C5.332 39.2239 5.23044 38.9787 5.04965 38.798C4.86887 38.6172 4.62367 38.5156 4.368 38.5156ZM35.0253 35.1089C34.8347 35.1092 34.6485 35.166 34.4901 35.2721C34.3318 35.3781 34.2084 35.5288 34.1357 35.705C34.0629 35.8811 34.044 36.0749 34.0814 36.2618C34.1187 36.4487 34.2106 36.6204 34.3455 36.7551C34.4804 36.8897 34.6521 36.9814 34.8391 37.0185C35.0261 37.0556 35.2198 37.0364 35.3959 36.9634C35.572 36.8904 35.7224 36.7669 35.8283 36.6084C35.9342 36.4499 35.9907 36.2635 35.9907 36.0729C35.9907 35.9462 35.9657 35.8208 35.9172 35.7037C35.8686 35.5867 35.7975 35.4804 35.7078 35.3908C35.6182 35.3013 35.5118 35.2303 35.3947 35.1819C35.2775 35.1336 35.152 35.1088 35.0253 35.1089ZM35.0253 31.7023C34.8347 31.7025 34.6485 31.7593 34.4901 31.8654C34.3318 31.9715 34.2084 32.1221 34.1357 32.2983C34.0629 32.4745 34.044 32.6683 34.0814 32.8552C34.1187 33.0421 34.2106 33.2137 34.3455 33.3484C34.4804 33.4831 34.6521 33.5748 34.8391 33.6118C35.0261 33.6489 35.2198 33.6298 35.3959 33.5568C35.572 33.4838 35.7224 33.3602 35.8283 33.2017C35.9342 33.0432 35.9907 32.8569 35.9907 32.6663C35.9907 32.5396 35.9657 32.4141 35.9172 32.2971C35.8686 32.18 35.7975 32.0737 35.7078 31.9842C35.6182 31.8946 35.5118 31.8236 35.3947 31.7753C35.2775 31.7269 35.152 31.7021 35.0253 31.7023ZM35.0253 28.2956C34.8348 28.2959 34.6486 28.3526 34.4903 28.4586C34.3319 28.5647 34.2086 28.7152 34.1358 28.8913C34.063 29.0674 34.044 29.2611 34.0813 29.448C34.1185 29.6349 34.2103 29.8065 34.345 29.9413C34.4798 30.076 34.6514 30.1678 34.8383 30.205C35.0251 30.2423 35.2189 30.2233 35.395 30.1505C35.5711 30.0777 35.7216 29.9543 35.8277 29.796C35.9337 29.6377 35.9904 29.4515 35.9907 29.2609C35.9908 29.1341 35.966 29.0085 35.9175 28.8913C35.8691 28.7741 35.798 28.6676 35.7083 28.578C35.6186 28.4883 35.5122 28.4172 35.395 28.3687C35.2778 28.3203 35.1522 28.2954 35.0253 28.2956ZM0.962667 35.1089C0.772063 35.1092 0.585815 35.166 0.427461 35.2721C0.269108 35.3781 0.145757 35.5288 0.0729984 35.705C0.000239976 35.8811 -0.0186603 36.0749 0.0186863 36.2618C0.0560329 36.4487 0.14795 36.6204 0.282821 36.7551C0.417692 36.8897 0.589462 36.9814 0.776423 37.0185C0.963384 37.0556 1.15714 37.0364 1.33321 36.9634C1.50928 36.8904 1.65976 36.7669 1.76563 36.6084C1.8715 36.4499 1.928 36.2635 1.928 36.0729C1.928 35.9462 1.90302 35.8208 1.85449 35.7037C1.80596 35.5867 1.73484 35.4804 1.64518 35.3908C1.55552 35.3013 1.4491 35.2303 1.33198 35.1819C1.21487 35.1336 1.08937 35.1088 0.962667 35.1089ZM0.962667 31.7023C0.772063 31.7025 0.585815 31.7593 0.427461 31.8654C0.269108 31.9715 0.145757 32.1221 0.0729984 32.2983C0.000239976 32.4745 -0.0186603 32.6683 0.0186863 32.8552C0.0560329 33.0421 0.14795 33.2137 0.282821 33.3484C0.417692 33.4831 0.589462 33.5748 0.776423 33.6118C0.963384 33.6489 1.15714 33.6298 1.33321 33.5568C1.50928 33.4838 1.65976 33.3602 1.76563 33.2017C1.8715 33.0432 1.928 32.8569 1.928 32.6663C1.928 32.5396 1.90302 32.4141 1.85449 32.2971C1.80596 32.18 1.73484 32.0737 1.64518 31.9842C1.55552 31.8946 1.4491 31.8236 1.33198 31.7753C1.21487 31.7269 1.08937 31.7021 0.962667 31.7023ZM0.962667 28.2956C0.77212 28.2959 0.585924 28.3526 0.4276 28.4586C0.269275 28.5647 0.145924 28.7152 0.0731264 28.8913C0.000328839 29.0674 -0.0186492 29.2611 0.0185895 29.448C0.0558281 29.6349 0.147613 29.8065 0.28235 29.9413C0.417088 30.076 0.588734 30.1678 0.775607 30.205C0.96248 30.2423 1.1562 30.2233 1.33229 30.1505C1.50839 30.0777 1.65895 29.9543 1.76498 29.796C1.87101 29.6377 1.92774 29.4515 1.928 29.2609C1.92818 29.1341 1.90333 29.0085 1.85488 28.8913C1.80643 28.7741 1.73533 28.6676 1.64565 28.578C1.55598 28.4883 1.44949 28.4172 1.33229 28.3687C1.21509 28.3203 1.08949 28.2954 0.962667 28.2956ZM4.36933 35.1076C4.17867 35.1073 3.99222 35.1636 3.83354 35.2693C3.67487 35.375 3.5511 35.5254 3.47789 35.7015C3.40469 35.8775 3.38533 36.0713 3.42227 36.2584C3.4592 36.4454 3.55078 36.6173 3.68541 36.7523C3.82004 36.8873 3.99168 36.9794 4.17863 37.0168C4.36557 37.0543 4.55943 37.0355 4.73568 36.9627C4.91192 36.89 5.06265 36.7667 5.1688 36.6083C5.27494 36.4499 5.33174 36.2636 5.332 36.0729C5.332 35.8173 5.23044 35.5721 5.04965 35.3913C4.86887 35.2105 4.62367 35.1089 4.368 35.1089M4.368 31.7023C4.17751 31.7023 3.99129 31.7587 3.83285 31.8645C3.67441 31.9702 3.55085 32.1205 3.47777 32.2965C3.40469 32.4724 3.38537 32.666 3.42224 32.8529C3.45911 33.0398 3.55053 33.2115 3.68495 33.3465C3.81937 33.4815 3.99076 33.5736 4.17749 33.6113C4.36423 33.6489 4.55793 33.6304 4.73414 33.558C4.91036 33.4857 5.06119 33.3628 5.1676 33.2048C5.274 33.0468 5.33121 32.8608 5.332 32.6703C5.332 32.5437 5.30707 32.4183 5.25862 32.3014C5.21017 32.1844 5.13917 32.0781 5.04965 31.9886C4.96014 31.8991 4.85387 31.8281 4.73691 31.7797C4.61995 31.7312 4.49459 31.7063 4.368 31.7063M4.368 28.2996C4.17723 28.2996 3.99074 28.3562 3.83215 28.4623C3.67357 28.5683 3.55001 28.719 3.47713 28.8953C3.40424 29.0716 3.38531 29.2656 3.42272 29.4527C3.46014 29.6397 3.55221 29.8115 3.6873 29.9462C3.82238 30.0809 3.9944 30.1725 4.18157 30.2094C4.36875 30.2463 4.56266 30.2268 4.73876 30.1535C4.91486 30.0801 5.06523 29.9561 5.17084 29.7972C5.27644 29.6384 5.33253 29.4517 5.332 29.2609C5.33218 29.1342 5.30737 29.0087 5.259 28.8916C5.21064 28.7745 5.13966 28.6681 5.05012 28.5784C4.96059 28.4888 4.85426 28.4176 4.73722 28.3691C4.62017 28.3206 4.49471 28.2956 4.368 28.2956M4.368 24.8889C4.1774 24.8889 3.99107 24.9454 3.83257 25.0513C3.67407 25.1572 3.55051 25.3077 3.47751 25.4837C3.40451 25.6598 3.38534 25.8536 3.42243 26.0405C3.45952 26.2275 3.55119 26.3993 3.68588 26.5341C3.82056 26.669 3.99221 26.7609 4.17912 26.7983C4.36603 26.8356 4.55981 26.8167 4.73598 26.7439C4.91216 26.6712 5.0628 26.5478 5.16889 26.3895C5.27498 26.2311 5.33174 26.0449 5.332 25.8543C5.33218 25.7276 5.30737 25.6021 5.259 25.485C5.21064 25.3678 5.13966 25.2614 5.05012 25.1718C4.96059 25.0821 4.85426 25.011 4.73722 24.9625C4.62017 24.9139 4.49471 24.8889 4.368 24.8889ZM4.368 21.4836C4.1774 21.4836 3.99107 21.5401 3.83257 21.646C3.67407 21.7518 3.55051 21.9023 3.47751 22.0784C3.40451 22.2545 3.38534 22.4482 3.42243 22.6352C3.45952 22.8221 3.55119 22.9939 3.68588 23.1288C3.82056 23.2637 3.99221 23.3556 4.17912 23.3929C4.36603 23.4303 4.55981 23.4114 4.73598 23.3386C4.91216 23.2659 5.0628 23.1425 5.16889 22.9841C5.27498 22.8258 5.33174 22.6395 5.332 22.4489C5.332 22.1933 5.23044 21.9481 5.04965 21.7673C4.86887 21.5865 4.62367 21.4836 4.368 21.4836ZM7.776 41.9209C7.58534 41.9209 7.39896 41.9775 7.24043 42.0834C7.0819 42.1893 6.95834 42.3399 6.88538 42.516C6.81242 42.6922 6.79333 42.886 6.83052 43.073C6.86772 43.26 6.95953 43.4318 7.09435 43.5666C7.22917 43.7014 7.40094 43.7932 7.58793 43.8304C7.77493 43.8676 7.96876 43.8485 8.14491 43.7756C8.32106 43.7026 8.47161 43.579 8.57754 43.4205C8.68346 43.262 8.74 43.0756 8.74 42.8849C8.74 42.6293 8.63844 42.3841 8.45765 42.2033C8.27687 42.0225 8.03167 41.9209 7.776 41.9209ZM7.776 38.5143C7.58534 38.5143 7.39896 38.5708 7.24043 38.6767C7.0819 38.7827 6.95834 38.9332 6.88538 39.1094C6.81242 39.2855 6.79333 39.4793 6.83052 39.6663C6.86772 39.8533 6.95953 40.0251 7.09435 40.1599C7.22917 40.2947 7.40094 40.3866 7.58793 40.4237C7.77493 40.4609 7.96876 40.4419 8.14491 40.3689C8.32106 40.2959 8.47161 40.1724 8.57754 40.0138C8.68346 39.8553 8.74 39.6689 8.74 39.4783C8.74 39.2226 8.63844 38.9774 8.45765 38.7966C8.27687 38.6158 8.03167 38.5143 7.776 38.5143ZM7.776 35.1076C7.58534 35.1076 7.39896 35.1641 7.24043 35.2701C7.0819 35.376 6.95834 35.5266 6.88538 35.7027C6.81242 35.8788 6.79333 36.0727 6.83052 36.2597C6.86772 36.4467 6.95953 36.6184 7.09435 36.7533C7.22917 36.8881 7.40094 36.9799 7.58793 37.0171C7.77493 37.0543 7.96876 37.0352 8.14491 36.9622C8.32106 36.8893 8.47161 36.7657 8.57754 36.6072C8.68346 36.4486 8.74 36.2623 8.74 36.0716C8.74 35.8159 8.63844 35.5707 8.45765 35.39C8.27687 35.2092 8.03167 35.1076 7.776 35.1076ZM7.776 31.7009C7.58534 31.7009 7.39896 31.7575 7.24043 31.8634C7.0819 31.9693 6.95834 32.1199 6.88538 32.296C6.81242 32.4722 6.79333 32.666 6.83052 32.853C6.86772 33.04 6.95953 33.2118 7.09435 33.3466C7.22917 33.4814 7.40094 33.5732 7.58793 33.6104C7.77493 33.6476 7.96876 33.6285 8.14491 33.5556C8.32106 33.4826 8.47161 33.359 8.57754 33.2005C8.68346 33.042 8.74 32.8556 8.74 32.6649C8.74 32.4093 8.63844 32.1641 8.45765 31.9833C8.27687 31.8025 8.03167 31.7009 7.776 31.7009ZM7.776 28.2943C7.5854 28.2943 7.39907 28.3508 7.24057 28.4566C7.08207 28.5625 6.95851 28.713 6.88551 28.8891C6.81251 29.0651 6.79334 29.2589 6.83043 29.4459C6.86752 29.6328 6.9592 29.8046 7.09388 29.9395C7.22856 30.0743 7.40021 30.1662 7.58712 30.2036C7.77403 30.2409 7.96781 30.222 8.14398 30.1493C8.32016 30.0765 8.4708 29.9532 8.57689 29.7948C8.68298 29.6365 8.73974 29.4502 8.74 29.2596C8.74018 29.1329 8.71537 29.0074 8.667 28.8903C8.61864 28.7732 8.54766 28.6668 8.45812 28.5771C8.36859 28.4874 8.26226 28.4163 8.14522 28.3678C8.02817 28.3193 7.90271 28.2943 7.776 28.2943ZM7.776 24.8876C7.5854 24.8876 7.39907 24.9441 7.24057 25.05C7.08207 25.1558 6.95851 25.3063 6.88551 25.4824C6.81251 25.6585 6.79334 25.8522 6.83043 26.0392C6.86752 26.2261 6.9592 26.3979 7.09388 26.5328C7.22856 26.6677 7.40021 26.7596 7.58712 26.7969C7.77403 26.8343 7.96781 26.8154 8.14398 26.7426C8.32016 26.6699 8.4708 26.5465 8.57689 26.3882C8.68298 26.2298 8.73974 26.0435 8.74 25.8529C8.74018 25.7262 8.71537 25.6007 8.667 25.4836C8.61864 25.3665 8.54766 25.2601 8.45812 25.1704C8.36859 25.0808 8.26226 25.0096 8.14522 24.9611C8.02817 24.9126 7.90271 24.8876 7.776 24.8876ZM7.776 21.4823C7.58534 21.4823 7.39896 21.5388 7.24043 21.6447C7.0819 21.7507 6.95834 21.9012 6.88538 22.0774C6.81242 22.2535 6.79333 22.4473 6.83052 22.6343C6.86772 22.8213 6.95953 22.9931 7.09435 23.1279C7.22917 23.2627 7.40094 23.3546 7.58793 23.3918C7.77493 23.429 7.96876 23.4099 8.14491 23.3369C8.32106 23.2639 8.47161 23.1404 8.57754 22.9818C8.68346 22.8233 8.74 22.6369 8.74 22.4463C8.74 22.1906 8.63844 21.9454 8.45765 21.7646C8.27687 21.5838 8.03167 21.4823 7.776 21.4823ZM7.776 18.0756C7.58534 18.0756 7.39896 18.1321 7.24043 18.2381C7.0819 18.344 6.95834 18.4946 6.88538 18.6707C6.81242 18.8469 6.79333 19.0407 6.83052 19.2277C6.86772 19.4147 6.95953 19.5864 7.09435 19.7213C7.22917 19.8561 7.40094 19.9479 7.58793 19.9851C7.77493 20.0223 7.96876 20.0032 8.14491 19.9302C8.32106 19.8573 8.47161 19.7337 8.57754 19.5752C8.68346 19.4167 8.74 19.2303 8.74 19.0396C8.74 18.7839 8.63844 18.5387 8.45765 18.358C8.27687 18.1772 8.03167 18.0756 7.776 18.0756ZM28.2133 45.3276C28.0227 45.3276 27.8364 45.3841 27.6779 45.49C27.5194 45.5958 27.3958 45.7463 27.3228 45.9224C27.2498 46.0985 27.2307 46.2922 27.2678 46.4792C27.3048 46.6661 27.3965 46.8379 27.5312 46.9728C27.6659 47.1077 27.8375 47.1996 28.0245 47.2369C28.2114 47.2743 28.4051 47.2554 28.5813 47.1826C28.7575 47.1098 28.9081 46.9865 29.0142 46.8281C29.1203 46.6698 29.1771 46.4835 29.1773 46.2929C29.1775 46.1662 29.1527 46.0407 29.1043 45.9236C29.056 45.8065 28.985 45.7001 28.8955 45.6104C28.8059 45.5208 28.6996 45.4496 28.5826 45.4011C28.4655 45.3526 28.34 45.3276 28.2133 45.3276ZM28.2133 41.9223C28.0227 41.9223 27.8363 41.9788 27.6778 42.0847C27.5192 42.1907 27.3957 42.3412 27.3227 42.5174C27.2498 42.6935 27.2307 42.8873 27.2679 43.0743C27.3051 43.2613 27.3969 43.4331 27.5317 43.5679C27.6665 43.7027 27.8383 43.7946 28.0253 43.8317C28.2123 43.8689 28.4061 43.8499 28.5822 43.7769C28.7584 43.7039 28.9089 43.5804 29.0149 43.4218C29.1208 43.2633 29.1773 43.0769 29.1773 42.8863C29.1773 42.6306 29.0758 42.3854 28.895 42.2046C28.7142 42.0238 28.469 41.9223 28.2133 41.9223ZM28.2133 38.5156C28.0227 38.5156 27.8363 38.5721 27.6778 38.6781C27.5192 38.784 27.3957 38.9346 27.3227 39.1107C27.2498 39.2868 27.2307 39.4807 27.2679 39.6677C27.3051 39.8547 27.3969 40.0264 27.5317 40.1613C27.6665 40.2961 27.8383 40.3879 28.0253 40.4251C28.2123 40.4623 28.4061 40.4432 28.5822 40.3702C28.7584 40.2973 28.9089 40.1737 29.0149 40.0152C29.1208 39.8566 29.1773 39.6703 29.1773 39.4796C29.1773 39.2239 29.0758 38.9787 28.895 38.798C28.7142 38.6172 28.469 38.5156 28.2133 38.5156ZM28.2133 35.1089C28.0227 35.1089 27.8363 35.1655 27.6778 35.2714C27.5192 35.3773 27.3957 35.5279 27.3227 35.704C27.2498 35.8802 27.2307 36.074 27.2679 36.261C27.3051 36.448 27.3969 36.6198 27.5317 36.7546C27.6665 36.8894 27.8383 36.9812 28.0253 37.0184C28.2123 37.0556 28.4061 37.0365 28.5822 36.9636C28.7584 36.8906 28.9089 36.767 29.0149 36.6085C29.1208 36.45 29.1773 36.2636 29.1773 36.0729C29.1773 35.8173 29.0758 35.5721 28.895 35.3913C28.7142 35.2105 28.469 35.1089 28.2133 35.1089ZM28.2133 31.7023C28.0227 31.7023 27.8363 31.7588 27.6778 31.8647C27.5192 31.9707 27.3957 32.1212 27.3227 32.2974C27.2498 32.4735 27.2307 32.6673 27.2679 32.8543C27.3051 33.0413 27.3969 33.2131 27.5317 33.3479C27.6665 33.4827 27.8383 33.5746 28.0253 33.6118C28.2123 33.6489 28.4061 33.6299 28.5822 33.5569C28.7584 33.4839 28.9089 33.3604 29.0149 33.2018C29.1208 33.0433 29.1773 32.8569 29.1773 32.6663C29.1773 32.4106 29.0758 32.1654 28.895 31.9846C28.7142 31.8038 28.469 31.7023 28.2133 31.7023ZM28.2133 28.2956C28.0227 28.2956 27.8364 28.3521 27.6779 28.458C27.5194 28.5638 27.3958 28.7143 27.3228 28.8904C27.2498 29.0665 27.2307 29.2602 27.2678 29.4472C27.3048 29.6341 27.3965 29.8059 27.5312 29.9408C27.6659 30.0757 27.8375 30.1676 28.0245 30.2049C28.2114 30.2423 28.4051 30.2234 28.5813 30.1506C28.7575 30.0779 28.9081 29.9545 29.0142 29.7961C29.1203 29.6378 29.1771 29.4515 29.1773 29.2609C29.1775 29.1342 29.1527 29.0087 29.1043 28.8916C29.056 28.7745 28.985 28.6681 28.8955 28.5784C28.8059 28.4888 28.6996 28.4176 28.5826 28.3691C28.4655 28.3206 28.34 28.2956 28.2133 28.2956ZM28.2133 24.8889C28.0227 24.8889 27.8364 24.9454 27.6779 25.0513C27.5194 25.1572 27.3958 25.3077 27.3228 25.4837C27.2498 25.6598 27.2307 25.8536 27.2678 26.0405C27.3048 26.2275 27.3965 26.3993 27.5312 26.5341C27.6659 26.669 27.8375 26.7609 28.0245 26.7983C28.2114 26.8356 28.4051 26.8167 28.5813 26.7439C28.7575 26.6712 28.9081 26.5478 29.0142 26.3895C29.1203 26.2311 29.1771 26.0449 29.1773 25.8543C29.1775 25.7276 29.1527 25.6021 29.1043 25.485C29.056 25.3678 28.985 25.2614 28.8955 25.1718C28.8059 25.0821 28.6996 25.011 28.5826 24.9625C28.4655 24.9139 28.34 24.8889 28.2133 24.8889ZM28.2133 21.4836C28.0227 21.4836 27.8363 21.5401 27.6778 21.6461C27.5192 21.752 27.3957 21.9026 27.3227 22.0787C27.2498 22.2549 27.2307 22.4487 27.2679 22.6357C27.3051 22.8227 27.3969 22.9944 27.5317 23.1293C27.6665 23.2641 27.8383 23.3559 28.0253 23.3931C28.2123 23.4303 28.4061 23.4112 28.5822 23.3382C28.7584 23.2653 28.9089 23.1417 29.0149 22.9832C29.1208 22.8247 29.1773 22.6383 29.1773 22.4476C29.1773 22.1919 29.0758 21.9467 28.895 21.766C28.7142 21.5852 28.469 21.4836 28.2133 21.4836ZM28.2133 18.0769C28.0227 18.0769 27.8363 18.1335 27.6778 18.2394C27.5192 18.3453 27.3957 18.4959 27.3227 18.672C27.2498 18.8482 27.2307 19.042 27.2679 19.229C27.3051 19.416 27.3969 19.5878 27.5317 19.7226C27.6665 19.8574 27.8383 19.9492 28.0253 19.9864C28.2123 20.0236 28.4061 20.0045 28.5822 19.9316C28.7584 19.8586 28.9089 19.735 29.0149 19.5765C29.1208 19.418 29.1773 19.2316 29.1773 19.0409C29.1773 18.7853 29.0758 18.5401 28.895 18.3593C28.7142 18.1785 28.469 18.0769 28.2133 18.0769ZM24.8067 45.3276C24.6161 45.3279 24.4299 45.3846 24.2716 45.4906C24.1133 45.5967 23.9899 45.7472 23.9171 45.9233C23.8443 46.0994 23.8254 46.2931 23.8626 46.48C23.8998 46.6669 23.9916 46.8385 24.1264 46.9733C24.2611 47.108 24.4327 47.1998 24.6196 47.237C24.8065 47.2743 25.0002 47.2553 25.1763 47.1825C25.3524 47.1097 25.503 46.9863 25.609 46.828C25.715 46.6697 25.7717 46.4835 25.772 46.2929C25.7722 46.1661 25.7473 46.0405 25.6989 45.9233C25.6504 45.8061 25.5793 45.6996 25.4897 45.61C25.4 45.5203 25.2935 45.4492 25.1763 45.4007C25.0591 45.3523 24.9335 45.3274 24.8067 45.3276ZM24.8067 41.9223C24.6161 41.9225 24.4298 41.9793 24.2715 42.0854C24.1131 42.1915 23.9898 42.3421 23.917 42.5183C23.8442 42.6945 23.8253 42.8882 23.8627 43.0752C23.9 43.2621 23.992 43.4337 24.1268 43.5684C24.2617 43.7031 24.4335 43.7948 24.6204 43.8318C24.8074 43.8689 25.0011 43.8498 25.1772 43.7768C25.3533 43.7038 25.5038 43.5802 25.6096 43.4217C25.7155 43.2632 25.772 43.0769 25.772 42.8863C25.772 42.7596 25.747 42.6341 25.6985 42.5171C25.65 42.4 25.5788 42.2937 25.4892 42.2042C25.3995 42.1146 25.2931 42.0436 25.176 41.9953C25.0589 41.9469 24.9334 41.9221 24.8067 41.9223ZM24.8067 38.5156C24.6161 38.5159 24.4298 38.5726 24.2715 38.6787C24.1131 38.7848 23.9898 38.9355 23.917 39.1116C23.8442 39.2878 23.8253 39.4816 23.8627 39.6685C23.9 39.8554 23.992 40.027 24.1268 40.1617C24.2617 40.2964 24.4335 40.3881 24.6204 40.4252C24.8074 40.4623 25.0011 40.4431 25.1772 40.3701C25.3533 40.2971 25.5038 40.1735 25.6096 40.015C25.7155 39.8565 25.772 39.6702 25.772 39.4796C25.772 39.3529 25.747 39.2274 25.6985 39.1104C25.65 38.9933 25.5788 38.887 25.4892 38.7975C25.3995 38.708 25.2931 38.637 25.176 38.5886C25.0589 38.5402 24.9334 38.5154 24.8067 38.5156ZM24.8067 35.1089C24.6161 35.1092 24.4298 35.166 24.2715 35.2721C24.1131 35.3781 23.9898 35.5288 23.917 35.705C23.8442 35.8811 23.8253 36.0749 23.8627 36.2618C23.9 36.4487 23.992 36.6204 24.1268 36.7551C24.2617 36.8897 24.4335 36.9814 24.6204 37.0185C24.8074 37.0556 25.0011 37.0364 25.1772 36.9634C25.3533 36.8904 25.5038 36.7669 25.6096 36.6084C25.7155 36.4499 25.772 36.2635 25.772 36.0729C25.772 35.9462 25.747 35.8208 25.6985 35.7037C25.65 35.5867 25.5788 35.4804 25.4892 35.3908C25.3995 35.3013 25.2931 35.2303 25.176 35.1819C25.0589 35.1336 24.9334 35.1088 24.8067 35.1089ZM24.8067 31.7023C24.6161 31.7025 24.4298 31.7593 24.2715 31.8654C24.1131 31.9715 23.9898 32.1221 23.917 32.2983C23.8442 32.4745 23.8253 32.6683 23.8627 32.8552C23.9 33.0421 23.992 33.2137 24.1268 33.3484C24.2617 33.4831 24.4335 33.5748 24.6204 33.6118C24.8074 33.6489 25.0011 33.6298 25.1772 33.5568C25.3533 33.4838 25.5038 33.3602 25.6096 33.2017C25.7155 33.0432 25.772 32.8569 25.772 32.6663C25.772 32.5396 25.747 32.4141 25.6985 32.2971C25.65 32.18 25.5788 32.0737 25.4892 31.9842C25.3995 31.8946 25.2931 31.8236 25.176 31.7753C25.0589 31.7269 24.9334 31.7021 24.8067 31.7023ZM24.8067 28.2956C24.6161 28.2959 24.4299 28.3526 24.2716 28.4586C24.1133 28.5647 23.9899 28.7152 23.9171 28.8913C23.8443 29.0674 23.8254 29.2611 23.8626 29.448C23.8998 29.6349 23.9916 29.8065 24.1264 29.9413C24.2611 30.076 24.4327 30.1678 24.6196 30.205C24.8065 30.2423 25.0002 30.2233 25.1763 30.1505C25.3524 30.0777 25.503 29.9543 25.609 29.796C25.715 29.6377 25.7717 29.4515 25.772 29.2609C25.7722 29.1341 25.7473 29.0085 25.6989 28.8913C25.6504 28.7741 25.5793 28.6676 25.4897 28.578C25.4 28.4883 25.2935 28.4172 25.1763 28.3687C25.0591 28.3203 24.9335 28.2954 24.8067 28.2956ZM24.8067 24.8889C24.6161 24.8892 24.4299 24.9459 24.2716 25.052C24.1133 25.158 23.9899 25.3086 23.9171 25.4847C23.8443 25.6607 23.8254 25.8545 23.8626 26.0413C23.8998 26.2282 23.9916 26.3999 24.1264 26.5346C24.2611 26.6693 24.4327 26.7611 24.6196 26.7984C24.8065 26.8356 25.0002 26.8166 25.1763 26.7438C25.3524 26.671 25.503 26.5477 25.609 26.3893C25.715 26.231 25.7717 26.0448 25.772 25.8543C25.7722 25.7275 25.7473 25.6019 25.6989 25.4847C25.6504 25.3675 25.5793 25.261 25.4897 25.1713C25.4 25.0816 25.2935 25.0105 25.1763 24.9621C25.0591 24.9136 24.9335 24.8888 24.8067 24.8889ZM24.8067 21.4836C24.6161 21.4839 24.4298 21.5406 24.2715 21.6467C24.1131 21.7528 23.9898 21.9035 23.917 22.0796C23.8442 22.2558 23.8253 22.4496 23.8627 22.6365C23.9 22.8234 23.992 22.995 24.1268 23.1297C24.2617 23.2644 24.4335 23.3561 24.6204 23.3932C24.8074 23.4303 25.0011 23.4111 25.1772 23.3381C25.3533 23.2651 25.5038 23.1415 25.6096 22.983C25.7155 22.8245 25.772 22.6382 25.772 22.4476C25.772 22.3209 25.747 22.1954 25.6985 22.0784C25.65 21.9614 25.5788 21.855 25.4892 21.7655C25.3995 21.676 25.2931 21.605 25.176 21.5566C25.0589 21.5082 24.9334 21.4834 24.8067 21.4836ZM24.8067 18.0769C24.6161 18.0772 24.4298 18.134 24.2715 18.2401C24.1131 18.3461 23.9898 18.4968 23.917 18.673C23.8442 18.8491 23.8253 19.0429 23.8627 19.2298C23.9 19.4167 23.992 19.5884 24.1268 19.7231C24.2617 19.8577 24.4335 19.9494 24.6204 19.9865C24.8074 20.0236 25.0011 20.0044 25.1772 19.9314C25.3533 19.8584 25.5038 19.7349 25.6096 19.5764C25.7155 19.4179 25.772 19.2315 25.772 19.0409C25.772 18.9142 25.747 18.7888 25.6985 18.6717C25.65 18.5547 25.5788 18.4484 25.4892 18.3588C25.3995 18.2693 25.2931 18.1983 25.176 18.1499C25.0589 18.1016 24.9334 18.0768 24.8067 18.0769ZM11.1813 45.3276C10.9908 45.3279 10.8046 45.3846 10.6463 45.4906C10.4879 45.5967 10.3646 45.7472 10.2918 45.9233C10.219 46.0994 10.2 46.2931 10.2373 46.48C10.2745 46.6669 10.3663 46.8385 10.501 46.9733C10.6358 47.108 10.8074 47.1998 10.9943 47.237C11.1811 47.2743 11.3749 47.2553 11.551 47.1825C11.7271 47.1097 11.8776 46.9863 11.9836 46.828C12.0897 46.6697 12.1464 46.4835 12.1467 46.2929C12.1468 46.1661 12.122 46.0405 12.0735 45.9233C12.0251 45.8061 11.954 45.6996 11.8643 45.61C11.7746 45.5203 11.6682 45.4492 11.551 45.4007C11.4338 45.3523 11.3082 45.3274 11.1813 45.3276ZM11.1813 41.9223C10.9907 41.9225 10.8045 41.9793 10.6461 42.0854C10.4878 42.1915 10.3644 42.3421 10.2917 42.5183C10.2189 42.6945 10.2 42.8882 10.2374 43.0752C10.2747 43.2621 10.3666 43.4337 10.5015 43.5684C10.6364 43.7031 10.8081 43.7948 10.9951 43.8318C11.1821 43.8689 11.3758 43.8498 11.5519 43.7768C11.728 43.7038 11.8784 43.5802 11.9843 43.4217C12.0902 43.2632 12.1467 43.0769 12.1467 42.8863C12.1467 42.7596 12.1217 42.6341 12.0732 42.5171C12.0246 42.4 11.9535 42.2937 11.8638 42.2042C11.7742 42.1146 11.6678 42.0436 11.5507 41.9953C11.4335 41.9469 11.308 41.9221 11.1813 41.9223ZM11.1813 38.5156C10.9907 38.5159 10.8045 38.5726 10.6461 38.6787C10.4878 38.7848 10.3644 38.9355 10.2917 39.1116C10.2189 39.2878 10.2 39.4816 10.2374 39.6685C10.2747 39.8554 10.3666 40.027 10.5015 40.1617C10.6364 40.2964 10.8081 40.3881 10.9951 40.4252C11.1821 40.4623 11.3758 40.4431 11.5519 40.3701C11.728 40.2971 11.8784 40.1735 11.9843 40.015C12.0902 39.8565 12.1467 39.6702 12.1467 39.4796C12.1467 39.3529 12.1217 39.2274 12.0732 39.1104C12.0246 38.9933 11.9535 38.887 11.8638 38.7975C11.7742 38.708 11.6678 38.637 11.5507 38.5886C11.4335 38.5402 11.308 38.5154 11.1813 38.5156ZM11.1813 35.1089C10.9907 35.1092 10.8045 35.166 10.6461 35.2721C10.4878 35.3781 10.3644 35.5288 10.2917 35.705C10.2189 35.8811 10.2 36.0749 10.2374 36.2618C10.2747 36.4487 10.3666 36.6204 10.5015 36.7551C10.6364 36.8897 10.8081 36.9814 10.9951 37.0185C11.1821 37.0556 11.3758 37.0364 11.5519 36.9634C11.728 36.8904 11.8784 36.7669 11.9843 36.6084C12.0902 36.4499 12.1467 36.2635 12.1467 36.0729C12.1467 35.9462 12.1217 35.8208 12.0732 35.7037C12.0246 35.5867 11.9535 35.4804 11.8638 35.3908C11.7742 35.3013 11.6678 35.2303 11.5507 35.1819C11.4335 35.1336 11.308 35.1088 11.1813 35.1089ZM11.1813 31.7023C10.9907 31.7025 10.8045 31.7593 10.6461 31.8654C10.4878 31.9715 10.3644 32.1221 10.2917 32.2983C10.2189 32.4745 10.2 32.6683 10.2374 32.8552C10.2747 33.0421 10.3666 33.2137 10.5015 33.3484C10.6364 33.4831 10.8081 33.5748 10.9951 33.6118C11.1821 33.6489 11.3758 33.6298 11.5519 33.5568C11.728 33.4838 11.8784 33.3602 11.9843 33.2017C12.0902 33.0432 12.1467 32.8569 12.1467 32.6663C12.1467 32.5396 12.1217 32.4141 12.0732 32.2971C12.0246 32.18 11.9535 32.0737 11.8638 31.9842C11.7742 31.8946 11.6678 31.8236 11.5507 31.7753C11.4335 31.7269 11.308 31.7021 11.1813 31.7023ZM11.1813 28.2956C10.9908 28.2959 10.8046 28.3526 10.6463 28.4586C10.4879 28.5647 10.3646 28.7152 10.2918 28.8913C10.219 29.0674 10.2 29.2611 10.2373 29.448C10.2745 29.6349 10.3663 29.8065 10.501 29.9413C10.6358 30.076 10.8074 30.1678 10.9943 30.205C11.1811 30.2423 11.3749 30.2233 11.551 30.1505C11.7271 30.0777 11.8776 29.9543 11.9836 29.796C12.0897 29.6377 12.1464 29.4515 12.1467 29.2609C12.1468 29.1341 12.122 29.0085 12.0735 28.8913C12.0251 28.7741 11.954 28.6676 11.8643 28.578C11.7746 28.4883 11.6682 28.4172 11.551 28.3687C11.4338 28.3203 11.3082 28.2954 11.1813 28.2956ZM11.1813 24.8889C10.9908 24.8892 10.8046 24.9459 10.6463 25.052C10.4879 25.158 10.3646 25.3086 10.2918 25.4847C10.219 25.6607 10.2 25.8545 10.2373 26.0413C10.2745 26.2282 10.3663 26.3999 10.501 26.5346C10.6358 26.6693 10.8074 26.7611 10.9943 26.7984C11.1811 26.8356 11.3749 26.8166 11.551 26.7438C11.7271 26.671 11.8776 26.5477 11.9836 26.3893C12.0897 26.231 12.1464 26.0448 12.1467 25.8543C12.1468 25.7275 12.122 25.6019 12.0735 25.4847C12.0251 25.3675 11.954 25.261 11.8643 25.1713C11.7746 25.0816 11.6682 25.0105 11.551 24.9621C11.4338 24.9136 11.3082 24.8888 11.1813 24.8889ZM11.1813 21.4836C10.9907 21.4839 10.8045 21.5406 10.6461 21.6467C10.4878 21.7528 10.3644 21.9035 10.2917 22.0796C10.2189 22.2558 10.2 22.4496 10.2374 22.6365C10.2747 22.8234 10.3666 22.995 10.5015 23.1297C10.6364 23.2644 10.8081 23.3561 10.9951 23.3932C11.1821 23.4303 11.3758 23.4111 11.5519 23.3381C11.728 23.2651 11.8784 23.1415 11.9843 22.983C12.0902 22.8245 12.1467 22.6382 12.1467 22.4476C12.1467 22.3209 12.1217 22.1954 12.0732 22.0784C12.0246 21.9614 11.9535 21.855 11.8638 21.7655C11.7742 21.676 11.6678 21.605 11.5507 21.5566C11.4335 21.5082 11.308 21.4834 11.1813 21.4836ZM11.1813 18.0769C10.9907 18.0772 10.8045 18.134 10.6461 18.2401C10.4878 18.3461 10.3644 18.4968 10.2917 18.673C10.2189 18.8491 10.2 19.0429 10.2374 19.2298C10.2747 19.4167 10.3666 19.5884 10.5015 19.7231C10.6364 19.8577 10.8081 19.9494 10.9951 19.9865C11.1821 20.0236 11.3758 20.0044 11.5519 19.9314C11.728 19.8584 11.8784 19.7349 11.9843 19.5764C12.0902 19.4179 12.1467 19.2315 12.1467 19.0409C12.1467 18.9142 12.1217 18.7888 12.0732 18.6717C12.0246 18.5547 11.9535 18.4484 11.8638 18.3588C11.7742 18.2693 11.6678 18.1983 11.5507 18.1499C11.4335 18.1016 11.308 18.0768 11.1813 18.0769ZM14.588 45.3263C14.3975 45.3265 14.2113 45.3833 14.0529 45.4893C13.8946 45.5953 13.7713 45.7459 13.6985 45.922C13.6257 46.0981 13.6067 46.2918 13.6439 46.4787C13.6812 46.6655 13.7729 46.8372 13.9077 46.9719C14.0424 47.1067 14.2141 47.1984 14.4009 47.2357C14.5878 47.2729 14.7815 47.2539 14.9576 47.1811C15.1337 47.1084 15.2843 46.985 15.3903 46.8267C15.4963 46.6683 15.5531 46.4822 15.5533 46.2916C15.5535 46.1648 15.5287 46.0392 15.4802 45.922C15.4318 45.8048 15.3607 45.6983 15.271 45.6086C15.1813 45.5189 15.0748 45.4478 14.9576 45.3994C14.8404 45.3509 14.7148 45.3261 14.588 45.3263ZM14.588 41.9209C14.3974 41.9212 14.2111 41.978 14.0528 42.0841C13.8944 42.1901 13.7711 42.3408 13.6983 42.517C13.6256 42.6931 13.6067 42.8869 13.644 43.0738C13.6814 43.2607 13.7733 43.4324 13.9082 43.5671C14.043 43.7017 14.2148 43.7934 14.4018 43.8305C14.5887 43.8676 14.7825 43.8484 14.9585 43.7754C15.1346 43.7024 15.2851 43.5789 15.391 43.4204C15.4968 43.2619 15.5533 43.0755 15.5533 42.8849C15.5533 42.7582 15.5284 42.6328 15.4798 42.5157C15.4313 42.3987 15.3602 42.2924 15.2705 42.2028C15.1809 42.1133 15.0744 42.0423 14.9573 41.9939C14.8402 41.9456 14.7147 41.9208 14.588 41.9209ZM14.588 38.5143C14.3974 38.5145 14.2111 38.5713 14.0528 38.6774C13.8944 38.7835 13.7711 38.9341 13.6983 39.1103C13.6256 39.2865 13.6067 39.4802 13.644 39.6672C13.6814 39.8541 13.7733 40.0257 13.9082 40.1604C14.043 40.2951 14.2148 40.3868 14.4018 40.4238C14.5887 40.4609 14.7825 40.4418 14.9585 40.3688C15.1346 40.2958 15.2851 40.1722 15.391 40.0137C15.4968 39.8552 15.5533 39.6689 15.5533 39.4783C15.5533 39.3516 15.5284 39.2261 15.4798 39.1091C15.4313 38.992 15.3602 38.8857 15.2705 38.7962C15.1809 38.7066 15.0744 38.6356 14.9573 38.5873C14.8402 38.5389 14.7147 38.5141 14.588 38.5143ZM14.588 35.1076C14.3974 35.1079 14.2111 35.1646 14.0528 35.2707C13.8944 35.3768 13.7711 35.5275 13.6983 35.7036C13.6256 35.8798 13.6067 36.0736 13.644 36.2605C13.6814 36.4474 13.7733 36.619 13.9082 36.7537C14.043 36.8884 14.2148 36.9801 14.4018 37.0172C14.5887 37.0543 14.7825 37.0351 14.9585 36.9621C15.1346 36.8891 15.2851 36.7655 15.391 36.607C15.4968 36.4485 15.5533 36.2622 15.5533 36.0716C15.5533 35.9449 15.5284 35.8194 15.4798 35.7024C15.4313 35.5853 15.3602 35.479 15.2705 35.3895C15.1809 35.3 15.0744 35.229 14.9573 35.1806C14.8402 35.1322 14.7147 35.1074 14.588 35.1076ZM14.588 31.7009C14.3974 31.7012 14.2111 31.758 14.0528 31.8641C13.8944 31.9701 13.7711 32.1208 13.6983 32.297C13.6256 32.4731 13.6067 32.6669 13.644 32.8538C13.6814 33.0407 13.7733 33.2124 13.9082 33.3471C14.043 33.4817 14.2148 33.5734 14.4018 33.6105C14.5887 33.6476 14.7825 33.6284 14.9585 33.5554C15.1346 33.4824 15.2851 33.3589 15.391 33.2004C15.4968 33.0419 15.5533 32.8555 15.5533 32.6649C15.5533 32.5382 15.5284 32.4128 15.4798 32.2957C15.4313 32.1787 15.3602 32.0724 15.2705 31.9828C15.1809 31.8933 15.0744 31.8223 14.9573 31.7739C14.8402 31.7256 14.7147 31.7008 14.588 31.7009ZM14.588 28.2943C14.3975 28.2945 14.2113 28.3513 14.0529 28.4573C13.8946 28.5633 13.7713 28.7139 13.6985 28.89C13.6257 29.0661 13.6067 29.2598 13.6439 29.4467C13.6812 29.6335 13.7729 29.8052 13.9077 29.9399C14.0424 30.0747 14.2141 30.1664 14.4009 30.2037C14.5878 30.2409 14.7815 30.2219 14.9576 30.1492C15.1337 30.0764 15.2843 29.953 15.3903 29.7947C15.4963 29.6364 15.5531 29.4502 15.5533 29.2596C15.5535 29.1328 15.5287 29.0072 15.4802 28.89C15.4318 28.7728 15.3607 28.6663 15.271 28.5766C15.1813 28.487 15.0748 28.4159 14.9576 28.3674C14.8404 28.319 14.7148 28.2941 14.588 28.2943ZM14.588 24.8876C14.3975 24.8879 14.2113 24.9446 14.0529 25.0506C13.8946 25.1567 13.7713 25.3072 13.6985 25.4833C13.6257 25.6594 13.6067 25.8531 13.6439 26.04C13.6812 26.2269 13.7729 26.3985 13.9077 26.5333C14.0424 26.668 14.2141 26.7598 14.4009 26.797C14.5878 26.8343 14.7815 26.8153 14.9576 26.7425C15.1337 26.6697 15.2843 26.5463 15.3903 26.388C15.4963 26.2297 15.5531 26.0435 15.5533 25.8529C15.5535 25.7261 15.5287 25.6005 15.4802 25.4833C15.4318 25.3661 15.3607 25.2596 15.271 25.17C15.1813 25.0803 15.0748 25.0092 14.9576 24.9607C14.8404 24.9123 14.7148 24.8874 14.588 24.8876ZM14.588 21.4823C14.3974 21.4825 14.2111 21.5393 14.0528 21.6454C13.8944 21.7515 13.7711 21.9021 13.6983 22.0783C13.6256 22.2545 13.6067 22.4483 13.644 22.6352C13.6814 22.8221 13.7733 22.9937 13.9082 23.1284C14.043 23.2631 14.2148 23.3548 14.4018 23.3919C14.5887 23.4289 14.7825 23.4098 14.9585 23.3368C15.1346 23.2638 15.2851 23.1402 15.391 22.9817C15.4968 22.8232 15.5533 22.6369 15.5533 22.4463C15.5533 22.3196 15.5284 22.1941 15.4798 22.0771C15.4313 21.96 15.3602 21.8537 15.2705 21.7642C15.1809 21.6746 15.0744 21.6036 14.9573 21.5553C14.8402 21.5069 14.7147 21.4821 14.588 21.4823ZM14.588 18.0756C14.3974 18.0759 14.2111 18.1326 14.0528 18.2387C13.8944 18.3448 13.7711 18.4955 13.6983 18.6716C13.6256 18.8478 13.6067 19.0416 13.644 19.2285C13.6814 19.4154 13.7733 19.587 13.9082 19.7217C14.043 19.8564 14.2148 19.9481 14.4018 19.9852C14.5887 20.0223 14.7825 20.0031 14.9585 19.9301C15.1346 19.8571 15.2851 19.7335 15.391 19.575C15.4968 19.4165 15.5533 19.2302 15.5533 19.0396C15.5533 18.9129 15.5284 18.7874 15.4798 18.6704C15.4313 18.5534 15.3602 18.447 15.2705 18.3575C15.1809 18.268 15.0744 18.197 14.9573 18.1486C14.8402 18.1002 14.7147 18.0754 14.588 18.0756ZM14.588 14.6689C14.3974 14.6692 14.2111 14.726 14.0528 14.8321C13.8944 14.9381 13.7711 15.0888 13.6983 15.265C13.6256 15.4411 13.6067 15.6349 13.644 15.8218C13.6814 16.0087 13.7733 16.1804 13.9082 16.3151C14.043 16.4498 14.2148 16.5414 14.4018 16.5785C14.5887 16.6156 14.7825 16.5964 14.9585 16.5234C15.1346 16.4504 15.2851 16.3269 15.391 16.1684C15.4968 16.0099 15.5533 15.8235 15.5533 15.6329C15.5532 15.5064 15.5281 15.381 15.4794 15.2641C15.4308 15.1472 15.3597 15.0411 15.27 14.9517C15.1804 14.8623 15.074 14.7914 14.957 14.7431C14.84 14.6949 14.7146 14.6701 14.588 14.6703M21.4 48.7329C21.2094 48.7329 21.0231 48.7894 20.8646 48.8953C20.7061 49.0012 20.5825 49.1517 20.5095 49.3277C20.4365 49.5038 20.4173 49.6976 20.4544 49.8845C20.4915 50.0715 20.5832 50.2432 20.7179 50.3781C20.8526 50.513 21.0242 50.6049 21.2111 50.6423C21.398 50.6796 21.5918 50.6607 21.768 50.5879C21.9442 50.5152 22.0948 50.3918 22.2009 50.2335C22.307 50.0751 22.3637 49.8889 22.364 49.6983C22.3642 49.5716 22.3394 49.4461 22.291 49.329C22.2426 49.2118 22.1717 49.1054 22.0821 49.0158C21.9926 48.9261 21.8863 48.855 21.7692 48.8064C21.6522 48.7579 21.5267 48.7329 21.4 48.7329ZM21.4 45.3263C21.2094 45.3263 21.0231 45.3828 20.8646 45.4886C20.7061 45.5945 20.5825 45.745 20.5095 45.9211C20.4365 46.0971 20.4173 46.2909 20.4544 46.4778C20.4915 46.6648 20.5832 46.8366 20.7179 46.9715C20.8526 47.1063 21.0242 47.1982 21.2111 47.2356C21.398 47.2729 21.5918 47.254 21.768 47.1813C21.9442 47.1085 22.0948 46.9852 22.2009 46.8268C22.307 46.6685 22.3637 46.4822 22.364 46.2916C22.3642 46.1649 22.3394 46.0394 22.291 45.9223C22.2426 45.8052 22.1717 45.6987 22.0821 45.6091C21.9926 45.5194 21.8863 45.4483 21.7692 45.3998C21.6522 45.3513 21.5267 45.3263 21.4 45.3263ZM21.4 41.9209C21.2093 41.9209 21.023 41.9775 20.8644 42.0834C20.7059 42.1893 20.5823 42.3399 20.5094 42.516C20.4364 42.6922 20.4173 42.886 20.4545 43.073C20.4917 43.26 20.5835 43.4318 20.7183 43.5666C20.8532 43.7014 21.0249 43.7932 21.2119 43.8304C21.3989 43.8676 21.5928 43.8485 21.7689 43.7756C21.9451 43.7026 22.0956 43.579 22.2015 43.4205C22.3075 43.262 22.364 43.0756 22.364 42.8849C22.364 42.6293 22.2624 42.3841 22.0817 42.2033C21.9009 42.0225 21.6557 41.9209 21.4 41.9209ZM21.4 38.5143C21.2093 38.5143 21.023 38.5708 20.8644 38.6767C20.7059 38.7827 20.5823 38.9332 20.5094 39.1094C20.4364 39.2855 20.4173 39.4793 20.4545 39.6663C20.4917 39.8533 20.5835 40.0251 20.7183 40.1599C20.8532 40.2947 21.0249 40.3866 21.2119 40.4237C21.3989 40.4609 21.5928 40.4419 21.7689 40.3689C21.9451 40.2959 22.0956 40.1724 22.2015 40.0138C22.3075 39.8553 22.364 39.6689 22.364 39.4783C22.364 39.2226 22.2624 38.9774 22.0817 38.7966C21.9009 38.6158 21.6557 38.5143 21.4 38.5143ZM21.4 35.1076C21.2093 35.1076 21.023 35.1641 20.8644 35.2701C20.7059 35.376 20.5823 35.5266 20.5094 35.7027C20.4364 35.8788 20.4173 36.0727 20.4545 36.2597C20.4917 36.4467 20.5835 36.6184 20.7183 36.7533C20.8532 36.8881 21.0249 36.9799 21.2119 37.0171C21.3989 37.0543 21.5928 37.0352 21.7689 36.9622C21.9451 36.8893 22.0956 36.7657 22.2015 36.6072C22.3075 36.4486 22.364 36.2623 22.364 36.0716C22.364 35.8159 22.2624 35.5707 22.0817 35.39C21.9009 35.2092 21.6557 35.1076 21.4 35.1076ZM21.4 31.7009C21.2093 31.7009 21.023 31.7575 20.8644 31.8634C20.7059 31.9693 20.5823 32.1199 20.5094 32.296C20.4364 32.4722 20.4173 32.666 20.4545 32.853C20.4917 33.04 20.5835 33.2118 20.7183 33.3466C20.8532 33.4814 21.0249 33.5732 21.2119 33.6104C21.3989 33.6476 21.5928 33.6285 21.7689 33.5556C21.9451 33.4826 22.0956 33.359 22.2015 33.2005C22.3075 33.042 22.364 32.8556 22.364 32.6649C22.364 32.4093 22.2624 32.1641 22.0817 31.9833C21.9009 31.8025 21.6557 31.7009 21.4 31.7009ZM21.4 28.2943C21.2094 28.2943 21.0231 28.3508 20.8646 28.4566C20.7061 28.5625 20.5825 28.713 20.5095 28.8891C20.4365 29.0651 20.4173 29.2589 20.4544 29.4459C20.4915 29.6328 20.5832 29.8046 20.7179 29.9395C20.8526 30.0743 21.0242 30.1662 21.2111 30.2036C21.398 30.2409 21.5918 30.222 21.768 30.1493C21.9442 30.0765 22.0948 29.9532 22.2009 29.7948C22.307 29.6365 22.3637 29.4502 22.364 29.2596C22.3642 29.1329 22.3394 29.0074 22.291 28.8903C22.2426 28.7732 22.1717 28.6668 22.0821 28.5771C21.9926 28.4874 21.8863 28.4163 21.7692 28.3678C21.6522 28.3193 21.5267 28.2943 21.4 28.2943ZM21.4 24.8876C21.2094 24.8876 21.0231 24.9441 20.8646 25.05C20.7061 25.1558 20.5825 25.3063 20.5095 25.4824C20.4365 25.6585 20.4173 25.8522 20.4544 26.0392C20.4915 26.2261 20.5832 26.3979 20.7179 26.5328C20.8526 26.6677 21.0242 26.7596 21.2111 26.7969C21.398 26.8343 21.5918 26.8154 21.768 26.7426C21.9442 26.6699 22.0948 26.5465 22.2009 26.3882C22.307 26.2298 22.3637 26.0435 22.364 25.8529C22.3642 25.7262 22.3394 25.6007 22.291 25.4836C22.2426 25.3665 22.1717 25.2601 22.0821 25.1704C21.9926 25.0808 21.8863 25.0096 21.7692 24.9611C21.6522 24.9126 21.5267 24.8876 21.4 24.8876ZM21.4 21.4823C21.2093 21.4823 21.023 21.5388 20.8644 21.6447C20.7059 21.7507 20.5823 21.9012 20.5094 22.0774C20.4364 22.2535 20.4173 22.4473 20.4545 22.6343C20.4917 22.8213 20.5835 22.9931 20.7183 23.1279C20.8532 23.2627 21.0249 23.3546 21.2119 23.3918C21.3989 23.429 21.5928 23.4099 21.7689 23.3369C21.9451 23.2639 22.0956 23.1404 22.2015 22.9818C22.3075 22.8233 22.364 22.6369 22.364 22.4463C22.364 22.1906 22.2624 21.9454 22.0817 21.7646C21.9009 21.5838 21.6557 21.4823 21.4 21.4823ZM21.4 18.0756C21.2093 18.0756 21.023 18.1321 20.8644 18.2381C20.7059 18.344 20.5823 18.4946 20.5094 18.6707C20.4364 18.8469 20.4173 19.0407 20.4545 19.2277C20.4917 19.4147 20.5835 19.5864 20.7183 19.7213C20.8532 19.8561 21.0249 19.9479 21.2119 19.9851C21.3989 20.0223 21.5928 20.0032 21.7689 19.9302C21.9451 19.8573 22.0956 19.7337 22.2015 19.5752C22.3075 19.4167 22.364 19.2303 22.364 19.0396C22.364 18.7839 22.2624 18.5387 22.0817 18.358C21.9009 18.1772 21.6557 18.0756 21.4 18.0756ZM21.4 14.6689C21.2093 14.6689 21.023 14.7255 20.8644 14.8314C20.7059 14.9373 20.5823 15.0879 20.5094 15.264C20.4364 15.4402 20.4173 15.634 20.4545 15.821C20.4917 16.008 20.5835 16.1798 20.7183 16.3146C20.8532 16.4494 21.0249 16.5412 21.2119 16.5784C21.3989 16.6156 21.5928 16.5965 21.7689 16.5236C21.9451 16.4506 22.0956 16.327 22.2015 16.1685C22.3075 16.01 22.364 15.8236 22.364 15.6329C22.3636 15.3775 22.2619 15.1327 22.0812 14.9522C21.9004 14.7717 21.6554 14.6703 21.4 14.6703M17.9987 48.7343C17.8081 48.7343 17.6217 48.7908 17.4632 48.8966C17.3047 49.0025 17.1812 49.153 17.1082 49.3291C17.0352 49.5051 17.016 49.6989 17.0531 49.8858C17.0902 50.0728 17.1819 50.2446 17.3165 50.3795C17.4512 50.5143 17.6229 50.6062 17.8098 50.6436C17.9967 50.6809 18.1905 50.662 18.3667 50.5893C18.5428 50.5165 18.6935 50.3932 18.7996 50.2348C18.9056 50.0765 18.9624 49.8902 18.9627 49.6996C18.9628 49.5729 18.938 49.4474 18.8897 49.3303C18.8413 49.2132 18.7703 49.1068 18.6808 49.0171C18.5913 48.9274 18.4849 48.8563 18.3679 48.8078C18.2508 48.7593 18.1254 48.7343 17.9987 48.7343ZM17.9987 45.3276C17.8081 45.3276 17.6217 45.3841 17.4632 45.49C17.3047 45.5958 17.1812 45.7463 17.1082 45.9224C17.0352 46.0985 17.016 46.2922 17.0531 46.4792C17.0902 46.6661 17.1819 46.8379 17.3165 46.9728C17.4512 47.1077 17.6229 47.1996 17.8098 47.2369C17.9967 47.2743 18.1905 47.2554 18.3667 47.1826C18.5428 47.1098 18.6935 46.9865 18.7996 46.8281C18.9056 46.6698 18.9624 46.4835 18.9627 46.2929C18.9628 46.1662 18.938 46.0407 18.8897 45.9236C18.8413 45.8065 18.7703 45.7001 18.6808 45.6104C18.5913 45.5208 18.4849 45.4496 18.3679 45.4011C18.2508 45.3526 18.1254 45.3276 17.9987 45.3276ZM17.9987 41.9223C17.808 41.9223 17.6216 41.9788 17.4631 42.0847C17.3046 42.1907 17.181 42.3412 17.108 42.5174C17.0351 42.6935 17.016 42.8873 17.0532 43.0743C17.0904 43.2613 17.1822 43.4331 17.317 43.5679C17.4518 43.7027 17.6236 43.7946 17.8106 43.8317C17.9976 43.8689 18.1914 43.8499 18.3676 43.7769C18.5437 43.7039 18.6943 43.5804 18.8002 43.4218C18.9061 43.2633 18.9627 43.0769 18.9627 42.8863C18.9627 42.6306 18.8611 42.3854 18.6803 42.2046C18.4995 42.0238 18.2543 41.9223 17.9987 41.9223ZM17.9987 38.5156C17.808 38.5156 17.6216 38.5721 17.4631 38.6781C17.3046 38.784 17.181 38.9346 17.108 39.1107C17.0351 39.2868 17.016 39.4807 17.0532 39.6677C17.0904 39.8547 17.1822 40.0264 17.317 40.1613C17.4518 40.2961 17.6236 40.3879 17.8106 40.4251C17.9976 40.4623 18.1914 40.4432 18.3676 40.3702C18.5437 40.2973 18.6943 40.1737 18.8002 40.0152C18.9061 39.8566 18.9627 39.6703 18.9627 39.4796C18.9627 39.2239 18.8611 38.9787 18.6803 38.798C18.4995 38.6172 18.2543 38.5156 17.9987 38.5156ZM17.9987 35.1089C17.808 35.1089 17.6216 35.1655 17.4631 35.2714C17.3046 35.3773 17.181 35.5279 17.108 35.704C17.0351 35.8802 17.016 36.074 17.0532 36.261C17.0904 36.448 17.1822 36.6198 17.317 36.7546C17.4518 36.8894 17.6236 36.9812 17.8106 37.0184C17.9976 37.0556 18.1914 37.0365 18.3676 36.9636C18.5437 36.8906 18.6943 36.767 18.8002 36.6085C18.9061 36.45 18.9627 36.2636 18.9627 36.0729C18.9627 35.8173 18.8611 35.5721 18.6803 35.3913C18.4995 35.2105 18.2543 35.1089 17.9987 35.1089ZM17.9987 31.7023C17.808 31.7023 17.6216 31.7588 17.4631 31.8647C17.3046 31.9707 17.181 32.1212 17.108 32.2974C17.0351 32.4735 17.016 32.6673 17.0532 32.8543C17.0904 33.0413 17.1822 33.2131 17.317 33.3479C17.4518 33.4827 17.6236 33.5746 17.8106 33.6118C17.9976 33.6489 18.1914 33.6299 18.3676 33.5569C18.5437 33.4839 18.6943 33.3604 18.8002 33.2018C18.9061 33.0433 18.9627 32.8569 18.9627 32.6663C18.9627 32.4106 18.8611 32.1654 18.6803 31.9846C18.4995 31.8038 18.2543 31.7023 17.9987 31.7023ZM17.9987 28.2956C17.8081 28.2956 17.6217 28.3521 17.4632 28.458C17.3047 28.5638 17.1812 28.7143 17.1082 28.8904C17.0352 29.0665 17.016 29.2602 17.0531 29.4472C17.0902 29.6341 17.1819 29.8059 17.3165 29.9408C17.4512 30.0757 17.6229 30.1676 17.8098 30.2049C17.9967 30.2423 18.1905 30.2234 18.3667 30.1506C18.5428 30.0779 18.6935 29.9545 18.7996 29.7961C18.9056 29.6378 18.9624 29.4515 18.9627 29.2609C18.9628 29.1342 18.938 29.0087 18.8897 28.8916C18.8413 28.7745 18.7703 28.6681 18.6808 28.5784C18.5913 28.4888 18.4849 28.4176 18.3679 28.3691C18.2508 28.3206 18.1254 28.2956 17.9987 28.2956ZM17.9987 24.8889C17.8081 24.8889 17.6217 24.9454 17.4632 25.0513C17.3047 25.1572 17.1812 25.3077 17.1082 25.4837C17.0352 25.6598 17.016 25.8536 17.0531 26.0405C17.0902 26.2275 17.1819 26.3993 17.3165 26.5341C17.4512 26.669 17.6229 26.7609 17.8098 26.7983C17.9967 26.8356 18.1905 26.8167 18.3667 26.7439C18.5428 26.6712 18.6935 26.5478 18.7996 26.3895C18.9056 26.2311 18.9624 26.0449 18.9627 25.8543C18.9628 25.7276 18.938 25.6021 18.8897 25.485C18.8413 25.3678 18.7703 25.2614 18.6808 25.1718C18.5913 25.0821 18.4849 25.011 18.3679 24.9625C18.2508 24.9139 18.1254 24.8889 17.9987 24.8889ZM17.9987 21.4836C17.808 21.4836 17.6216 21.5401 17.4631 21.6461C17.3046 21.752 17.181 21.9026 17.108 22.0787C17.0351 22.2549 17.016 22.4487 17.0532 22.6357C17.0904 22.8227 17.1822 22.9944 17.317 23.1293C17.4518 23.2641 17.6236 23.3559 17.8106 23.3931C17.9976 23.4303 18.1914 23.4112 18.3676 23.3382C18.5437 23.2653 18.6943 23.1417 18.8002 22.9832C18.9061 22.8247 18.9627 22.6383 18.9627 22.4476C18.9627 22.1919 18.8611 21.9467 18.6803 21.766C18.4995 21.5852 18.2543 21.4836 17.9987 21.4836ZM17.9987 18.0769C17.808 18.0769 17.6216 18.1335 17.4631 18.2394C17.3046 18.3453 17.181 18.4959 17.108 18.672C17.0351 18.8482 17.016 19.042 17.0532 19.229C17.0904 19.416 17.1822 19.5878 17.317 19.7226C17.4518 19.8574 17.6236 19.9492 17.8106 19.9864C17.9976 20.0236 18.1914 20.0045 18.3676 19.9316C18.5437 19.8586 18.6943 19.735 18.8002 19.5765C18.9061 19.418 18.9627 19.2316 18.9627 19.0409C18.9627 18.7853 18.8611 18.5401 18.6803 18.3593C18.4995 18.1785 18.2543 18.0769 17.9987 18.0769ZM18.9587 15.6356C18.9584 15.8264 18.9015 16.0128 18.7953 16.1712C18.689 16.3297 18.5381 16.453 18.3617 16.5257C18.1853 16.5983 17.9913 16.617 17.8043 16.5793C17.6173 16.5416 17.4457 16.4493 17.3111 16.314C17.1766 16.1788 17.0852 16.0066 17.0486 15.8194C17.012 15.6322 17.0317 15.4383 17.1053 15.2623C17.1789 15.0863 17.3031 14.9361 17.4622 14.8307C17.6212 14.7253 17.8079 14.6695 17.9987 14.6703C18.2543 14.6703 18.4995 14.7718 18.6803 14.9526C18.8611 15.1334 18.9627 15.3786 18.9627 15.6343" fill="#121217"/>
</g>
</svg>
