<svg width="160" height="64" viewBox="0 0 160 64" fill="none" xmlns="http://www.w3.org/2000/svg">
<path d="M31 37.9973V17.4347H34.6242V37.9973H31Z" fill="white"/>
<path d="M43.9021 23.0814C42.3874 23.1111 40.9152 23.5862 39.6706 24.4473C38.426 25.3083 37.4645 26.5168 36.9069 27.9207C36.3493 29.3247 36.2205 30.8615 36.5367 32.3382C36.8528 33.8149 37.5998 35.1656 38.6838 36.2205C39.7678 37.2754 41.1404 37.9875 42.6292 38.2673C44.118 38.547 45.6566 38.382 47.0516 37.793C48.4466 37.2039 49.6358 36.2173 50.4698 34.9567C51.3039 33.6961 51.7455 32.2179 51.7392 30.708C51.7382 29.6911 51.5334 28.6848 51.1369 27.7479C50.7404 26.811 50.1601 25.9624 49.4301 25.2519C48.7001 24.5415 47.8351 23.9836 46.8858 23.6108C45.9365 23.2381 44.9221 23.0581 43.9021 23.0814ZM43.8593 26.5654C44.6893 26.5556 45.5034 26.7919 46.1983 27.2443C46.8932 27.6967 47.4374 28.3449 47.7619 29.1063C48.0863 29.8677 48.1763 30.7082 48.0204 31.5207C47.8645 32.3332 47.4698 33.0812 46.8864 33.6696C46.3029 34.258 45.5572 34.6602 44.7438 34.8252C43.9305 34.9902 43.0863 34.9106 42.3185 34.5964C41.5507 34.2821 40.894 33.7473 40.4318 33.0602C39.9696 32.3731 39.7228 31.5645 39.7227 30.7373C39.7176 30.1922 39.8207 29.6514 40.0262 29.1462C40.2316 28.6409 40.5354 28.1812 40.9198 27.7935C41.3043 27.4057 41.762 27.0975 42.2665 26.8867C42.771 26.676 43.3123 26.5668 43.8593 26.5654Z" fill="white"/>
<path d="M60.8445 23.0813C59.3298 23.111 57.8576 23.5862 56.613 24.4472C55.3684 25.3082 54.4069 26.5167 53.8493 27.9207C53.2917 29.3246 53.1629 30.8615 53.4791 32.3382C53.7952 33.8149 54.5422 35.1656 55.6262 36.2205C56.7102 37.2754 58.0828 37.9874 59.5716 38.2672C61.0604 38.547 62.599 38.3819 63.994 37.7929C65.389 37.2039 66.5782 36.2172 67.4122 34.9567C68.2463 33.6961 68.6878 32.2179 68.6815 30.708C68.7829 29.2999 68.3626 27.9038 67.5002 26.784L68.5049 26.4414V23.5079H63.357C62.5488 23.2288 61.6999 23.0847 60.8445 23.0813ZM60.8017 26.5654C61.6317 26.5556 62.4458 26.7918 63.1407 27.2443C63.8356 27.6967 64.3798 28.3448 64.7042 29.1062C65.0287 29.8677 65.1187 30.7081 64.9628 31.5206C64.8069 32.3331 64.4122 33.0811 63.8288 33.6695C63.2453 34.258 62.4996 34.6601 61.6862 34.8251C60.8729 34.9902 60.0287 34.9106 59.2609 34.5963C58.4931 34.282 57.8364 33.7473 57.3742 33.0602C56.912 32.3731 56.6651 31.5645 56.6651 30.7373C56.66 30.1921 56.7631 29.6514 56.9686 29.1461C57.174 28.6409 57.4777 28.1812 57.8622 27.7934C58.2467 27.4056 58.7044 27.0974 59.2089 26.8867C59.7134 26.6759 60.2547 26.5668 60.8017 26.5654Z" fill="white"/>
<path d="M64.9985 39.0027C64.9985 40.1083 64.5578 41.1686 63.7734 41.9503C62.989 42.7321 61.9251 43.1714 60.8157 43.1714C59.7064 43.1714 58.6425 42.7321 57.8581 41.9503C57.0737 41.1686 56.633 40.1083 56.633 39.0027H52.9566C52.9836 41.0599 53.8224 43.0236 55.2916 44.4689C56.7608 45.9141 58.7421 46.7246 60.8064 46.7246C62.8707 46.7246 64.8519 45.9141 66.3211 44.4689C67.7903 43.0236 68.6292 41.0599 68.6561 39.0027H64.9985Z" fill="white"/>
<path d="M70.1318 37.9974V23.5067H73.7559V37.9974H70.1318Z" fill="white"/>
<path d="M77.2771 37.9974V26.7507H75.3332V23.5054H77.2771V19.056H80.9014V23.5054H82.8974V26.7507H80.9014V37.9959L77.2771 37.9974Z" fill="white"/>
<path d="M74.3379 19.392C74.3379 19.8651 74.1972 20.3275 73.9334 20.7209C73.6697 21.1143 73.2949 21.4209 72.8563 21.6019C72.4178 21.783 71.9351 21.8303 71.4696 21.738C71.004 21.6457 70.5764 21.4179 70.2407 21.0834C69.9051 20.7489 69.6765 20.3226 69.5839 19.8586C69.4913 19.3946 69.5388 18.9137 69.7204 18.4766C69.9021 18.0395 70.2097 17.666 70.6044 17.4031C70.9991 17.1403 71.4632 17 71.9379 17C72.5744 17 73.1849 17.252 73.635 17.7006C74.0851 18.1492 74.3379 18.7576 74.3379 19.392Z" fill="white"/>
<path d="M91.0476 23.0707C90.0226 23.0493 89.0041 23.2368 88.0545 23.6217C87.1049 24.0066 86.2441 24.5806 85.5251 25.3089C84.806 26.0371 84.2439 26.9041 83.873 27.8566C83.5021 28.809 83.3304 29.8271 83.3683 30.8481C83.3261 31.8671 83.4993 32.8834 83.8767 33.8313C84.254 34.7793 84.8271 35.6376 85.5588 36.3505C86.2904 37.0635 87.1643 37.6153 88.1237 37.97C89.0831 38.3247 90.1066 38.4743 91.1278 38.4093C92.3595 38.4481 93.5851 38.2229 94.7218 37.7488C95.8585 37.2747 96.8799 36.5629 97.7167 35.6614L95.2938 33.2441C94.2068 34.3785 92.7415 35.0778 91.1733 35.2107C90.2638 35.2465 89.3701 34.9655 88.6458 34.4161C87.9215 33.8668 87.4117 33.0832 87.2039 32.2H98.4966V31.2054C98.4913 27.236 96.1862 23.0707 91.0476 23.0707ZM90.9325 26.2508C91.8226 26.2003 92.6998 26.4809 93.3942 27.038C94.0887 27.5952 94.5511 28.3893 94.6918 29.2667H87.1022C87.2803 28.3943 87.7624 27.6129 88.4632 27.0608C89.1641 26.5088 90.0383 26.2219 90.9311 26.2508H90.9325Z" fill="white"/>
<path d="M107.556 38.4093C106.534 38.4293 105.517 38.2459 104.566 37.8698C103.615 37.4937 102.749 36.9323 102.018 36.2187C101.287 35.5051 100.706 34.6536 100.309 33.7137C99.9124 32.7738 99.7074 31.7646 99.7065 30.7449C99.7055 29.7252 99.9085 28.7155 100.304 27.7749C100.699 26.8343 101.278 25.9816 102.007 25.2666C102.737 24.5516 103.602 23.9886 104.552 23.6107C105.502 23.2327 106.519 23.0474 107.542 23.0654C108.728 23.056 109.902 23.3107 110.977 23.811C112.052 24.3114 113.001 25.0446 113.756 25.9573L111.227 28.4653C110.775 27.9128 110.212 27.4601 109.574 27.1356C108.937 26.811 108.239 26.6219 107.524 26.5801C106.428 26.5956 105.382 27.0395 104.611 27.8164C103.84 28.5933 103.405 29.641 103.402 30.7337C103.398 31.8264 103.825 32.8768 104.591 33.6588C105.357 34.4409 106.4 34.8918 107.496 34.9147C108.215 34.8773 108.918 34.6904 109.56 34.3662C110.202 34.042 110.768 33.5875 111.223 33.0321L113.777 35.5387C113.021 36.4498 112.07 37.1805 110.994 37.6772C109.917 38.174 108.743 38.4241 107.556 38.4093Z" fill="white"/>
<path d="M115.096 38.0094V17.3839H118.721V24.9614C119.266 24.3367 119.945 23.8422 120.708 23.5145C121.471 23.1867 122.298 23.0341 123.127 23.068C126.923 23.068 129.121 25.88 129.121 29.476V38.0094H125.497V30.0226C125.551 29.5819 125.508 29.1346 125.371 28.7121C125.234 28.2895 125.006 27.9019 124.703 27.5763C124.4 27.2507 124.03 26.9951 123.617 26.8271C123.205 26.6592 122.761 26.583 122.315 26.604C121.832 26.5662 121.347 26.6334 120.892 26.8012C120.437 26.969 120.025 27.2334 119.683 27.5758C119.341 27.9182 119.078 28.3305 118.912 28.7843C118.746 29.2381 118.68 29.7227 118.721 30.2041V38.004L115.096 38.0094Z" fill="white"/>
</svg>
