<svg width="160" height="64" viewBox="0 0 160 64" fill="none" xmlns="http://www.w3.org/2000/svg">
<path d="M81.158 36.9906C81.6927 37.0794 81.9601 37.4353 81.7821 37.7914C81.604 38.2367 81.2478 38.4145 80.6239 38.4145H78.0409L78.575 36.9906H81.158Z" fill="white"/>
<path d="M81.9602 34.8522C82.4056 34.8522 82.5836 35.1196 82.4056 35.5645C82.3262 35.7385 82.2017 35.888 82.0451 35.9977C81.8885 36.1074 81.7054 36.1733 81.5148 36.1884L78.9305 36.1879L79.4647 34.852L81.9602 34.8522Z" fill="white"/>
<path d="M89.976 34.9415C90.4211 34.9416 90.5993 35.1199 90.4214 35.565C90.333 35.7501 90.1944 35.9068 90.0213 36.017C89.8482 36.1272 89.647 36.1867 89.4418 36.1884H87.0367L87.5709 34.9415H89.976Z" fill="white"/>
<path d="M97.5467 34.852C97.9918 34.9412 98.1699 35.1197 97.992 35.5649C97.9036 35.75 97.7647 35.9068 97.5916 36.017C97.4185 36.1272 97.2177 36.1871 97.0125 36.1889H94.6073L95.1414 34.852H97.5467Z" fill="white"/>
<path fill-rule="evenodd" clip-rule="evenodd" d="M79.9989 10.0024C83.6085 9.98021 87.1671 10.8556 90.3543 12.5502C93.5416 14.2449 96.2585 16.7054 98.2586 19.7104C101.001 23.781 102.303 28.6521 101.959 33.5483C101.614 38.4444 99.6435 43.0852 96.3582 46.7319C93.0729 50.3786 88.6619 52.8216 83.828 53.6733C78.9941 54.5249 74.0143 53.7363 69.6805 51.4321C65.3467 49.1277 61.9079 45.4401 59.911 40.9565C57.9141 36.4729 57.4739 31.4506 58.66 26.6879C59.8462 21.9251 62.5912 17.6957 66.4579 14.6723C70.3245 11.649 75.0906 10.0049 79.9989 10.0024ZM77.4168 11.7826C74.9135 12.1372 72.497 12.9528 70.2909 14.1879C70.2906 14.1996 70.2934 14.2112 70.2977 14.2221C70.302 14.2329 70.3081 14.2431 70.3162 14.2514C70.3245 14.2597 70.3347 14.2665 70.3455 14.2709C70.3565 14.2753 70.3689 14.278 70.3807 14.2778C72.5173 20.6012 70.914 20.7795 66.1063 17.3949H66.0145C64.1993 19.1423 62.7462 21.2305 61.7401 23.5404C61.7519 23.5402 61.7643 23.5429 61.7752 23.5473C61.786 23.5517 61.7963 23.5576 61.8045 23.5658C61.8128 23.5741 61.8187 23.5843 61.8231 23.5951C61.8274 23.6059 61.8301 23.6177 61.8299 23.6293C67.3524 27.4594 66.1031 28.5284 60.3153 28.7065H60.2254C59.5054 33.633 60.6492 38.6514 63.4325 42.7797C65.1938 45.3943 67.5427 47.5602 70.2909 49.1049L73.3192 41.8881C71.9721 40.972 70.7965 39.826 69.8455 38.5033C68.003 35.7748 67.3196 32.426 67.9461 29.1938C68.5727 25.9616 70.4578 23.1105 73.1864 21.268C75.9147 19.4258 79.263 18.7432 82.495 19.3696C85.7271 19.996 88.5782 21.8804 90.4207 24.6088C91.6379 26.4057 92.3461 28.4987 92.4696 30.6654H100.219C100.129 29.9532 100.04 29.063 99.8621 28.1723H99.6844C93.0044 28.083 93.3602 26.5689 98.0809 23.0951H98.1707C97.7491 22.2346 97.2731 21.4013 96.7459 20.601C95.9456 19.4065 95.0189 18.3014 93.9823 17.3051L93.8934 17.3949C88.4602 21.3138 87.8369 19.7103 89.62 14.1879V14.099C87.4819 12.9608 85.1596 12.2071 82.7606 11.8725V11.9613C80.6238 18.2852 79.2872 17.3946 77.4168 11.8725V11.7826ZM82.5838 33.6049H78.4871C78.4754 33.6046 78.4629 33.6073 78.452 33.6117C78.4412 33.6161 78.4319 33.623 78.4237 33.6313C78.4155 33.6395 78.4085 33.6488 78.4041 33.6596C78.3997 33.6705 78.397 33.683 78.3973 33.6947L76.0819 39.6615C76.0816 39.6733 76.0833 39.6858 76.0877 39.6967C76.0921 39.7074 76.0991 39.7168 76.1073 39.725C76.1156 39.7333 76.1257 39.7402 76.1366 39.7446C76.1474 39.7489 76.1591 39.7516 76.1707 39.7514H80.5838C81.1157 39.7333 81.6353 39.5793 82.0926 39.3022C82.6152 38.9854 83.0336 38.5217 83.2948 37.9692C83.4229 37.7301 83.4571 37.452 83.3914 37.1889C83.3256 36.9255 83.1641 36.696 82.9383 36.5453C83.4235 36.3022 83.804 35.8902 84.0077 35.3871C84.0954 35.2226 84.1414 35.0384 84.1414 34.852C84.1414 34.6657 84.0953 34.4822 84.0077 34.3178C83.8595 34.079 83.6476 33.886 83.3963 33.7602C83.145 33.6344 82.8638 33.5804 82.5838 33.6049ZM86.4676 33.6117C86.4569 33.6161 86.4475 33.6231 86.4393 33.6313C86.431 33.6396 86.4242 33.6496 86.4198 33.6606C86.4155 33.6714 86.4127 33.6831 86.4129 33.6947L84.0975 39.6615C84.0972 39.6733 84.099 39.6858 84.1034 39.6967C84.1078 39.7076 84.1146 39.7177 84.1229 39.726C84.1312 39.7342 84.1414 39.7402 84.1522 39.7446C84.163 39.7489 84.1747 39.7516 84.1864 39.7514H85.6112C85.6229 39.7516 85.6345 39.7489 85.6454 39.7446C85.6561 39.7402 85.6664 39.7342 85.6746 39.726C85.6829 39.7177 85.6898 39.7075 85.6942 39.6967C85.6986 39.6858 85.7013 39.6733 85.701 39.6615L86.5916 37.3461H88.1053L88.8182 39.6615L88.9071 39.7514H90.5106C90.5223 39.7516 90.5339 39.7489 90.5448 39.7446C90.5556 39.7402 90.5658 39.7342 90.5741 39.726C90.5824 39.7177 90.5892 39.7076 90.5936 39.6967C90.598 39.6858 90.5997 39.6733 90.5995 39.6615L89.7977 37.3461C90.2941 37.3143 90.7708 37.1364 91.1668 36.8354C91.5627 36.5344 91.8608 36.1234 92.0243 35.6537C92.3809 34.5849 92.0249 33.6049 90.5106 33.6049H86.5028C86.491 33.6046 86.4786 33.6073 86.4676 33.6117ZM94.0379 33.6117C94.0272 33.6161 94.0178 33.6231 94.0096 33.6313C94.0013 33.6396 93.9945 33.6496 93.9901 33.6606C93.9858 33.6714 93.983 33.6831 93.9832 33.6947L91.6678 39.6615C91.6676 39.6733 91.6693 39.6858 91.6737 39.6967C91.6781 39.7076 91.6849 39.7177 91.6932 39.726C91.7015 39.7342 91.7117 39.7402 91.7225 39.7446C91.7333 39.7489 91.745 39.7516 91.7567 39.7514H93.0926C93.1816 39.7514 93.1815 39.7507 93.1815 39.6615L94.0721 37.435H96.5662C98.0805 37.435 99.0603 36.9011 99.5057 35.6537C100.04 34.4069 99.4166 33.6049 98.0809 33.6049H94.0731C94.0613 33.6046 94.0489 33.6073 94.0379 33.6117Z" fill="white"/>
</svg>
