<svg width="160" height="64" viewBox="0 0 160 64" fill="none" xmlns="http://www.w3.org/2000/svg">
<path d="M100.047 41.9314V39.9769H98.6204V21.709H91.5606V23.6635H92.994V27.3826C92.1567 26.7057 91.1113 26.3404 90.0356 26.3486C90.0356 26.3486 83.9219 26.0966 83.9219 34.14C83.9219 42.1833 90.0356 42.1332 90.0356 42.1332C92.313 42.1332 92.994 40.5456 92.994 40.5456V41.9317L100.047 41.9314ZM89.7076 31.8204C89.7076 30.9377 89.6573 28.4159 90.8404 28.1892C92.9405 27.7862 92.9933 31.0891 92.9933 31.0891V37.3426C92.9933 37.3426 92.9234 40.719 90.8404 40.2421C89.6828 39.9776 89.7076 37.4936 89.7076 36.6113V31.8204Z" fill="white"/>
<path d="M58.4714 41.9314V30.4335C58.4714 29.8788 58.4458 28.9457 57.5655 28.9457C57.3137 28.9698 57.0692 29.0442 56.8465 29.1646C56.6239 29.2849 56.4275 29.4488 56.2691 29.6465C56.0999 29.8301 55.1752 30.95 55.1752 33.4711V41.9303H49.5464V23.6635H48.1172V21.709H55.1735V28.5189C55.1735 28.5189 55.9849 26.3503 60.0037 26.3503C64.0809 26.3503 64.0795 29.8792 64.0795 29.8792V39.9769H65.513V41.9307L58.4714 41.9314Z" fill="white"/>
<path d="M74.4766 26.3301C72.9192 26.33 71.3966 26.7928 70.1016 27.66C68.8066 28.5271 67.7972 29.7597 67.2011 31.2018C66.605 32.6439 66.449 34.2308 66.7528 35.7618C67.0566 37.2927 67.8065 38.699 68.9078 39.8028C70.009 40.9067 71.4121 41.6584 72.9397 41.963C74.4672 42.2676 76.0505 42.1114 77.4895 41.5141C78.9284 40.9168 80.1583 39.9053 81.0237 38.6074C81.889 37.3096 82.3509 35.7837 82.351 34.2227C82.351 33.1863 82.1474 32.16 81.7517 31.2025C81.356 30.2449 80.776 29.3748 80.0448 28.6419C79.3136 27.909 78.4455 27.3276 77.4901 26.931C76.5347 26.5343 75.5107 26.3301 74.4766 26.3301ZM76.2569 37.8283C76.2569 37.8283 76.3824 40.93 74.6214 40.93C72.8604 40.93 72.9859 37.8283 72.9859 37.8283V30.7931C72.9859 30.7931 72.86 27.6914 74.6214 27.6914C76.3827 27.6914 76.2569 30.7931 76.2569 30.7931V37.8283Z" fill="white"/>
<path d="M24 21.7095V23.664H26.0956V39.9774H24V41.9312H33.09V32.6842H34.7248C34.7248 32.6842 36.9137 32.6772 36.9137 35.172V37.9205C36.9137 37.9205 36.9644 41.9294 41.5685 41.9294H47.5165V39.8099H44.5867V37.7187C44.5867 36.9338 44.9461 31.9876 40.2396 31.0871C45.1342 30.1957 44.8632 26.6494 44.8632 26.6494V26.3466C44.8632 26.3466 45.2157 21.707 37.7937 21.707L24 21.7095ZM37.1658 26.6518C37.1658 29.6901 33.09 29.3369 33.09 29.3369V23.664H33.8822C35.0677 23.7341 37.1654 24.1689 37.1654 26.3491L37.1658 26.6518Z" fill="white"/>
<path d="M115.756 34.5941C115.756 34.5941 116.485 26.3486 108.718 26.3486C106.63 26.3486 104.627 27.1801 103.15 28.6602C101.673 30.1403 100.844 32.1478 100.844 34.2409C100.844 36.3341 101.673 38.3416 103.15 39.8216C104.627 41.3017 106.63 42.1333 108.718 42.1333C108.87 42.1333 109.018 42.1283 109.165 42.1206C109.179 42.1206 109.193 42.1185 109.207 42.1178C110.426 42.0251 111.613 41.6779 112.692 41.0987C113.77 40.5194 114.715 39.7208 115.468 38.754L113.909 37.3174C113.909 37.3174 112.197 39.3346 110.022 39.3346C107.665 39.3346 107.279 36.9789 107.228 35.8678V34.5945L115.756 34.5941ZM108.864 27.7106C110.626 27.7106 110.5 30.8116 110.5 30.8116V32.5009H107.227V30.8116C107.227 30.8116 107.103 27.7106 108.864 27.7106Z" fill="white"/>
<path d="M129.863 36.0295C129.421 33.7263 127.474 32.297 124.568 31.0871C121.662 29.8772 121.913 29.0699 121.913 28.8446C121.913 28.6193 122.174 27.5257 123.951 27.71C125.826 27.9041 127.118 30.5668 127.215 30.7721V30.7858H129.083V26.8722H127.215V27.7009C127.114 27.5867 125.706 26.0677 122.643 26.3466C119.483 26.6347 117.812 28.414 117.812 31.2637C117.812 34.1135 120.304 35.6514 123.247 36.9051C126.191 38.1588 125.864 39.0551 125.864 39.4174C125.864 39.7797 125.537 40.4925 124.303 40.4925C120.58 40.4925 119.699 36.9051 119.699 36.9051H117.917V41.4059H119.7V40.6571C120.319 41.2682 121.685 42.1334 124.468 42.1334C128.769 42.1316 130.317 38.3869 129.863 36.0295Z" fill="white"/>
<path d="M133.06 26.8986C132.478 26.8986 131.909 26.7256 131.425 26.4015C130.941 26.0774 130.564 25.6168 130.341 25.0779C130.118 24.539 130.06 23.946 130.174 23.3739C130.287 22.8018 130.568 22.2763 130.979 21.8638C131.391 21.4514 131.915 21.1705 132.486 21.0567C133.057 20.9429 133.648 21.0013 134.186 21.2245C134.724 21.4477 135.183 21.8257 135.507 22.3108C135.83 22.7958 136.003 23.366 136.003 23.9493C136.003 24.3366 135.927 24.7201 135.779 25.078C135.631 25.4358 135.414 25.761 135.141 26.0348C134.868 26.3087 134.543 26.526 134.186 26.6742C133.829 26.8224 133.446 26.8986 133.06 26.8986ZM133.06 21.5463C132.583 21.5363 132.115 21.6688 131.714 21.9269C131.313 22.185 130.998 22.557 130.808 22.9953C130.619 23.4337 130.565 23.9186 130.651 24.3883C130.738 24.8579 130.963 25.2909 131.296 25.6321C131.63 25.9733 132.057 26.2072 132.524 26.304C132.991 26.4008 133.475 26.356 133.917 26.1755C134.358 25.9949 134.735 25.6868 135.001 25.2903C135.267 24.8938 135.409 24.4269 135.409 23.9493C135.414 23.6365 135.357 23.3257 135.241 23.0351C135.126 22.7445 134.954 22.4798 134.735 22.2564C134.517 22.0329 134.256 21.8552 133.968 21.7335C133.681 21.6118 133.372 21.5485 133.06 21.5473V21.5463ZM133.678 25.5383L133.027 24.2769H132.621V25.5383H132.037V22.3532H133.232C133.364 22.3479 133.495 22.3691 133.619 22.4157C133.742 22.4623 133.855 22.5333 133.951 22.6244C134.046 22.7156 134.123 22.825 134.175 22.9463C134.228 23.0676 134.255 23.1983 134.257 23.3305C134.26 23.5231 134.2 23.7115 134.087 23.8673C133.974 24.0232 133.814 24.138 133.63 24.1946L134.337 25.5383H133.678ZM133.157 22.8497H132.621V23.8112H133.156C133.222 23.8163 133.289 23.8076 133.351 23.7857C133.414 23.7639 133.471 23.7293 133.52 23.6842C133.568 23.639 133.607 23.5843 133.634 23.5235C133.66 23.4626 133.674 23.3969 133.674 23.3305C133.674 23.2641 133.66 23.1984 133.634 23.1375C133.607 23.0767 133.568 23.0219 133.52 22.9768C133.471 22.9317 133.414 22.8971 133.351 22.8752C133.289 22.8534 133.222 22.8447 133.156 22.8497H133.157Z" fill="white"/>
</svg>
