<svg width="24" height="24" viewBox="0 0 24 24" fill="none" xmlns="http://www.w3.org/2000/svg">
<path d="M12.0547 19.9997C9.83202 19.9997 7.94302 19.222 6.38769 17.6667C4.83235 16.1114 4.05469 14.2224 4.05469 11.9997C4.05469 9.9737 4.71469 8.21704 6.03469 6.7297C7.35469 5.24237 8.98935 4.36437 10.9387 4.0957C10.9927 4.0957 11.0457 4.0977 11.0977 4.1017C11.1497 4.1057 11.2007 4.11137 11.2507 4.1187C10.9134 4.58937 10.6464 5.1127 10.4497 5.6887C10.253 6.2647 10.1547 6.86837 10.1547 7.4997C10.1547 9.2777 10.7767 10.7887 12.0207 12.0327C13.2647 13.2767 14.776 13.899 16.5547 13.8997C17.1887 13.8997 17.793 13.8014 18.3677 13.6047C18.9424 13.408 19.4584 13.141 19.9157 12.8037C19.9237 12.8537 19.9294 12.9047 19.9327 12.9567C19.936 13.0087 19.938 13.0617 19.9387 13.1157C19.6827 15.0644 18.811 16.6987 17.3237 18.0187C15.8364 19.3387 14.0807 19.999 12.0547 19.9997ZM12.0537 18.9997C13.5204 18.9997 14.837 18.5954 16.0037 17.7867C17.1704 16.978 18.0204 15.924 18.5537 14.6247C18.2204 14.708 17.887 14.7747 17.5537 14.8247C17.2204 14.8747 16.887 14.8997 16.5537 14.8997C14.5044 14.8997 12.7587 14.179 11.3167 12.7377C9.87469 11.2964 9.15402 9.55037 9.15469 7.4997C9.15469 7.16637 9.17969 6.83304 9.22969 6.4997C9.27969 6.16637 9.34635 5.83304 9.42969 5.4997C8.12969 6.03304 7.07535 6.88304 6.26669 8.0497C5.45802 9.21637 5.05402 10.533 5.05469 11.9997C5.05469 13.933 5.73802 15.583 7.10469 16.9497C8.47135 18.3164 10.1204 18.9997 12.0537 18.9997Z" fill="white"/>
</svg>
