<svg width="24" height="24" viewBox="0 0 24 24" fill="none" xmlns="http://www.w3.org/2000/svg">
<path d="M11.5001 5.42306V2.03906H12.5001V5.42306H11.5001ZM16.9961 7.71206L16.3141 7.02906L18.6711 4.57706L19.3981 5.31006L16.9961 7.71206ZM18.5771 12.5001V11.5001H21.9621V12.5001H18.5771ZM11.5001 21.9621V18.5961H12.5001V21.9621H11.5001ZM7.04206 7.68006L4.57706 5.32906L5.32906 4.62106L7.73006 7.00406L7.04206 7.68006ZM18.6661 19.4221L16.3141 16.9701L16.9911 16.3131L19.3791 18.6591L18.6661 19.4221ZM2.03906 12.5001V11.5001H5.42306V12.5001H2.03906ZM5.30906 19.4231L4.62106 18.6711L6.97906 16.3141L7.33906 16.6621L7.71706 17.0161L5.30906 19.4231ZM12.0061 17.0001C10.6181 17.0001 9.43673 16.5144 8.46206 15.5431C7.4874 14.5717 7.00006 13.3924 7.00006 12.0051C7.00006 10.6177 7.48573 9.43606 8.45706 8.46006C9.4284 7.48406 10.6077 6.9974 11.9951 7.00006C13.3824 7.00273 14.5637 7.4884 15.5391 8.45706C16.5144 9.42573 17.0014 10.6051 17.0001 11.9951C16.9987 13.3851 16.5131 14.5664 15.5431 15.5391C14.5731 16.5117 13.3947 16.9987 12.0061 17.0001ZM12.0001 16.0001C13.1001 16.0001 14.0417 15.6084 14.8251 14.8251C15.6084 14.0417 16.0001 13.1001 16.0001 12.0001C16.0001 10.9001 15.6084 9.9584 14.8251 9.17506C14.0417 8.39173 13.1001 8.00006 12.0001 8.00006C10.9001 8.00006 9.9584 8.39173 9.17506 9.17506C8.39173 9.9584 8.00006 10.9001 8.00006 12.0001C8.00006 13.1001 8.39173 14.0417 9.17506 14.8251C9.9584 15.6084 10.9001 16.0001 12.0001 16.0001Z" fill="#121217"/>
</svg>
