<svg width="160" height="64" viewBox="0 0 160 64" fill="none" xmlns="http://www.w3.org/2000/svg">
<path d="M80.6419 9.02667C77.6698 9.04095 74.7094 9.3989 71.8202 10.0933C70.3985 10.4563 69.002 10.911 67.6396 11.4547L67.5606 11.4933C67.5606 11.4933 67.7306 21.6147 67.8483 26.6293C67.8898 28.1081 68.1639 29.5712 68.6606 30.9653C69.2361 32.5429 69.9975 34.0467 70.9289 35.4453C72.3026 37.467 74.073 39.1906 76.1333 40.512C77.0488 41.0604 78.0038 41.5403 78.9905 41.948C79.3183 42.092 79.6061 42.2227 79.855 42.3C80.122 42.4125 80.3982 42.5017 80.6807 42.5667C80.9604 42.4996 81.2361 42.4169 81.5064 42.3187C81.782 42.2267 82.0564 42.096 82.3842 41.9667C84.0361 41.3389 85.5695 40.4373 86.9195 39.3C88.2776 38.1891 89.4656 36.8864 90.4458 35.4333C91.3848 34.0391 92.1467 32.5343 92.7141 30.9533C93.217 29.5609 93.4913 28.0968 93.5264 26.6173C93.6441 21.5893 93.8141 11.4813 93.8141 11.4813L93.7218 11.4293C90.4922 10.1341 87.078 9.35391 83.6047 9.11733C82.6211 9.03867 81.7312 9 80.7342 9H80.6419V9.02667ZM80.6419 9.536H80.7208C83.5782 9.56122 86.4231 9.91603 89.1985 10.5933C90.5673 10.9396 91.9116 11.3756 93.2226 11.8987L93.3016 11.9373L93.2494 15.1107H93.2132C90.1103 13.8538 86.8279 13.0921 83.4869 12.8533C82.5689 12.7613 81.6522 12.72 80.7342 12.696H80.6552C77.7966 12.7242 74.9508 13.0821 72.1748 13.7627C70.8 14.1144 69.451 14.5599 68.1374 15.096L68.0852 11.896L68.1641 11.8693C71.2767 10.6172 74.5674 9.86042 77.9159 9.62667C78.8071 9.56133 79.7252 9.52267 80.6419 9.53467V9.536ZM79.685 10.0187C79.6188 10.0312 79.5563 10.058 79.5017 10.0973C79.4773 10.1114 79.4564 10.1306 79.4405 10.1537C79.4245 10.1767 79.4139 10.203 79.4093 10.2307V10.7267L79.396 11.1973C79.4006 11.2264 79.4112 11.2541 79.4271 11.2789C79.443 11.3037 79.4638 11.3249 79.4883 11.3413C79.5449 11.3841 79.614 11.4071 79.685 11.4067H80.314L80.9697 11.42L81.6255 11.4587C81.6461 11.4568 81.6668 11.4623 81.6838 11.4743C81.7007 11.4863 81.7128 11.5039 81.7178 11.524V11.7907C81.7218 11.8402 81.7126 11.8899 81.691 11.9347C81.6776 11.9733 81.6388 11.9867 81.5572 11.9867H80.9804L80.6659 11.9733H79.8402L79.3558 12L79.329 12.4173L80.0102 12.3907L80.5348 12.3773H80.9537L81.3337 12.3907L81.6014 12.404H81.8891C81.9597 12.4023 82.0283 12.3796 82.0858 12.3387C82.1359 12.3002 82.1691 12.2437 82.1781 12.1813V11.704L82.1915 11.2333C82.1786 11.1792 82.1514 11.1294 82.1126 11.0893C82.0678 11.0521 82.0127 11.0293 81.9547 11.024L81.3511 10.9973H79.8951L79.8563 10.9707C79.8449 10.9608 79.8356 10.9487 79.829 10.9352C79.8223 10.9217 79.8184 10.907 79.8175 10.892V10.724C79.8134 10.6532 79.8224 10.5822 79.8443 10.5147C79.8581 10.4965 79.8766 10.4825 79.8978 10.474C79.919 10.4655 79.9421 10.463 79.9647 10.4667L81.4368 10.48H81.6469L82.1581 10.4933V10.0667L81.4769 10.04L79.6944 10.0133L79.685 10.0187ZM78.2825 10.084C78.0336 10.084 75.7653 10.3187 75.7653 10.3187V12.7187L76.033 12.692L76.2819 12.6533V11.912L77.6897 11.756C77.78 11.7538 77.8689 11.7778 77.9457 11.8252C78.0225 11.8725 78.0837 11.9412 78.122 12.0227C78.1886 12.1758 78.2453 12.333 78.2919 12.4933L78.8419 12.4413C78.8307 12.2916 78.7907 12.1454 78.7242 12.0107C78.6376 11.8366 78.5176 11.6813 78.3709 11.5533C78.5023 11.4748 78.5982 11.3487 78.6385 11.2013C78.6495 10.9224 78.6405 10.643 78.6117 10.3653C78.597 10.228 78.5315 10.0973 78.2825 10.084ZM83.3678 10.1107C83.2439 10.1092 83.1233 10.1507 83.0266 10.228C82.9798 10.2614 82.9405 10.3041 82.9113 10.3535C82.882 10.4028 82.8634 10.4577 82.8566 10.5147V12.1867L82.87 12.304C82.8808 12.3445 82.9037 12.3808 82.9356 12.408C82.9561 12.4341 82.9818 12.4557 83.011 12.4715C83.0402 12.4874 83.0724 12.497 83.1055 12.5H83.2099L83.2367 12.5133H83.2635L84.3648 12.6307L85.505 12.748L85.675 12.7867V12.344L85.4782 12.3053L85.3203 12.292H85.2936L84.3501 12.1747L83.4066 12.0573C83.3963 12.0586 83.3857 12.0568 83.3764 12.052C83.3671 12.0472 83.3595 12.0398 83.3545 12.0307L83.3411 11.9787V10.6987C83.3411 10.6467 83.3411 10.6067 83.3933 10.5813C83.4299 10.5586 83.4695 10.5411 83.511 10.5293C83.7211 10.5427 85.4769 10.7773 85.7392 10.816V10.3453L84.2203 10.176L83.3678 10.1107ZM86.1862 10.4893V10.5933C86.1886 10.7808 86.1797 10.9683 86.1594 11.1547C86.1594 11.4547 86.146 11.756 86.1326 12.056L86.1193 12.252V12.5387L86.1059 12.8253L86.2236 12.852L86.2892 12.8787L86.407 12.892L86.5903 12.9187L86.6037 12.7493V12.6L86.6171 12.4307V11.964C86.6484 11.9619 86.6799 11.9665 86.7094 11.9773H86.7482L87.3116 12.0947L88.1761 12.264L88.2417 12.2907L88.334 12.3173L88.4384 12.344V12.8133L88.425 12.9707V13.1533L88.4116 13.2453L88.5696 13.284L88.6619 13.3107L88.7542 13.3373L88.8881 13.376V13.14C88.9148 12.8533 88.9148 12.552 88.9269 12.2V11.0507L88.7435 11L88.4946 10.948V11.3133L88.4678 11.548V11.9333H88.4545L88.3367 11.9067L88.2444 11.88L88.1788 11.8667L88.1132 11.84L87.5632 11.7227L86.9998 11.6187H86.9476L86.8031 11.58L86.6559 11.56H86.6171V10.5547L86.4993 10.528H86.4204L86.328 10.5013L86.1835 10.488L86.1862 10.4893ZM74.7817 10.516L72.5536 10.9467C72.3836 10.9987 72.2003 11.1293 72.2003 11.312V12.912C72.2003 13.0813 72.4104 13.304 72.5803 13.264L74.8085 12.8333C74.9094 12.8062 74.9997 12.7492 75.0676 12.67C75.1354 12.5908 75.1776 12.4929 75.1885 12.3893V10.776C75.1695 10.6883 75.117 10.6114 75.042 10.5616C74.9671 10.5119 74.8756 10.4931 74.7871 10.5093L74.7817 10.516ZM77.9011 10.5947C77.9316 10.5901 77.9626 10.5925 77.992 10.6015C78.0215 10.6105 78.0485 10.6259 78.0711 10.6467C78.0885 10.6607 78.1023 10.6787 78.1113 10.6991C78.1204 10.7195 78.1245 10.7417 78.1233 10.764V11.0387C78.1255 11.116 78.0971 11.1912 78.0443 11.248C77.9887 11.3044 77.9135 11.3373 77.8342 11.34L77.0473 11.4053L76.2605 11.4707V10.7333L77.8985 10.5893L77.9011 10.5947ZM74.4017 10.9733C74.6118 10.9467 74.6773 11.0653 74.6773 11.208V12.24C74.681 12.3046 74.662 12.3685 74.6237 12.4207C74.5854 12.473 74.5301 12.5104 74.4672 12.5267L72.8814 12.8267C72.7235 12.8653 72.6325 12.748 72.6325 12.604V11.5853C72.6325 11.376 72.7249 11.2853 72.9738 11.2333C72.9604 11.2333 74.403 10.972 74.403 10.972L74.4017 10.9733ZM89.6335 11.1827L89.6067 12.5933L89.5799 13.56L90.8901 13.952C91.3089 14.096 91.7813 14.2387 92.2537 14.4093L92.3059 14.4227L92.4638 14.4747C92.4858 14.3188 92.4948 14.1614 92.4906 14.004L92.3568 13.952H92.33L92.3032 13.9387C92.0677 13.8467 91.792 13.7693 91.5431 13.672L90.7402 13.4053L90.5702 13.3533L90.3869 13.3013L90.1902 13.2493L90.0858 13.2107V12.9827L90.0992 12.748L90.3668 12.8133L91.337 13.1L92.2551 13.4133L92.3474 13.44L92.5053 13.492V13L92.3608 12.948L92.2952 12.9347C91.7318 12.7253 91.1684 12.5427 90.5916 12.3867L90.4578 12.348L90.3133 12.3093L90.2477 12.2827L90.1353 12.2387V11.756L90.3052 11.808L90.5154 11.86L90.6987 11.912H90.7121C91.2233 12.056 91.7345 12.212 92.2323 12.3947L92.3501 12.4467L92.52 12.512V12.0827L92.4023 12.0307L92.2979 11.992H92.2765C91.4039 11.704 90.5261 11.416 89.6348 11.1813L89.6335 11.1827ZM71.4 11.2667H71.2421C70.3241 11.5533 69.4194 11.8547 68.5161 12.2L68.5429 13.4V14.5227L69.1718 14.3133V13.492L71.5178 12.76C71.5671 12.7449 71.609 12.7121 71.6355 12.668C71.6696 12.637 71.6926 12.5958 71.7011 12.5507C71.7011 12.5373 71.7145 12.512 71.7145 12.4987L71.6877 11.5453C71.681 11.4968 71.6633 11.4505 71.6359 11.4099C71.6086 11.3692 71.5723 11.3353 71.5298 11.3107C71.4923 11.2826 71.4469 11.2672 71.4 11.2667ZM70.941 11.7627H70.9678C70.9902 11.7608 71.0127 11.7645 71.0333 11.7736C71.0539 11.7827 71.0719 11.7968 71.0855 11.8147C71.1021 11.8294 71.115 11.8478 71.1231 11.8684C71.1313 11.8891 71.1344 11.9113 71.1324 11.9333L71.1591 12.2733C71.1493 12.3325 71.1218 12.3874 71.0802 12.4307C71.0399 12.4693 70.99 12.4965 70.9356 12.5093L69.1263 13.0973L69.125 12.396C69.125 12.396 69.8329 12.1093 70.1206 12.004C70.4084 11.8987 70.9423 11.7693 70.9423 11.7693L70.941 11.7627ZM80.3662 13.1533V19.6053H76.2176C76.1655 19.6053 76.1909 19.5787 76.2444 19.54C76.5366 19.3185 76.8782 19.1707 77.2401 19.1093C77.2789 19.1093 77.2922 19.096 77.2401 19.044C77.0744 18.8723 76.8622 18.7525 76.6292 18.6992C76.3963 18.6459 76.1528 18.6615 75.9286 18.744C75.7278 18.8111 75.5447 18.9223 75.3928 19.0693C75.2409 19.2163 75.124 19.3954 75.0507 19.5933C75.0513 19.6003 75.0504 19.6073 75.048 19.6139C75.0456 19.6205 75.0417 19.6265 75.0368 19.6315C75.0318 19.6364 75.0258 19.6402 75.0192 19.6426C75.0126 19.645 75.0055 19.6459 74.9985 19.6453L74.3294 19.672C74.2906 19.672 74.2772 19.62 74.2772 19.5933C74.3043 19.4537 74.3616 19.3217 74.4453 19.2066C74.529 19.0914 74.637 18.9959 74.7616 18.9267C74.9787 18.7749 75.2322 18.6829 75.4963 18.66H75.5097C75.5365 18.6467 75.5365 18.608 75.5231 18.5813C75.4799 18.5269 75.4262 18.4816 75.3652 18.448C75.1512 18.3332 74.9049 18.2929 74.6653 18.3333C74.32 18.3698 73.9985 18.5257 73.7567 18.7739C73.5148 19.0222 73.368 19.347 73.3418 19.692C73.3284 19.7707 73.3418 19.796 73.2762 19.8253C73.0734 19.8758 72.8678 19.915 72.6606 19.9427C72.6339 19.956 72.595 19.8907 72.6084 19.864C72.6619 19.5964 72.7789 19.3454 72.9497 19.132C73.0755 18.9655 73.2369 18.8289 73.4221 18.732C73.4743 18.7187 73.4876 18.68 73.4743 18.6533C73.121 18.34 72.3863 18.6667 72.0852 18.9933C71.8116 19.3572 71.6768 19.8062 71.7051 20.26V20.3253L71.1417 20.5213L71.115 20.4693C71.0646 20.1366 71.1394 19.7971 71.3251 19.516C71.4067 19.37 71.5247 19.2474 71.6676 19.16V19.108C71.4977 18.8987 70.8647 19.0427 70.672 19.2253C70.2264 19.6693 70.2705 20.0867 70.2397 20.7667C70.2297 20.8293 70.2024 20.888 70.1608 20.936C70.0805 20.9901 69.989 21.0256 69.8931 21.04H69.8543L69.8021 20.9227C69.7671 20.8599 69.7197 20.8048 69.6627 20.7607C69.6057 20.7166 69.5404 20.6844 69.4707 20.6661C69.401 20.6478 69.3282 20.6438 69.2569 20.6542C69.1855 20.6646 69.117 20.6892 69.0554 20.7267C69.0286 20.7267 69.0166 20.7533 69.0032 20.7653C68.9531 20.8081 68.9121 20.8604 68.8823 20.919C68.8526 20.9777 68.8348 21.0416 68.8299 21.1072C68.8251 21.1727 68.8333 21.2386 68.8541 21.301C68.8748 21.3634 68.9078 21.421 68.951 21.4707C68.9778 21.4973 68.9898 21.5227 68.951 21.5227C68.8767 21.5446 68.8075 21.5811 68.7474 21.6298C68.6874 21.6786 68.6376 21.7388 68.601 21.8069C68.5644 21.8749 68.5417 21.9496 68.5343 22.0264C68.5268 22.1033 68.5347 22.1809 68.5576 22.2547C68.5576 22.268 68.5576 22.268 68.571 22.2813C68.6042 22.3652 68.6619 22.4373 68.7365 22.4884C68.8111 22.5394 68.8993 22.5672 68.9898 22.568C69.1726 22.5701 69.3513 22.5151 69.501 22.4107C69.5278 22.384 69.5532 22.3973 69.58 22.4107C69.6154 22.4716 69.6627 22.5247 69.7192 22.567C69.7756 22.6093 69.84 22.6399 69.9085 22.657C69.9771 22.674 70.0483 22.6771 70.1181 22.6662C70.1879 22.6553 70.2547 22.6305 70.3147 22.5933C70.5502 22.436 70.6426 22.2013 70.4846 21.8093C70.4713 21.7827 70.5114 21.7573 70.5368 21.7307C71.879 20.9615 73.3931 20.5393 74.941 20.5027C75.1618 20.5225 75.3784 20.5755 75.5833 20.66H75.6101V21.9787L75.5713 22.0173C75.2785 22.1907 75.0595 22.4648 74.9557 22.788C74.9557 22.8147 74.9557 22.8147 74.9035 22.8147L74.0778 22.9067C74.051 22.9067 74.0256 22.868 74.0256 22.8547C74.223 22.3351 74.5811 21.8916 75.048 21.588C75.0546 21.5735 75.0579 21.5579 75.0579 21.542C75.0579 21.5261 75.0546 21.5105 75.048 21.496C74.9831 21.4288 74.9021 21.3792 74.8125 21.352C74.5793 21.3334 74.3449 21.3699 74.1285 21.4584C73.912 21.5469 73.7195 21.6849 73.5666 21.8613C73.2844 22.2034 73.1314 22.6332 73.1344 23.076C73.1344 23.1147 73.1344 23.1547 73.0955 23.168L72.5602 23.3253C72.5467 23.3244 72.534 23.3186 72.5244 23.3091C72.5148 23.2995 72.509 23.2868 72.5081 23.2733C72.4636 22.9935 72.5048 22.7068 72.6263 22.4506C72.7478 22.1945 72.944 21.9807 73.1892 21.8373C73.2548 21.7853 73.137 21.6933 73.0447 21.6933C72.781 21.6805 72.519 21.7425 72.2893 21.8721C72.0595 22.0017 71.8713 22.1935 71.7466 22.4253C71.6286 22.7845 71.6152 23.1696 71.7078 23.536C71.7078 23.5747 71.7346 23.628 71.7078 23.628L71.2354 23.7853C71.2086 23.7987 71.1832 23.7853 71.1832 23.7333C71.1156 23.5132 71.1064 23.2794 71.1564 23.0547C71.2084 22.7943 71.3414 22.5568 71.5365 22.376V22.324C71.3686 22.247 71.1785 22.2333 71.0012 22.2853C70.8609 22.3209 70.7298 22.386 70.6167 22.4761C70.5036 22.5662 70.4111 22.6794 70.3455 22.808C70.2404 23.0307 70.1914 23.2756 70.2028 23.5214C70.2142 23.7673 70.2857 24.0066 70.411 24.2187C70.411 24.2573 70.4378 24.2973 70.411 24.3227L70.2277 24.4667C70.2143 24.48 70.1889 24.4667 70.1755 24.44C70.0966 24.3227 70.0056 24.1533 69.8878 24.1C69.7919 24.0534 69.6851 24.0336 69.5788 24.0427C69.4725 24.0519 69.3707 24.0897 69.2842 24.152C69.2011 24.2281 69.141 24.3259 69.111 24.4344C69.0809 24.5428 69.0821 24.6575 69.1143 24.7653L69.2481 24.9747C69.2615 24.988 69.2481 25.0267 69.2347 25.0267C69.1558 25.092 69.038 25.144 68.9591 25.2227C68.8887 25.3171 68.8507 25.4317 68.8507 25.5493C68.8507 25.667 68.8887 25.7815 68.9591 25.876C69.0227 25.9785 69.1231 26.0531 69.24 26.0845C69.3568 26.116 69.4812 26.102 69.588 26.0453C69.7012 25.9968 69.8108 25.9402 69.9159 25.876C69.9547 25.8493 69.9681 25.8107 70.0082 25.8373C70.0907 25.9358 70.1999 26.0085 70.3227 26.0467C70.4061 26.0731 70.4946 26.0797 70.581 26.0661C70.6674 26.0524 70.7494 26.0188 70.8205 25.968C70.9056 25.9254 70.9745 25.8566 71.017 25.7717C71.0594 25.6869 71.0731 25.5906 71.0561 25.4973C71.009 25.3624 70.9428 25.2349 70.8594 25.1187C70.8072 25.0667 70.8072 25.0667 70.8594 25.04C71.5988 24.6224 72.3813 24.2854 73.1932 24.0347C73.9602 23.7967 74.7641 23.6996 75.5659 23.748H75.6181V26.4773H68.3221L68.124 15.5333L68.1508 15.52C71.2576 14.2646 74.5454 13.5107 77.8904 13.2867C78.7416 13.2053 79.5284 13.1667 80.3662 13.1533ZM76.1454 14.3027C75.7633 14.2838 75.386 14.3942 75.0748 14.616C74.7085 14.9935 74.4623 15.4703 74.3669 15.9867C74.3675 15.9936 74.3666 16.0007 74.3641 16.0073C74.3617 16.0139 74.3579 16.0198 74.3529 16.0248C74.348 16.0297 74.342 16.0336 74.3354 16.036C74.3287 16.0384 74.3217 16.0393 74.3147 16.0387C73.9882 16.0761 73.6642 16.1326 73.3445 16.208C73.3706 15.9031 73.4945 15.6147 73.6977 15.3853C73.9187 15.1802 74.1554 14.9925 74.4057 14.824C74.4191 14.8107 74.4057 14.772 74.3789 14.7587C74.2017 14.6864 74.0117 14.6503 73.8202 14.6526C73.6287 14.6549 73.4396 14.6955 73.2642 14.772C73.0173 14.8794 72.8015 15.0469 72.6366 15.2592C72.4717 15.4714 72.3631 15.7216 72.3207 15.9867C72.2832 16.1804 72.2658 16.3774 72.2685 16.5747L72.2163 16.6013L71.2207 16.928L71.1685 16.9147C71.1533 16.5873 71.2352 16.2626 71.404 15.9813C71.574 15.7067 71.8885 15.564 72.1119 15.328C72.1387 15.3147 72.1641 15.276 72.1387 15.2627C71.8556 15.1628 71.5472 15.1599 71.2623 15.2546C70.9774 15.3493 70.7325 15.5361 70.5663 15.7853C70.4138 16.0157 70.3097 16.2745 70.2603 16.546C70.2108 16.8176 70.2171 17.0963 70.2786 17.3653C70.2851 17.3855 70.2861 17.407 70.2814 17.4277C70.2767 17.4483 70.2665 17.4673 70.2518 17.4827L69.9373 17.6C69.9105 17.6 69.8851 17.6 69.8851 17.5733C69.7406 17.156 69.2561 17.2333 69.0327 17.364C68.9758 17.3965 68.9259 17.4398 68.8859 17.4915C68.8459 17.5433 68.8166 17.6023 68.7995 17.6654C68.7825 17.7285 68.7781 17.7942 68.7867 17.859C68.7952 17.9237 68.8165 17.9861 68.8493 18.0427C68.8493 18.0813 68.8493 18.0947 68.8226 18.108C68.6766 18.1809 68.565 18.3076 68.5113 18.4612C68.4575 18.6148 68.466 18.7832 68.5348 18.9307C68.5901 19.0317 68.6813 19.1085 68.7905 19.146C68.8997 19.1835 69.019 19.179 69.125 19.1333L69.4783 18.964H69.5171C69.5169 18.9676 69.5175 18.9711 69.5187 18.9744C69.52 18.9778 69.522 18.9808 69.5245 18.9833C69.527 18.9858 69.5301 18.9878 69.5334 18.989C69.5367 18.9903 69.5403 18.9909 69.5439 18.9907C69.5883 19.0481 69.644 19.0959 69.7075 19.1312C69.7711 19.1665 69.8412 19.1885 69.9136 19.1958C69.986 19.2032 70.0592 19.1958 70.1286 19.174C70.198 19.1523 70.2622 19.1167 70.3174 19.0693C70.4753 18.952 70.5409 18.936 70.6051 18.7293C70.6159 18.6554 70.611 18.5801 70.5907 18.5082C70.5704 18.4363 70.5352 18.3695 70.4873 18.312C70.4606 18.312 70.4873 18.26 70.4873 18.26C72.3147 17.3225 74.3314 16.8092 76.3863 16.7587C77.1271 16.7806 77.8386 17.0523 78.4043 17.5293C78.4259 17.5572 78.4576 17.5754 78.4926 17.58C78.5315 17.5667 78.5448 17.528 78.5582 17.5013C78.6078 17.3317 78.607 17.1514 78.5559 16.9823C78.5049 16.8131 78.4057 16.6623 78.2705 16.548C78.0378 16.3125 77.7441 16.1458 77.4221 16.0667C77.3953 16.0667 77.3953 16.0147 77.4087 16.0147C77.5395 15.8781 77.7016 15.7751 77.8811 15.7147C78.1625 15.6659 78.4479 15.6441 78.7335 15.6493C78.7469 15.6493 78.7857 15.6227 78.7857 15.5973C78.7305 15.4444 78.6315 15.311 78.5009 15.2135C78.3703 15.1161 78.2139 15.059 78.051 15.0493C77.7205 15.0115 77.3859 15.0612 77.0808 15.1933C76.7658 15.3651 76.5168 15.6362 76.3729 15.964L76.3341 15.9907H75.4816C75.4682 15.9907 75.4428 15.9907 75.4428 15.964C75.4782 15.6884 75.6021 15.4316 75.7961 15.232C76.078 14.9951 76.4028 14.8141 76.7529 14.6987C76.7688 14.6926 76.7823 14.6817 76.7916 14.6676C76.801 14.6535 76.8057 14.6369 76.8051 14.62C76.7315 14.518 76.6323 14.4371 76.5174 14.3853C76.4031 14.3306 76.2775 14.3037 76.1507 14.3067L76.1454 14.3027ZM80.7931 16.552H93.2132C93.2132 17.5187 93.1865 18.5373 93.161 19.6187H80.8131L80.7998 16.552H80.7931ZM76.0089 20.0387H85.3685C85.3953 20.0387 85.3953 20.052 85.3953 20.0653V27.248C85.3966 27.6126 85.3299 27.9743 85.1985 28.3147C84.8198 29.2749 84.1021 30.0643 83.1805 30.5347C82.4409 30.9703 81.6012 31.2086 80.7422 31.2267C79.5756 31.2143 78.4514 30.7889 77.5706 30.0267C77.0996 29.6681 76.7159 29.2083 76.4481 28.6815C76.1802 28.1547 76.0351 27.5744 76.0236 26.984V20.0747C76.0022 20.0747 76.0156 20.036 76.0156 20.036L76.0089 20.0387ZM93.141 20.0653L93.0888 22.756H93.1022C93.1209 22.752 93.1477 20.0667 93.1477 20.0667L93.141 20.0653ZM82.3668 20.6533C82.3359 20.6588 82.307 20.6726 82.2834 20.6933C82.2598 20.714 82.2424 20.7408 82.233 20.7707L81.9051 21.776L81.9185 21.8547L81.9841 21.8933C82.0363 21.8933 82.0631 21.8933 82.0764 21.8413L82.1286 21.672H82.601L82.6532 21.8413C82.6532 21.88 82.7054 21.8933 82.7322 21.8933C82.7475 21.8938 82.7627 21.8906 82.7765 21.8838C82.7903 21.8771 82.8022 21.8671 82.8111 21.8547C82.8177 21.8402 82.8211 21.8245 82.8211 21.8087C82.8211 21.7928 82.8177 21.7771 82.8111 21.7627L82.4578 20.7573C82.4535 20.7332 82.4426 20.7108 82.4263 20.6924C82.41 20.6741 82.3903 20.6605 82.3668 20.6533ZM79.4307 20.68C79.4098 20.68 79.3897 20.6883 79.3749 20.703C79.3601 20.7178 79.3518 20.7378 79.3518 20.7587C79.3518 20.7795 79.3601 20.7995 79.3749 20.8143C79.3897 20.829 79.4098 20.8373 79.4307 20.8373H79.5887V21.8C79.5907 21.8225 79.6015 21.8434 79.6188 21.8581C79.636 21.8728 79.6583 21.8802 79.681 21.8787C79.7015 21.8774 79.7209 21.8687 79.7354 21.8542C79.75 21.8397 79.7587 21.8205 79.76 21.8V20.8333H79.9299C79.9509 20.8333 79.9709 20.825 79.9857 20.8103C80.0005 20.7955 80.0089 20.7755 80.0089 20.7547C80.0089 20.7338 80.0005 20.7138 79.9857 20.699C79.9709 20.6843 79.9509 20.676 79.9299 20.676L79.4307 20.68ZM80.2042 20.68C80.1833 20.68 80.1632 20.6883 80.1484 20.703C80.1336 20.7178 80.1253 20.7378 80.1253 20.7587C80.1253 20.7795 80.1336 20.7995 80.1484 20.8143C80.1632 20.829 80.1833 20.8373 80.2042 20.8373H80.3742V21.8C80.3762 21.8225 80.3871 21.8434 80.4043 21.8581C80.4216 21.8728 80.4439 21.8802 80.4665 21.8787C80.4871 21.8774 80.5064 21.8687 80.521 21.8542C80.5355 21.8397 80.5442 21.8205 80.5455 21.8V20.8333H80.7155C80.7364 20.8333 80.7565 20.825 80.7713 20.8103C80.7861 20.7955 80.7944 20.7755 80.7944 20.7547C80.7944 20.7338 80.7861 20.7138 80.7713 20.699C80.7565 20.6843 80.7364 20.676 80.7155 20.676L80.2042 20.68ZM81.331 20.68C81.2696 20.6751 81.2082 20.6886 81.1545 20.7188C81.1009 20.749 81.0575 20.7944 81.0299 20.8493C80.9534 20.9752 80.9127 21.1195 80.9122 21.2667C80.9141 21.4162 80.9498 21.5634 81.0166 21.6973C81.0439 21.7572 81.0883 21.8077 81.1442 21.8425C81.2001 21.8774 81.2651 21.895 81.331 21.8933C81.4038 21.89 81.4753 21.8724 81.5411 21.8413C81.6448 21.7603 81.7149 21.644 81.7379 21.5147C81.7532 21.4459 81.7622 21.3758 81.7646 21.3053C81.7658 21.2896 81.7636 21.2738 81.7581 21.2591C81.7526 21.2443 81.744 21.2309 81.7328 21.2197C81.7216 21.2086 81.7082 21.2 81.6933 21.1945C81.6785 21.189 81.6626 21.1868 81.6469 21.188H81.3792C81.3136 21.188 81.3003 21.2147 81.3003 21.24C81.3003 21.292 81.327 21.3187 81.3658 21.3187H81.5706V21.3707C81.5767 21.4457 81.5565 21.5205 81.5136 21.5825C81.4707 21.6444 81.4076 21.6897 81.3351 21.7107C81.2879 21.7097 81.2422 21.694 81.2045 21.6658C81.1668 21.6375 81.139 21.5982 81.125 21.5533C81.0772 21.4608 81.0546 21.3573 81.0594 21.2533C81.0638 21.1446 81.0907 21.0379 81.1383 20.94C81.1534 20.902 81.1782 20.8686 81.2105 20.8433C81.2427 20.818 81.281 20.8017 81.3217 20.796C81.3598 20.7982 81.3967 20.8102 81.4288 20.8307C81.4609 20.8513 81.4871 20.8797 81.505 20.9133C81.5082 20.9221 81.5132 20.9302 81.5197 20.937C81.5262 20.9438 81.534 20.9491 81.5427 20.9528C81.5514 20.9564 81.5607 20.9582 81.5701 20.9581C81.5795 20.9579 81.5888 20.9559 81.5974 20.952C81.6362 20.952 81.6495 20.9 81.6495 20.8733C81.63 20.8084 81.5875 20.7526 81.53 20.7163C81.4725 20.6801 81.4037 20.6657 81.3364 20.676L81.331 20.68ZM84.057 20.68C84.0361 20.68 84.016 20.6883 84.0012 20.703C83.9864 20.7178 83.9781 20.7378 83.9781 20.7587C83.9781 20.7795 83.9864 20.7995 84.0012 20.8143C84.016 20.829 84.0361 20.8373 84.057 20.8373H84.227V21.8C84.2264 21.8105 84.2281 21.821 84.2318 21.8308C84.2356 21.8406 84.2414 21.8495 84.2488 21.8569C84.2563 21.8643 84.2652 21.8701 84.2751 21.8739C84.2849 21.8776 84.2954 21.8792 84.3059 21.8787C84.3265 21.8774 84.3458 21.8687 84.3604 21.8542C84.3749 21.8397 84.3836 21.8205 84.3849 21.8V20.8333H84.5549C84.5654 20.8339 84.5759 20.8323 84.5857 20.8285C84.5956 20.8248 84.6045 20.819 84.612 20.8116C84.6194 20.8042 84.6252 20.7952 84.629 20.7854C84.6327 20.7756 84.6344 20.7651 84.6338 20.7547C84.6325 20.7342 84.6238 20.7149 84.6093 20.7004C84.5947 20.686 84.5754 20.6773 84.5549 20.676L84.057 20.68ZM77.1223 20.68C77.0255 20.6686 76.9279 20.6918 76.8466 20.7453C76.807 20.7708 76.7742 20.8055 76.7509 20.8463C76.7276 20.8872 76.7145 20.933 76.7128 20.98C76.7088 21.0296 76.7149 21.0795 76.7308 21.1267C76.7467 21.1739 76.772 21.2174 76.8051 21.2547C76.8345 21.288 76.8707 21.3146 76.9114 21.3325C76.9521 21.3505 76.9962 21.3594 77.0407 21.3587C77.0942 21.3555 77.1477 21.3661 77.196 21.3894C77.2443 21.4128 77.2857 21.4481 77.3163 21.492C77.3257 21.5211 77.327 21.5522 77.3202 21.582C77.3133 21.6117 77.2986 21.6392 77.2775 21.6613C77.2502 21.688 77.2169 21.7078 77.1804 21.7191C77.1438 21.7305 77.1051 21.7331 77.0674 21.7267C76.9881 21.724 76.9129 21.6911 76.8573 21.6347C76.8443 21.6167 76.8259 21.6033 76.8047 21.5963C76.7836 21.5894 76.7608 21.5893 76.7396 21.596C76.6874 21.6227 76.6874 21.688 76.6874 21.7133C76.7264 21.7738 76.781 21.8227 76.8455 21.8548C76.9101 21.887 76.9821 21.9012 77.054 21.896C77.118 21.9037 77.1828 21.8972 77.2439 21.8769C77.305 21.8566 77.3608 21.8231 77.4073 21.7787C77.4383 21.7454 77.4624 21.7064 77.4783 21.6638C77.4941 21.6213 77.5014 21.576 77.4997 21.5307C77.5044 21.4826 77.496 21.4341 77.4753 21.3904C77.4545 21.3467 77.4222 21.3095 77.3819 21.2827C77.2645 21.2183 77.1352 21.1784 77.0019 21.1653C76.964 21.1579 76.9305 21.136 76.9085 21.1044C76.8866 21.0728 76.8778 21.0339 76.8841 20.996C76.8926 20.9517 76.9176 20.9122 76.9541 20.8855C76.9906 20.8588 77.0358 20.8468 77.0808 20.852C77.1225 20.8503 77.1641 20.8576 77.2027 20.8735C77.2413 20.8894 77.276 20.9134 77.3043 20.944C77.3152 20.9545 77.3288 20.9617 77.3437 20.9647C77.3585 20.9676 77.3739 20.9663 77.388 20.9608C77.4021 20.9554 77.4143 20.946 77.4232 20.9338C77.4321 20.9216 77.4373 20.9071 77.4381 20.892C77.4435 20.832 77.3645 20.676 77.129 20.676L77.1223 20.68ZM77.6723 20.68C77.6518 20.6813 77.6324 20.69 77.6179 20.7044C77.6033 20.7189 77.5946 20.7382 77.5934 20.7587V20.772C77.5946 20.7925 77.6033 20.8117 77.6179 20.8262C77.6324 20.8407 77.6518 20.8494 77.6723 20.8507H77.8423V21.8C77.8408 21.8226 77.8482 21.8448 77.8629 21.862C77.8777 21.8792 77.8986 21.89 77.9212 21.892C77.9452 21.8904 77.9678 21.8802 77.9848 21.8633C78.0018 21.8464 78.012 21.8239 78.0136 21.8V20.8467H78.1835C78.204 20.8454 78.2234 20.8367 78.2379 20.8222C78.2525 20.8077 78.2612 20.7885 78.2625 20.768C78.2625 20.7293 78.2357 20.676 78.1969 20.676H77.6723V20.68ZM83.1122 20.68L83.0467 20.7187C83.0327 20.7329 83.0233 20.751 83.0199 20.7707V21.7893C83.018 21.8099 83.0236 21.8305 83.0356 21.8474C83.0476 21.8643 83.0653 21.8763 83.0855 21.8813H83.0989C83.1215 21.8828 83.1438 21.8754 83.1611 21.8607C83.1783 21.846 83.1891 21.8252 83.1912 21.8027V21.476H83.3611L83.6288 21.828C83.6362 21.8428 83.6475 21.8554 83.6613 21.8645C83.6752 21.8736 83.6912 21.879 83.7077 21.88C83.7269 21.8815 83.7458 21.8755 83.7605 21.8633C83.7753 21.8511 83.7847 21.8337 83.7867 21.8147C83.7872 21.7994 83.7839 21.7842 83.7771 21.7705C83.7704 21.7568 83.7603 21.7449 83.7479 21.736L83.5378 21.4493H83.5646C83.6288 21.4225 83.6867 21.3825 83.7345 21.332C83.7751 21.299 83.8066 21.2562 83.826 21.2076C83.8455 21.1591 83.8522 21.1065 83.8456 21.0547C83.844 20.9978 83.8288 20.9422 83.8013 20.8924C83.7739 20.8425 83.7349 20.7999 83.6877 20.768C83.6007 20.7164 83.5012 20.6892 83.4 20.6893C83.3067 20.6784 83.2128 20.674 83.1189 20.676L83.1122 20.68ZM78.4846 20.68C78.4641 20.6813 78.4447 20.69 78.4302 20.7044C78.4157 20.7189 78.4069 20.7382 78.4057 20.7587V21.3853C78.4084 21.5106 78.4381 21.6338 78.4926 21.7467C78.5295 21.7975 78.5794 21.8377 78.637 21.863C78.6946 21.8883 78.758 21.8978 78.8205 21.8907C78.8813 21.8993 78.9432 21.8902 78.999 21.8647C79.0548 21.8392 79.102 21.7982 79.135 21.7467C79.1935 21.6341 79.2208 21.5079 79.214 21.3813V20.768C79.2127 20.7475 79.204 20.7283 79.1894 20.7138C79.1749 20.6993 79.1555 20.6906 79.135 20.6893H79.1216C79.1011 20.6906 79.0817 20.6993 79.0672 20.7138C79.0527 20.7283 79.0439 20.7475 79.0427 20.768V21.4213C79.0458 21.4989 79.0278 21.5758 78.9905 21.644C78.9437 21.6862 78.8829 21.7095 78.8198 21.7095C78.7568 21.7095 78.696 21.6862 78.6492 21.644C78.6059 21.5783 78.5874 21.4994 78.597 21.4213V20.768C78.5928 20.7431 78.5801 20.7204 78.5611 20.7037C78.5421 20.6869 78.518 20.6772 78.4926 20.676L78.4846 20.68ZM83.1778 20.8493H83.4013C83.4625 20.8446 83.5233 20.8632 83.5712 20.9013C83.5937 20.9207 83.6113 20.945 83.6227 20.9723C83.634 20.9996 83.6389 21.0292 83.6368 21.0587C83.6365 21.0928 83.6293 21.1264 83.6155 21.1576C83.6017 21.1888 83.5816 21.2169 83.5566 21.2401C83.5315 21.2633 83.502 21.2812 83.4698 21.2926C83.4375 21.3041 83.4033 21.3088 83.3692 21.3067H83.1858L83.1725 20.8493H83.1778ZM82.3521 20.8627L82.5622 21.516H82.1688L82.3521 20.8627ZM80.7141 22.2867C80.5989 22.315 80.4885 22.36 80.3863 22.42C80.3071 22.4858 80.2404 22.5653 80.1895 22.6547C80.1746 22.6706 80.1569 22.6837 80.1373 22.6933L80.0718 22.7067L79.8309 22.8173C79.7551 22.8616 79.6764 22.9008 79.5954 22.9347C79.5361 22.958 79.4747 22.9754 79.412 22.9867C79.2675 22.96 79.1109 22.9733 79.0587 23.1307C79.0565 23.1478 79.0605 23.1652 79.0701 23.1797C79.0797 23.1941 79.0942 23.2047 79.1109 23.2093C79.1377 23.2227 79.1497 23.236 79.1765 23.248L79.2554 23.2867C79.2822 23.2867 79.2943 23.2867 79.3076 23.3133L79.321 23.34V23.3533C79.321 23.38 79.2822 23.4053 79.2688 23.4053C79.1964 23.4194 79.1213 23.4056 79.0587 23.3667H79.0453C79.0394 23.3603 79.0323 23.3553 79.0244 23.3518C79.0164 23.3483 79.0078 23.3466 78.9992 23.3466C78.9905 23.3466 78.9819 23.3483 78.974 23.3518C78.966 23.3553 78.9589 23.3603 78.953 23.3667C78.8132 23.487 78.6642 23.5962 78.5074 23.6933L78.4552 23.7453L78.4418 23.772V23.8107C78.4418 23.8493 78.403 23.8627 78.3762 23.8627C78.3627 23.8683 78.3508 23.8772 78.3417 23.8887C78.3326 23.9001 78.3265 23.9136 78.324 23.928V23.9933C78.3304 24.0187 78.346 24.0407 78.3677 24.0553C78.3895 24.0698 78.4159 24.0758 78.4418 24.072H78.4686L78.5863 24.02H78.6385L78.6519 24.0333V24.0853C78.642 24.1121 78.6237 24.135 78.5997 24.1507C78.5729 24.1893 78.5609 24.216 78.5997 24.2427C78.6112 24.254 78.625 24.2628 78.6402 24.2684C78.6554 24.2739 78.6716 24.2761 78.6878 24.2749C78.7039 24.2736 78.7196 24.2689 78.7337 24.261C78.7478 24.2532 78.7601 24.2424 78.7697 24.2293C78.7919 24.2017 78.8096 24.1706 78.8218 24.1373C78.8244 24.1193 78.8328 24.1025 78.8459 24.0897C78.859 24.077 78.8759 24.0688 78.8941 24.0667C78.9625 24.0432 79.0328 24.0258 79.1042 24.0147C79.1297 24.0109 79.1557 24.0123 79.1805 24.019C79.2054 24.0257 79.2286 24.0373 79.2487 24.0533L79.2876 24.092V24.1187C79.276 24.1686 79.2585 24.2169 79.2354 24.2627L79.1966 24.38L79.1578 24.484L79.1056 24.536L78.8955 24.7053C78.7826 24.8079 78.6857 24.9265 78.6077 25.0573C78.585 25.0938 78.5674 25.1333 78.5555 25.1747C78.5288 25.292 78.5033 25.4413 78.3856 25.344C78.2592 25.2796 78.1406 25.2008 78.0323 25.1093C77.9838 25.0806 77.9434 25.0403 77.9145 24.992C77.7968 24.8227 77.6469 24.992 77.5867 25.1093C77.453 25.3317 77.2994 25.5414 77.1276 25.736C77.1142 25.7841 77.0919 25.8293 77.0621 25.8693C77.0411 25.8945 77.0256 25.9237 77.0166 25.9552C77.0076 25.9866 77.0053 26.0196 77.0099 26.052C77.0073 26.1627 76.9755 26.2708 76.9175 26.3653C76.8929 26.389 76.8732 26.4174 76.8596 26.4488C76.8461 26.4801 76.8389 26.5139 76.8386 26.548V26.7333C76.8386 26.7853 76.8654 26.812 76.9042 26.812H76.943C77.0431 26.7701 77.1361 26.713 77.2186 26.6427L77.2575 26.616C77.269 26.604 77.2765 26.5886 77.2789 26.5721C77.2813 26.5556 77.2785 26.5388 77.2708 26.524L77.2575 26.4973L77.2307 26.4707C77.2173 26.4573 77.1919 26.444 77.1785 26.4187V26.34L77.2053 26.2613C77.2048 26.2461 77.2081 26.2309 77.2148 26.2172C77.2216 26.2035 77.2316 26.1916 77.2441 26.1827L77.3886 26.0653C77.4154 26.0384 77.4344 26.0047 77.4436 25.9678C77.4528 25.931 77.4518 25.8923 77.4408 25.856V25.764C77.4408 25.7253 77.4542 25.712 77.4796 25.672L77.5719 25.5547C77.612 25.4901 77.6715 25.4397 77.7419 25.4107C77.842 25.4068 77.94 25.4395 78.0176 25.5027C78.0857 25.6034 78.1389 25.7134 78.1755 25.8293C78.2011 25.9299 78.2407 26.0264 78.2933 26.116C78.3454 26.168 78.411 26.208 78.4766 26.168L78.5154 26.1413L78.5422 26.128C78.5689 26.128 78.5943 26.128 78.6077 26.1667L78.7255 26.284C78.7777 26.3227 78.7389 26.3493 78.6867 26.3493H78.506C78.3031 26.4166 78.0909 26.4517 77.8771 26.4533H77.8369C77.8299 26.4527 77.8228 26.4537 77.8162 26.456C77.8096 26.4584 77.8036 26.4623 77.7986 26.4672C77.7937 26.4722 77.7898 26.4781 77.7874 26.4847C77.785 26.4913 77.7841 26.4984 77.7847 26.5053L77.7713 26.532L77.7446 26.584C77.7314 26.6356 77.7314 26.6897 77.7446 26.7413C77.834 27.0287 77.8519 27.3335 77.7968 27.6293C77.7823 27.684 77.782 27.7413 77.7958 27.7961C77.8096 27.8509 77.8371 27.9013 77.8757 27.9427L77.9681 27.9947L78.0202 28.0213C78.0465 28.0548 78.0602 28.0963 78.0591 28.1387C78.0669 28.1959 78.0895 28.2501 78.1246 28.296C78.181 28.3623 78.2473 28.4194 78.3214 28.4653H78.3481C78.3584 28.4706 78.3696 28.4738 78.3811 28.4747C78.3926 28.4756 78.4042 28.4742 78.4151 28.4706C78.4261 28.467 78.4362 28.4612 78.4449 28.4537C78.4536 28.4462 78.4608 28.437 78.4659 28.4267C78.5095 28.333 78.5275 28.2295 78.5181 28.1267C78.5169 28.1014 78.5071 28.0774 78.4903 28.0584C78.4735 28.0395 78.4507 28.0269 78.4257 28.0227L78.3735 28.036L78.3347 28.0493H78.2825C78.2586 28.0337 78.2403 28.0108 78.2304 27.984C78.2064 27.9215 78.2017 27.8532 78.217 27.788V27.7493L78.2304 27.6573C78.2321 27.6431 78.2306 27.6286 78.226 27.615C78.2213 27.6013 78.2137 27.5889 78.2036 27.5787C78.1768 27.5267 78.1768 27.5133 78.138 27.5C78.0992 27.4867 78.0992 27.4867 78.0858 27.4613C78.0724 27.436 78.0591 27.4227 78.0724 27.4093C78.0965 27.267 78.101 27.1222 78.0858 26.9787C78.0858 26.9267 78.0858 26.8867 78.1126 26.8613C78.217 26.7693 78.3883 26.8347 78.4793 26.8747C78.6102 26.9197 78.7444 26.9545 78.8807 26.9787C79.1127 27.0039 79.346 26.9437 79.5365 26.8093C79.5499 26.796 79.5498 26.7827 79.5753 26.796L79.772 26.94C79.9378 27.0521 80.1178 27.1418 80.3073 27.2067C80.5691 27.2348 80.8335 27.2303 81.0942 27.1933C81.1573 27.1936 81.2197 27.2068 81.2775 27.232L81.3043 27.2707C81.3043 27.3747 81.2521 27.4533 81.2521 27.5573C81.2573 27.613 81.2752 27.6668 81.3043 27.7147L81.3565 27.8587L81.3953 27.9107C81.4685 28.0014 81.5084 28.1143 81.5084 28.2307C81.5084 28.3471 81.4685 28.46 81.3953 28.5507C81.2996 28.6497 81.1942 28.739 81.0808 28.8173C80.9737 28.8971 80.8471 28.9469 80.7141 28.9613C80.6698 28.9619 80.6261 28.9714 80.5857 28.9893C80.5452 29.0072 80.5088 29.0331 80.4786 29.0653C80.4081 29.1415 80.3236 29.2035 80.2297 29.248C80.2091 29.2542 80.1906 29.2661 80.1767 29.2825C80.1627 29.2988 80.1536 29.3187 80.1507 29.34C80.1023 29.4441 80.0672 29.5538 80.0463 29.6667C80.033 29.7187 80.0851 29.7453 80.1387 29.7453C80.231 29.732 80.322 29.6933 80.4264 29.6667C80.4786 29.6667 80.5054 29.6013 80.492 29.5493L80.4786 29.536L80.4398 29.4573V29.3867C80.4665 29.3733 80.4786 29.348 80.5054 29.3347C80.5182 29.3243 80.533 29.3167 80.5488 29.3121C80.5647 29.3075 80.5813 29.3061 80.5977 29.308H80.6499C80.7129 29.3353 80.7842 29.3366 80.8482 29.3116C80.9121 29.2866 80.9635 29.2374 80.9911 29.1747C81.0143 29.1377 81.0407 29.1029 81.0701 29.0707C81.3227 28.9114 81.5919 28.7799 81.873 28.6787C81.8866 28.6777 81.8993 28.672 81.9089 28.6624C81.9185 28.6528 81.9243 28.6401 81.9252 28.6267V28.2267C81.9252 28.1613 81.952 28.044 82.043 28.044C82.0597 28.0443 82.0761 28.0494 82.09 28.0586C82.104 28.0678 82.1151 28.0808 82.1219 28.096C82.2132 28.2109 82.3359 28.2971 82.4752 28.344L82.593 28.396C82.6444 28.4205 82.6884 28.458 82.7206 28.5048C82.7528 28.5516 82.772 28.6061 82.7763 28.6627C82.7832 28.692 82.7832 28.7224 82.7765 28.7518C82.7698 28.7811 82.7564 28.8085 82.7375 28.832L82.4619 29.224C82.4227 29.2955 82.3637 29.3543 82.2919 29.3933C82.1113 29.5142 81.9444 29.6541 81.7941 29.8107L81.6602 30.2107C81.6335 30.2893 81.687 30.3147 81.7526 30.2893C81.8585 30.2662 81.9601 30.2266 82.0537 30.172L82.1059 30.1333C82.1163 30.1181 82.1211 30.0997 82.1193 30.0813C82.1154 30.0414 82.0968 30.0043 82.0671 29.9773C82.0537 29.9577 82.0465 29.9344 82.0465 29.9107C82.0465 29.8869 82.0537 29.8637 82.0671 29.844C82.0805 29.8173 82.1059 29.8053 82.1193 29.792L82.3548 29.7267C82.4533 29.7135 82.5461 29.6728 82.6224 29.6093C82.6358 29.5827 82.6492 29.5707 82.6613 29.544V29.5173C82.7061 29.3625 82.7813 29.218 82.8826 29.0924C82.984 28.9667 83.1093 28.8623 83.2514 28.7853C83.2689 28.7777 83.2835 28.7646 83.2929 28.748C83.3023 28.7314 83.3061 28.7122 83.3036 28.6933L83.2902 28.576L83.0801 28.2493C83.0168 28.1654 82.9763 28.0667 82.9624 27.9627C82.9604 27.8531 82.9877 27.745 83.0413 27.6493L83.0935 27.5707C83.1323 27.492 83.2113 27.4533 83.2635 27.3747C83.3264 27.3039 83.3796 27.2249 83.4214 27.14L83.5391 26.8267C83.5478 26.7349 83.5433 26.6425 83.5258 26.552C83.5258 26.5133 83.5525 26.5 83.5646 26.46C83.6051 26.4069 83.6598 26.3663 83.7225 26.3427C83.7834 26.327 83.8478 26.3317 83.9058 26.356L84.2069 26.4733C84.2649 26.4773 84.3229 26.4682 84.3769 26.4467C84.4386 26.4264 84.4961 26.3952 84.5468 26.3547V26.3027H84.4023C84.3544 26.2924 84.3122 26.2643 84.2845 26.224C84.2565 26.1905 84.2385 26.1499 84.2323 26.1067L84.2711 26.0413C84.3447 25.9942 84.4072 25.9319 84.4545 25.8587C84.4903 25.7857 84.5082 25.7052 84.5067 25.624H84.4679C84.4157 25.676 84.4023 25.7413 84.334 25.7813C84.2843 25.8161 84.2248 25.8343 84.1641 25.8333C84.1419 25.8332 84.12 25.8286 84.0997 25.8196C84.0795 25.8107 84.0613 25.7976 84.0463 25.7813C84.0236 25.7448 84.006 25.7053 83.9941 25.664C83.9807 25.612 84.0463 25.5987 84.0731 25.5853C84.1539 25.5805 84.2334 25.563 84.3086 25.5333C84.3561 25.5076 84.393 25.4661 84.413 25.416C84.4281 25.3785 84.4371 25.3389 84.4398 25.2987C84.4398 25.272 84.4398 25.26 84.4264 25.272C84.3742 25.272 84.3474 25.3107 84.3086 25.324C84.2394 25.3459 84.1644 25.3411 84.0985 25.3107C84.0355 25.2595 83.982 25.1977 83.9406 25.128V24.984C84.0196 24.984 84.0851 24.9053 84.1239 24.8147L84.1507 24.7627L84.2029 24.6973C84.2139 24.6456 84.2184 24.5928 84.2163 24.54C84.2127 24.4961 84.1943 24.4548 84.1641 24.4227H84.1132C84.0865 24.4747 84.1132 24.54 84.061 24.592C84.0236 24.6462 83.9785 24.6947 83.9272 24.736C83.8884 24.7627 83.8616 24.788 83.8349 24.788C83.8044 24.7762 83.7775 24.7567 83.7569 24.7315C83.7363 24.7063 83.7225 24.6761 83.7171 24.644C83.7222 24.5803 83.74 24.5182 83.7693 24.4613L83.9928 24.1093L84.1761 23.9C84.2149 23.848 84.2283 23.7307 84.1895 23.704C84.1507 23.6773 84.1106 23.808 84.0717 23.8373C83.8884 23.9027 83.716 23.9953 83.5605 24.112C83.4875 24.2049 83.4338 24.3114 83.4026 24.4253C83.3759 24.4907 83.3892 24.5827 83.3638 24.648C83.3638 24.6747 83.3116 24.7 83.2849 24.6867C83.2334 24.6294 83.1935 24.5629 83.1671 24.4907C83.154 24.435 83.154 24.377 83.1671 24.3213C83.1805 24.2947 83.1671 24.2827 83.1537 24.2947C83.0851 24.334 83.0301 24.393 82.9958 24.464C82.9652 24.5637 82.9748 24.6713 83.0226 24.764C83.0986 24.9157 83.1954 25.0562 83.3103 25.1813C83.3892 25.2987 83.4803 25.448 83.5458 25.56C83.6124 25.6646 83.6403 25.7891 83.6248 25.912C83.5929 26.0309 83.5296 26.1391 83.4414 26.2253C83.4414 26.2253 83.4026 26.252 83.3892 26.2387C83.2949 26.149 83.1943 26.0662 83.0881 25.9907C82.9656 25.9107 82.8296 25.8533 82.6867 25.8213C82.4998 25.7952 82.3102 25.7952 82.1233 25.8213C81.9266 25.8213 81.7298 25.86 81.5331 25.848C81.3737 25.8632 81.2129 25.8455 81.0607 25.796C80.9512 25.7443 80.8585 25.663 80.7931 25.5613C80.7369 25.4531 80.7185 25.3292 80.7409 25.2093C80.747 25.1094 80.7739 25.0118 80.8198 24.9227C80.8586 24.8474 80.9174 24.7842 80.9898 24.74C81.0328 24.7149 81.0804 24.6985 81.1298 24.6919C81.1792 24.6852 81.2294 24.6885 81.2775 24.7013L81.3953 24.78L81.513 24.8973L81.5519 24.884C81.5604 24.7512 81.5427 24.618 81.4997 24.492C81.4527 24.3949 81.3957 24.3028 81.3297 24.2173C81.3297 24.1907 81.3819 24.204 81.3953 24.1907C81.484 24.1935 81.5708 24.2175 81.6484 24.2606C81.7259 24.3038 81.7919 24.3648 81.8409 24.4387L81.8543 24.4253C81.8582 24.3467 81.8462 24.268 81.8191 24.1941C81.792 24.1201 81.7502 24.0523 81.6964 23.9947C81.6533 23.9261 81.5952 23.8682 81.5264 23.8253C81.4742 23.812 81.5532 23.7733 81.592 23.7733C81.6726 23.7595 81.7556 23.7731 81.8275 23.812L81.9065 23.864L81.9587 23.916C81.9721 23.916 81.9975 23.8893 81.9854 23.8773C81.9764 23.8301 81.9587 23.7849 81.9332 23.744C81.8112 23.6206 81.6796 23.5069 81.5398 23.404L81.4876 23.3653C81.4469 23.3148 81.4157 23.2575 81.3953 23.196L81.3431 23.1173V23.0267C81.3803 22.962 81.4412 22.9142 81.513 22.8933C81.5768 22.8699 81.6427 22.8525 81.7098 22.8413L81.7753 22.868C81.7753 22.868 81.7887 22.8293 81.762 22.816C81.6755 22.7631 81.5757 22.7359 81.4742 22.7373C81.3429 22.7135 81.2077 22.7227 81.0808 22.764C80.9931 22.814 80.8941 22.8411 80.7931 22.8427C80.7251 22.8502 80.6564 22.8367 80.5963 22.804C80.5746 22.7924 80.556 22.7756 80.5422 22.7551C80.5285 22.7347 80.5199 22.7112 80.5174 22.6867C80.5158 22.6093 80.5337 22.5327 80.5696 22.464C80.6005 22.4117 80.6474 22.3706 80.7034 22.3467C80.7556 22.3467 80.769 22.32 80.7556 22.2947C80.7824 22.256 80.7422 22.268 80.7168 22.2813L80.7141 22.2867ZM80.2029 23.0573C80.2654 23.0593 80.3253 23.0823 80.3729 23.1227C80.5242 23.252 80.62 23.4343 80.6405 23.632C80.6868 23.8967 80.6868 24.1673 80.6405 24.432C80.6432 24.4745 80.6335 24.5168 80.6126 24.5539C80.5917 24.5911 80.5605 24.6214 80.5227 24.6413C80.4852 24.6564 80.4454 24.6654 80.405 24.668C80.3662 24.668 80.3528 24.6027 80.3528 24.4987V23.78C80.3289 23.6167 80.2802 23.458 80.2083 23.3093C80.2083 23.2707 80.1815 23.2573 80.1561 23.2307L80.1039 23.1653C80.0771 23.1387 80.0383 23.1267 80.0115 23.1L80.0249 23.0613C80.0845 23.0417 80.1487 23.0417 80.2083 23.0613L80.2029 23.0573ZM85.8235 23.1907H93.0848L93.0192 26.3507H85.8329L85.8235 23.1907ZM85.8369 26.7693H93.0205C92.9565 28.1539 92.6914 29.5219 92.2336 30.8307C91.6822 32.3672 90.9471 33.8319 90.0443 35.1933C88.7307 37.152 87.0316 38.8244 85.05 40.1093C84.1657 40.6414 83.246 41.1127 82.2972 41.52C81.9961 41.6533 81.7071 41.7867 81.4716 41.86C81.1959 41.9387 80.9604 42.0293 80.8024 42.0693V31.7107C80.9515 31.7148 81.1006 31.7059 81.2481 31.684L81.3003 31.828C81.3324 31.885 81.3756 31.9351 81.4272 31.9754C81.4789 32.0156 81.5381 32.0453 81.6014 32.0627C81.6809 32.0749 81.7622 32.067 81.8378 32.0394C81.9134 32.0119 81.9808 31.9658 82.0336 31.9053C82.1065 31.9669 82.1946 32.0078 82.2887 32.024C82.3828 32.0402 82.4796 32.031 82.5689 31.9973C82.6388 31.9789 82.7008 31.9384 82.7457 31.8819C82.7906 31.8255 82.8159 31.756 82.8178 31.684C82.8336 31.5853 82.8152 31.4842 82.7656 31.3973L82.7134 31.3187C83.0826 31.1592 83.4341 30.9621 83.7626 30.7307H83.8014C85.0705 30.2867 86.3851 29.9844 87.7211 29.8293C88.5143 29.8129 89.2981 30.0017 89.9961 30.3773C90.3778 30.5968 90.719 30.8795 91.0051 31.2133L91.0573 31.1747C91.1431 30.9404 91.1831 30.6919 91.1751 30.4427C91.1363 30.0507 90.7429 29.764 90.6251 29.6427C90.6251 29.6427 90.6251 29.616 90.6639 29.5907C90.9234 29.3541 91.2563 29.213 91.6074 29.1907C91.6462 29.1907 91.6341 29.1387 91.6207 29.0733C91.5418 28.7333 91.0306 28.512 90.5194 28.5773C90.3447 28.6127 90.1791 28.6831 90.0325 28.7841C89.886 28.8852 89.7616 29.0149 89.6669 29.1653C89.6535 29.192 89.6013 29.2173 89.588 29.192C89.4215 29.1277 89.2506 29.0751 89.0767 29.0347C89.0246 29.0213 89.05 28.9693 89.05 28.9693C89.1493 28.781 89.293 28.6194 89.4689 28.4987C89.6735 28.3348 89.9175 28.2268 90.1768 28.1853C90.2035 28.1853 90.2035 28.1467 90.1768 28.1333C90.1292 28.0295 90.0584 27.9379 89.9697 27.8656C89.8811 27.7933 89.7771 27.7421 89.6656 27.716C89.4828 27.6571 89.2885 27.6429 89.0992 27.6747C88.9098 27.7065 88.7309 27.7834 88.5776 27.8987C88.2885 28.1513 88.0715 28.4756 87.9486 28.8387C87.9352 28.8773 87.9219 28.8907 87.8964 28.8907C87.7519 28.852 87.412 28.8773 87.3852 28.852C87.3585 28.852 87.3585 28.8 87.3718 28.7867C87.4299 28.5914 87.533 28.4124 87.6729 28.264C87.8087 28.0938 87.9842 27.9592 88.1841 27.872L88.2109 27.8453C88.2179 27.8368 88.2231 27.827 88.2262 27.8164C88.2292 27.8059 88.2302 27.7948 88.229 27.7839C88.2277 27.7729 88.2243 27.7624 88.2189 27.7528C88.2135 27.7432 88.2062 27.7348 88.1975 27.728C87.9104 27.5888 87.5845 27.5504 87.2728 27.6192C86.9611 27.688 86.6819 27.8598 86.4806 28.1067C86.2829 28.4007 86.1409 28.7283 86.0617 29.0733C86.0617 29.0867 86.0349 29.1253 86.0095 29.1253L85.3016 29.2947L85.1838 29.3213L85.1571 29.2947C85.579 28.5997 85.8136 27.8079 85.8382 26.996C85.8462 27.0093 85.8462 26.7613 85.8462 26.7613L85.8369 26.7693ZM76.1106 27.9053C76.1494 28.0627 76.2284 28.2053 76.2805 28.3627L76.1106 27.9053ZM76.9135 29.564C77.3698 30.1353 77.9473 30.599 78.6046 30.9217C79.2619 31.2445 79.9828 31.4183 80.7155 31.4307C81.8576 31.416 82.9578 30.9994 83.8215 30.2547C82.952 30.9863 81.8535 31.3928 80.7155 31.404C79.9851 31.3934 79.2661 31.2223 78.6098 30.9029C77.9535 30.5834 77.3761 30.1235 76.9189 29.556L76.9135 29.564ZM68.931 30.2947H77.1624L77.3324 30.4387C78.187 31.169 79.2509 31.6122 80.3729 31.7053V33.3907H70.2478C69.7191 32.4002 69.2807 31.3645 68.9376 30.296L68.931 30.2947ZM86.1019 30.9613C85.8917 30.9854 85.6898 31.057 85.5117 31.1707C85.2746 31.3089 85.0834 31.5133 84.9617 31.7587C84.8265 32.0994 84.747 32.4595 84.7261 32.8253L84.674 32.8773L84.2016 32.9947C84.1933 32.994 84.1854 32.9912 84.1785 32.9866C84.1717 32.9819 84.1663 32.9755 84.1627 32.968C84.1123 32.6187 84.1867 32.2629 84.3729 31.9627C84.4509 31.8203 84.5527 31.6922 84.674 31.584C84.7007 31.5707 84.7128 31.532 84.7007 31.5187L84.6485 31.492C84.3363 31.437 84.0147 31.4972 83.7439 31.6613C83.5686 31.7532 83.4192 31.8874 83.3093 32.0516C83.1994 32.2158 83.1326 32.4048 83.1149 32.6013C83.0799 32.8764 83.0976 33.1555 83.1671 33.424C83.1684 33.4343 83.1665 33.4448 83.1617 33.4541C83.157 33.4634 83.1495 33.471 83.1403 33.476L82.6291 33.724H82.6024C82.576 33.6183 82.5289 33.5188 82.4636 33.4313C82.3984 33.3439 82.3164 33.2703 82.2223 33.2147C82.1225 33.1705 82.0138 33.1499 81.9047 33.1545C81.7956 33.1591 81.689 33.1889 81.5933 33.2413C81.4657 33.3117 81.3647 33.4218 81.3056 33.5547C81.255 33.6623 81.2443 33.7843 81.2755 33.899C81.3066 34.0137 81.3775 34.1137 81.4756 34.1813C81.4756 34.1947 81.5023 34.22 81.4756 34.2333C81.3417 34.2853 81.3418 34.312 81.24 34.456C81.1937 34.5575 81.1766 34.6698 81.1905 34.7805C81.2045 34.8911 81.2489 34.9957 81.319 35.0827C81.3651 35.1534 81.4249 35.2142 81.4948 35.2617C81.5648 35.3092 81.6434 35.3424 81.7263 35.3594C81.8092 35.3764 81.8947 35.3769 81.9778 35.3607C82.0608 35.3446 82.1399 35.3121 82.2103 35.2653C82.2397 35.2476 82.2663 35.2255 82.2892 35.2C82.2975 35.2006 82.3054 35.2034 82.3122 35.2081C82.3191 35.2128 82.3245 35.2192 82.328 35.2267C82.3794 35.3084 82.4462 35.3795 82.5247 35.436C82.6195 35.4936 82.7283 35.5241 82.8392 35.5241C82.9502 35.5241 83.059 35.4936 83.1537 35.436C83.2564 35.3792 83.3391 35.2923 83.3905 35.1872C83.442 35.082 83.4598 34.9636 83.4414 34.848C83.4418 34.7815 83.4279 34.7157 83.4007 34.655C83.3734 34.5943 83.3335 34.5401 83.2835 34.496C83.2701 34.4693 83.2835 34.4573 83.3357 34.4307C84.1882 33.9424 85.1275 33.6231 86.1019 33.4907C86.6031 33.4252 87.1115 33.4383 87.6087 33.5293C87.932 33.6001 88.2332 33.7479 88.4866 33.96C88.6947 34.1302 88.8877 34.318 89.0634 34.5213C89.1228 34.5277 89.1826 34.5141 89.2333 34.4827C89.2873 34.3685 89.3164 34.2443 89.3187 34.1181C89.321 33.9919 89.2965 33.8667 89.2467 33.7507C89.1297 33.4413 88.9471 33.1607 88.7114 32.928V32.9013C88.7114 32.8493 88.7382 32.836 88.777 32.784C88.9988 32.5831 89.2705 32.445 89.5639 32.384C89.5716 32.384 89.5791 32.3821 89.5858 32.3783C89.5925 32.3745 89.5981 32.369 89.6021 32.3624C89.606 32.3558 89.6081 32.3483 89.6082 32.3406C89.6083 32.3329 89.6064 32.3254 89.6027 32.3187C89.5007 32.1182 89.3273 31.9629 89.1164 31.8832C88.9054 31.8035 88.6722 31.8052 88.4625 31.888C88.1872 31.9999 87.9631 32.2094 87.8335 32.476C87.8201 32.5027 87.7947 32.5413 87.7813 32.528L87.3089 32.476C87.2568 32.476 87.2701 32.424 87.2822 32.424C87.3322 32.2539 87.4275 32.1005 87.5578 31.98C87.7288 31.784 87.9445 31.6317 88.1868 31.536C88.2136 31.536 88.2136 31.5093 88.2136 31.4973C88.1329 31.4006 88.033 31.3216 87.9201 31.2654C87.8073 31.2092 87.6839 31.1769 87.5578 31.1707C87.4009 31.1639 87.2442 31.1894 87.0975 31.2456C86.9508 31.3018 86.8174 31.3875 86.7054 31.4973C86.4346 31.783 86.2681 32.1512 86.233 32.5427C86.2062 32.5693 86.1942 32.5947 86.1808 32.5947C86.0505 32.6147 85.9191 32.6276 85.7874 32.6333C85.7606 32.6333 85.7606 32.5947 85.7606 32.5813C85.762 32.3853 85.8117 32.1925 85.9051 32.02C86.0799 31.6786 86.3481 31.3934 86.6786 31.1973C86.7308 31.1587 86.7308 31.08 86.7174 31.08C86.53 30.9766 86.3144 30.9355 86.1019 30.9627V30.9613ZM84.5615 35.4C84.4298 35.3988 84.3013 35.44 84.1949 35.5173C83.8788 35.6765 83.6384 35.9534 83.5258 36.288C83.4685 36.5528 83.4777 36.8276 83.5525 37.088V37.1267L83.2514 37.2707H83.2126C83.121 37.1081 83.0831 36.9209 83.1043 36.7357C83.1254 36.5505 83.2045 36.3766 83.3304 36.2387C83.3571 36.212 83.3692 36.1867 83.317 36.1733C83.1812 36.1544 83.0429 36.1697 82.9146 36.2176C82.7863 36.2656 82.672 36.3448 82.5823 36.448C82.4728 36.5755 82.3993 36.7298 82.3694 36.895C82.3395 37.0602 82.3544 37.2304 82.4123 37.388C82.4376 37.5134 82.4867 37.6329 82.5569 37.74C82.5569 37.74 82.6091 37.7787 82.5702 37.792L82.3735 37.9613H82.3334C82.2937 37.8801 82.2375 37.8079 82.1684 37.7494C82.0993 37.6909 82.0188 37.6473 81.9319 37.6213C81.8557 37.6041 81.7765 37.6058 81.7011 37.6262C81.6257 37.6467 81.5565 37.6853 81.4997 37.7387C81.4031 37.8327 81.3476 37.9608 81.3451 38.0953C81.3426 38.2297 81.3933 38.3598 81.4863 38.4573L81.4997 38.4707C81.5551 38.5246 81.6225 38.5648 81.6964 38.588C81.7002 38.5892 81.7037 38.5912 81.7066 38.594C81.7094 38.5968 81.7116 38.6002 81.7129 38.6039C81.7142 38.6077 81.7146 38.6117 81.7141 38.6157C81.7135 38.6196 81.712 38.6234 81.7098 38.6267C81.5958 38.6984 81.5011 38.7968 81.4341 38.9133C81.3952 39.0101 81.3856 39.1161 81.4066 39.2182C81.4275 39.3204 81.478 39.4142 81.5519 39.488C81.6069 39.5343 81.671 39.5687 81.7402 39.5889C81.8093 39.6091 81.8819 39.6147 81.9533 39.6053C82.1719 39.5307 82.3543 39.377 82.4645 39.1747C82.4645 39.1747 82.4913 39.148 82.5033 39.1747C82.6041 39.2974 82.735 39.392 82.8834 39.4493C82.9583 39.4807 83.041 39.4888 83.1206 39.4723C83.2001 39.4559 83.2728 39.4158 83.329 39.3573C83.4137 39.2941 83.4751 39.2049 83.5036 39.1034C83.5322 39.0019 83.5263 38.8938 83.4869 38.796C83.4236 38.6768 83.3281 38.5775 83.2113 38.5093C83.1845 38.4827 83.2113 38.4573 83.238 38.4307C83.807 37.9697 84.4912 37.672 85.2173 37.5693C85.7065 37.5027 86.2046 37.5845 86.6465 37.804C86.8208 37.9025 86.9799 38.0256 87.1189 38.1693C87.1323 38.1693 87.1845 38.196 87.1979 38.1693C87.3024 38.0767 87.3664 37.947 87.3762 37.8079C87.3859 37.6689 87.3407 37.5315 87.2501 37.4253C87.1692 37.3304 87.0717 37.2509 86.9623 37.1907L86.949 37.164C87.0176 36.9814 87.1299 36.8182 87.2761 36.6886C87.4223 36.5589 87.598 36.4668 87.788 36.42C87.8268 36.42 87.8148 36.3933 87.788 36.3547C87.6301 35.9627 86.9235 35.9547 86.5957 36.1587C86.3875 36.2983 86.2166 36.4864 86.0978 36.7067C86.0978 36.7333 86.0845 36.7587 86.059 36.7587L85.7713 36.6667V36.628C85.8667 36.4353 86.0028 36.2655 86.1703 36.1302C86.3378 35.9949 86.5326 35.8972 86.7415 35.844C86.7683 35.8307 86.7549 35.8053 86.7415 35.792C86.597 35.4133 85.8235 35.44 85.4434 35.688C85.0855 35.9189 84.8316 36.2794 84.7355 36.6933V36.7333C84.6296 36.7718 84.5196 36.7982 84.4076 36.812C84.3943 36.812 84.3809 36.7987 84.3809 36.7733C84.3518 36.5903 84.3842 36.4028 84.4732 36.24C84.603 36.0271 84.757 35.8298 84.9322 35.652C84.959 35.6253 84.959 35.5867 84.9322 35.5733C84.8867 35.5198 84.8307 35.476 84.7677 35.4446C84.7046 35.4132 84.6359 35.3949 84.5656 35.3907L84.5615 35.4ZM72.9082 37.228H80.3541V42.0213C80.2096 41.9693 80.053 41.904 79.8697 41.852C79.6208 41.7733 79.3585 41.6293 79.0306 41.5C77.4461 40.89 75.9752 40.0202 74.6787 38.9267C74.0472 38.4028 73.4555 37.8333 72.9082 37.2227V37.228ZM100.631 48.2373V54.4013H101.995V52.0853H110.266V54.3973H111.642V48.232H110.28V50.7333H102.008V48.232L100.631 48.2373ZM49.6282 48.2373C49.2627 48.239 48.9124 48.3836 48.6526 48.6399C48.3929 48.8962 48.2444 49.2438 48.2392 49.608V53.056C48.2407 53.2361 48.2779 53.4142 48.3486 53.5799C48.4193 53.7457 48.5221 53.896 48.6511 54.0222C48.7801 54.1484 48.9328 54.248 49.1005 54.3153C49.2681 54.3827 49.4475 54.4164 49.6282 54.4147H58.3187C58.4979 54.4148 58.6753 54.3798 58.8408 54.3116C59.0063 54.2434 59.1567 54.1433 59.2834 54.0171C59.4101 53.8909 59.5105 53.7411 59.579 53.5761C59.6474 53.4112 59.6826 53.2345 59.6824 53.056V49.604C59.6821 49.2481 59.5418 48.9065 59.2917 48.6525C59.0415 48.3985 58.7013 48.2523 58.3442 48.2453L49.6269 48.232L49.6282 48.2373ZM61.3338 48.2373V54.4013H62.6841V52.764H70.2732C70.6354 52.7689 70.9813 52.9152 71.2363 53.1716C71.4913 53.4279 71.6351 53.7737 71.6369 54.1347V54.3827H73.0126V54.3693C73.0118 53.9323 72.8871 53.5043 72.653 53.1347C72.4188 52.765 72.0847 52.4688 71.6891 52.28C72.0418 52.2672 72.3758 52.1184 72.6205 51.8649C72.8652 51.6114 73.0015 51.273 73.0005 50.9213V49.588C73.0004 49.4086 72.9646 49.231 72.8952 49.0655C72.8259 48.8999 72.7243 48.7497 72.5965 48.6234C72.4686 48.4971 72.3169 48.3973 72.1502 48.3297C71.9834 48.262 71.8049 48.2279 71.6248 48.2293L61.3338 48.2373ZM35 48.2453V54.4093H36.3637V52.7773H45.2776C45.6406 52.778 45.9892 52.6355 46.247 52.3809C46.5048 52.1263 46.6509 51.7803 46.6534 51.4187V49.604C46.6509 49.2423 46.5048 48.8964 46.247 48.6418C45.9892 48.3872 45.6406 48.2446 45.2776 48.2453H35ZM89.2414 48.2453C88.877 48.2442 88.5269 48.3862 88.2669 48.6405C88.0069 48.8949 87.8579 49.241 87.8523 49.604V53.052C87.8508 53.4109 87.9912 53.756 88.2432 54.0125C88.4951 54.269 88.8384 54.4164 89.1985 54.4227H99.0694V53.064H89.3979C89.3754 53.0647 89.353 53.0609 89.332 53.0526C89.3111 53.0444 89.292 53.0319 89.2761 53.0161C89.2602 53.0002 89.2477 52.9812 89.2394 52.9603C89.2311 52.9395 89.2272 52.9171 89.228 52.8947V49.7867C89.2298 49.7597 89.2371 49.7334 89.2494 49.7094C89.2618 49.6854 89.279 49.6642 89.3 49.6471C89.3209 49.63 89.3452 49.6173 89.3712 49.6099C89.3973 49.6025 89.4246 49.6005 89.4515 49.604H99.0734V48.232L89.2414 48.2453ZM113.243 48.2453V54.4093H125.315V53.2667H114.618V51.9147H125.315V50.752H114.618V49.408H125.315V48.2453H113.243ZM75.9246 48.2453C75.563 48.2557 75.2198 48.4061 74.9677 48.6645C74.7156 48.9229 74.5745 49.269 74.5743 49.6293V50.544C74.5775 50.9089 74.7253 51.2577 74.9855 51.5144C75.2457 51.7712 75.5972 51.915 75.9634 51.9147H84.6405C84.6986 51.9152 84.7544 51.9367 84.7978 51.9752C84.8411 52.0137 84.8689 52.0666 84.876 52.124V53.064C84.874 53.0925 84.8663 53.1203 84.8533 53.1457C84.8402 53.1711 84.8222 53.1937 84.8002 53.212C84.7782 53.2303 84.7527 53.244 84.7252 53.2522C84.6978 53.2605 84.669 53.2631 84.6405 53.26H74.7697V54.4227H84.876C85.2383 54.4178 85.5841 54.2714 85.8391 54.0151C86.0941 53.7588 86.238 53.4129 86.2397 53.052V52.1187C86.2352 51.7565 86.0888 51.4105 85.8318 51.1544C85.5747 50.8983 85.2274 50.7525 84.864 50.748H76.1721C76.1442 50.7514 76.1159 50.7489 76.0891 50.7406C76.0622 50.7323 76.0374 50.7184 76.0163 50.6999C75.9952 50.6814 75.9783 50.6587 75.9666 50.6332C75.955 50.6077 75.9488 50.58 75.9487 50.552V49.612C75.9508 49.5548 75.9754 49.5008 76.0172 49.4616C76.0591 49.4224 76.1147 49.4012 76.1721 49.4027H86.0162V48.2533L75.9232 48.24L75.9246 48.2453ZM62.7015 49.5907H71.4C71.4611 49.5947 71.5187 49.6208 71.562 49.6639C71.6053 49.7071 71.6314 49.7644 71.6355 49.8253V51.184C71.635 51.2418 71.6134 51.2975 71.5748 51.3407C71.5361 51.3839 71.483 51.4116 71.4254 51.4187H62.7015V49.5907ZM36.3677 49.5907L45.0582 49.604C45.1192 49.6083 45.1766 49.6345 45.2199 49.6776C45.2631 49.7207 45.2894 49.7779 45.2937 49.8387V51.184C45.2932 51.2418 45.2716 51.2975 45.2329 51.3407C45.1943 51.3839 45.1412 51.4116 45.0836 51.4187H36.3891V49.5907H36.3677ZM49.8557 49.604H58.114C58.1758 49.606 58.2346 49.6314 58.2783 49.675C58.3221 49.7185 58.3475 49.7771 58.3495 49.8387V52.8293C58.3503 52.8897 58.3273 52.9481 58.2856 52.9919C58.2439 53.0357 58.1866 53.0616 58.126 53.064H49.8022C49.7575 53.063 49.7148 53.0448 49.6832 53.0133C49.6515 52.9817 49.6333 52.9393 49.6323 52.8947V49.7867C49.6348 49.76 49.6426 49.7341 49.6552 49.7105C49.6678 49.6868 49.685 49.6659 49.7058 49.6489C49.7266 49.6319 49.7505 49.6192 49.7763 49.6115C49.802 49.6038 49.829 49.6012 49.8557 49.604Z" fill="white"/>
</svg>
