<svg width="160" height="64" viewBox="0 0 160 64" fill="none" xmlns="http://www.w3.org/2000/svg">
<path fill-rule="evenodd" clip-rule="evenodd" d="M41.0986 41.6134L45.1111 29.2747V41.6134H51.1766V22.0014H42.9845L39.0495 31.8067L35.1975 22.0014H27V41.6134H33.0656V29.2734L37.165 41.6134H41.0999H41.0986ZM106.101 34.0134C107.069 33.9973 107.995 33.6176 108.694 32.9501C109.393 32.2826 109.814 31.3767 109.872 30.4134V25.5974C109.787 24.6442 109.358 23.7541 108.665 23.0926C107.971 22.4311 107.06 22.0433 106.101 22.0014H90.5312V41.6134H96.5968V34.0134H98.9735L102.908 41.6134H109.872L105.2 34.0134H106.101ZM104.461 28.8654C104.461 29.2734 104.38 29.6827 103.641 29.6827H96.5928V25.8414H103.639C104.459 25.8414 104.459 26.4134 104.459 26.7401L104.461 28.8654ZM69.3787 25.8414V22.0014H53.6403V41.6134H69.5432V37.7734H59.7059V33.6054H69.3787V29.7641H59.7059V25.8414H69.3787ZM76.9195 25.8414H71.1816V22.0014H88.723V25.8414H82.9851V41.6134H76.9195V25.8414ZM128.971 22.0014H116.102C115.163 21.9755 114.25 22.3079 113.55 22.9308C112.849 23.5536 112.414 24.4198 112.333 25.3521V38.0187C112.405 38.9687 112.833 39.8567 113.532 40.5072C114.23 41.1578 115.147 41.5235 116.103 41.5321H128.971C129.926 41.522 130.843 41.1558 131.541 40.5055C132.239 39.8552 132.667 38.9681 132.741 38.0187V25.3521C132.648 24.4245 132.208 23.5656 131.51 22.9452C130.812 22.3248 129.906 21.988 128.971 22.0014ZM126.676 36.8734C126.683 36.9865 126.667 37.0998 126.629 37.2066C126.592 37.3135 126.533 37.4117 126.456 37.4955C126.38 37.5793 126.287 37.647 126.184 37.6945C126.081 37.742 125.97 37.7684 125.856 37.7721H119.302C119.066 37.7635 118.842 37.666 118.674 37.4993C118.507 37.3326 118.409 37.109 118.401 36.8734V26.6587C118.401 26.4134 118.565 26.0054 119.302 25.9227H125.856C126.594 26.0041 126.676 26.4947 126.676 26.6587V36.8734Z" fill="#121217"/>
</svg>
