<svg width="160" height="64" viewBox="0 0 160 64" fill="none" xmlns="http://www.w3.org/2000/svg">
<path d="M109.728 40.1737C109.728 42.6784 113.365 43.7073 116.35 43.7073C120.466 43.7073 124 41.7858 124 37.669C124 30.293 113.262 30.8763 113.262 24.8718C113.262 22.3677 115.218 21.3044 117.516 21.3044C120.398 21.3044 121.702 23.431 121.359 26.0039H122.525L123.589 20.6525C121.723 20.2815 119.83 20.0633 117.928 20C112.85 20 110.277 22.5734 110.277 25.9695C110.277 32.9341 121.016 32.831 121.016 38.8011C121.016 41.4427 118.889 42.4039 116.656 42.4039C114.323 42.4039 111.68 41.3057 111.68 37.1207H110.514C109.862 39.1786 109.725 39.6597 109.725 40.1742M91.3189 43.399L99.5869 43.1939L99.7239 42.2326L96.6365 41.9249C96.7522 41.349 96.8096 40.7631 96.8078 40.1757V33.106L103.086 22.9848C103.629 22.0506 104.461 21.3174 105.455 20.8951L105.318 20.4145H99.7269V21.2726C101.477 21.547 101.648 22.5072 101.1 23.3992L95.9876 31.6677C95.6902 31.0102 95.3582 30.3688 94.9931 29.7463L90.7383 22.8847C90.5343 22.5071 90.4219 22.0868 90.4099 21.6578C90.398 21.2287 90.4869 20.8029 90.6695 20.4145L90.5326 20.277C90.5326 20.277 89.1949 20.4145 87.0333 20.4145H85.3868V21.2726C86.1634 21.5247 86.814 22.0647 87.2047 22.7816L93.7918 33.1773V40.1763C93.7918 41.3422 92.8316 42.1316 91.322 42.3034L91.3189 43.399ZM57.2216 32.1453C57.2216 38.3892 61.7867 43.7073 68.8175 43.7073C76.3997 43.7073 81.4085 37.6003 81.4085 31.0476C81.4085 24.838 76.846 20 69.6757 20C61.6472 20 57.2216 25.9695 57.2216 32.1453ZM60.6183 31.2533C60.6183 26.2101 63.7405 21.3726 69.0925 21.3726C74.786 21.3726 78.0124 26.7584 78.0124 31.9052C78.0124 36.9145 74.8901 42.3352 69.5043 42.3352C63.8431 42.3352 60.6183 36.3657 60.6183 31.2558M36.2401 43.3985C36.2401 43.3985 39.3279 43.2959 41.0437 43.2959H52.0907L53.4952 37.0171H52.3308C50.6155 40.8939 50.0667 41.9572 47.1158 41.9572H41.3863C41.4991 41.3346 41.5566 40.7033 41.5582 40.0706V24.5636C41.5582 21.7158 42.6897 20.4119 42.6897 20.4119L42.5184 20.2744C41.2421 20.4067 39.9584 20.4526 38.676 20.4119H36V21.27C38.539 21.783 38.539 22.1271 38.539 23.7747V40.1737C38.539 41.4083 37.784 42.129 36.2401 42.3008V43.3985Z" fill="#121217"/>
</svg>
