<svg width="160" height="64" viewBox="0 0 160 64" fill="none" xmlns="http://www.w3.org/2000/svg">
<path d="M80.1835 51.7173C75.0942 51.6905 70.2215 49.6391 66.6267 46.0098C63.0319 42.3805 61.006 37.4674 60.9904 32.3404C60.9843 30.0218 61.4006 27.7218 62.2185 25.5546L73.4463 48.3042C73.4784 48.4615 73.5634 48.6027 73.687 48.7041C73.8105 48.8056 73.965 48.861 74.1244 48.861C74.2838 48.861 74.4383 48.8056 74.5618 48.7041C74.6853 48.6027 74.7704 48.4615 74.8025 48.3042L79.9712 36.6517C80.0139 36.5213 80.1006 36.391 80.23 36.391C80.3594 36.391 80.3996 36.5213 80.4889 36.6517L85.6576 48.3042C85.6897 48.4615 85.7747 48.6027 85.8983 48.7041C86.0218 48.8056 86.1763 48.861 86.3357 48.861C86.4951 48.861 86.6496 48.8056 86.7731 48.7041C86.8966 48.6027 86.9817 48.4615 87.0138 48.3042L98.2416 25.5546C99.0594 27.7218 99.4757 30.0218 99.4697 32.3404C99.4206 37.4731 97.3713 42.3809 93.7635 46.0056C90.1558 49.6303 85.2786 51.6816 80.1835 51.7173ZM80.1835 27.9443C80.0541 27.9443 80.0139 27.8139 79.9246 27.6835L73.9083 14.0259C77.9597 12.5462 82.3982 12.5462 86.4496 14.0259L80.4332 27.6835C80.353 27.8582 80.3103 27.9443 80.1835 27.9443ZM74.0403 41.9864C73.9109 41.9864 73.8707 41.8561 73.7814 41.7257L64.0367 21.9212C65.7708 19.2057 68.1425 16.9628 70.9421 15.3909L77.9757 31.1396C78.01 31.2459 78.0788 31.3374 78.1711 31.3994C78.2634 31.4614 78.3737 31.4902 78.4843 31.4812H81.8736C81.9909 31.5003 82.111 31.4763 82.2122 31.4136C82.3134 31.3509 82.3889 31.2537 82.4249 31.1396L89.4584 15.3909C92.2494 16.9747 94.6186 19.2152 96.3638 21.9212L86.5285 41.7257C86.4858 41.8561 86.3991 41.9864 86.2697 41.9864C86.1403 41.9864 86.1002 41.8561 86.0109 41.7257L82.3252 33.2751C82.2892 33.161 82.2137 33.0639 82.1126 33.0012C82.0114 32.9385 81.8912 32.9145 81.7739 32.9335H78.3989C78.2816 32.9145 78.1614 32.9385 78.0602 33.0012C77.959 33.0639 77.8836 33.161 77.8476 33.2751L74.2887 41.7257C74.2577 41.8587 74.1671 41.9864 74.0403 41.9864ZM80.1835 53.6807C84.3732 53.6807 88.4687 52.4291 91.9523 50.0842C95.4359 47.7393 98.1511 44.4064 99.7544 40.5069C101.358 36.6075 101.777 32.3167 100.96 28.177C100.142 24.0374 98.1249 20.2349 95.1624 17.2504C92.1998 14.2659 88.4253 12.2335 84.3161 11.4101C80.207 10.5866 75.9477 11.0092 72.0769 12.6244C68.2061 14.2396 64.8978 16.9749 62.5701 20.4843C60.2424 23.9937 59.0001 28.1196 59.0001 32.3404C58.9939 35.1445 59.5376 37.9223 60.6 40.5142C61.6624 43.1062 63.2225 45.4612 65.1908 47.444C67.1591 49.4269 69.4968 50.9986 72.0696 52.0688C74.6425 53.1391 77.3999 53.6869 80.1835 53.6807Z" fill="white"/>
</svg>
