<svg width="160" height="64" viewBox="0 0 160 64" fill="none" xmlns="http://www.w3.org/2000/svg">
<path d="M51.2272 20.9326C50.3682 19.3597 48.9665 19.3597 48.1527 20.9326L36.3517 42.6395C35.4926 44.2124 36.2613 45.4708 38.0699 45.4708H61.4005C63.209 45.4708 63.9325 44.2124 63.1186 42.6395L51.2272 20.9326Z" fill="white"/>
<path d="M72.25 43.5391C71.3909 45.112 69.9893 45.112 69.1754 43.5391L57.3292 21.8772C56.4702 20.3043 57.2388 19.0459 59.0022 19.0459H82.2876C84.0509 19.0459 84.8196 20.3043 83.9605 21.8772L72.25 43.5391Z" fill="white"/>
<path d="M122.844 30.7293C124.381 31.6281 124.381 33.0662 122.844 33.9201L103.944 44.7061C102.407 45.56 101.141 44.8409 101.141 43.0882V21.5162C101.141 19.7635 102.407 19.0444 103.944 19.8983L122.844 30.7293Z" fill="white"/>
<path d="M96.621 42.3696C96.621 44.0774 95.2194 45.4706 93.5012 45.4706H90.6979C88.9798 45.4706 87.5781 44.0774 87.5781 42.3696V22.1459C87.5781 20.4381 88.9798 19 90.6979 19H93.5012C95.2194 19 96.621 20.3932 96.621 22.1459V42.3696Z" fill="white"/>
</svg>
