<svg width="240" height="46" viewBox="0 0 240 46" fill="none" xmlns="http://www.w3.org/2000/svg">
<g clip-path="url(#clip0_280_1633)">
<path d="M217.422 45.5958V40.4603H218.049C220.95 40.4603 222.574 39.3655 223.911 36.7582L224.337 35.9082L214.988 12.0102H221.09L227.341 29.6834L233.548 12.0102H239.509L228.578 39.5679C226.769 43.3289 223.879 45.3823 218.049 45.5939L217.422 45.5958ZM198.535 36.6276V12.3911H203.871V16.4354C205.778 13.6828 208.593 12.0102 212.02 12.0102H212.448L214.593 17.4695H212.02C206.873 17.4695 203.871 20.3657 203.871 24.8314V36.6184H198.535V36.6313V36.6276ZM183.081 11.2356C175.639 11.2356 170.064 16.6967 170.064 23.9316C170.064 31.1665 175.639 36.6276 183.079 36.6276C190.523 36.6276 196.098 31.1665 196.098 23.9316C196.098 16.6967 190.523 11.2356 183.081 11.2356ZM183.081 31.494C178.798 31.494 175.554 28.2188 175.554 23.9316C175.554 19.6444 178.785 16.371 183.081 16.371C187.377 16.371 190.566 19.6462 190.566 23.9334C190.566 28.217 187.375 31.494 183.081 31.494ZM166.687 36.6258C161.396 36.6258 158.538 33.9578 158.538 29.1664V17.2377H154.865V12.3856H156.918C158.156 12.3856 158.823 11.7177 158.823 10.4849V5.83152H163.872V12.3856H169.453V17.2377H163.872V28.3145C163.872 30.4562 164.784 31.7332 167.018 31.7332H169.453V36.6276L166.687 36.6258ZM144.113 37.0011C138.253 37.0011 134.398 33.8658 134.398 29.3007H139.835C139.835 31.161 141.598 32.3956 144.174 32.3956C146.564 32.3956 148.128 31.3045 148.128 29.7865C148.128 25.4183 134.784 27.8434 134.784 19.2341C134.784 14.5274 138.554 11.6312 143.93 11.6312C149.306 11.6312 153.179 14.6249 153.179 18.993H147.742C147.742 17.3334 146.166 16.187 143.887 16.187C141.609 16.187 140.173 17.1806 140.173 18.6563C140.173 22.8828 153.559 20.557 153.559 29.2087C153.559 33.9154 149.791 36.9919 144.129 36.9919L144.116 37.0048H144.113V37.0011ZM126.814 36.6258V2.41648H132.148V36.6276L126.814 36.6258ZM117.801 36.6258V2.41648H123.137V36.6276L117.801 36.6258ZM101.062 37.1962C95.4868 37.1962 91.7723 33.4941 91.7723 27.8342V12.3911H97.1058V26.261C97.1058 29.735 99.3397 32.0626 102.783 32.0626C106.409 32.0626 108.831 29.6798 108.831 26.1746V12.393H114.164V36.6331H108.829V33.6413C106.964 35.9652 104.306 37.1998 101.062 37.1998M75.2086 46.0006V41.0178C77.6825 41.0178 78.2954 39.6231 78.2954 37.2532V17.2892H74.7471V12.3525H78.2954V9.82064C78.2954 4.5932 81.3914 1.69336 87.1569 1.69336H89.3243V6.67608H87.6332C85.1594 6.67608 83.7157 8.07448 83.7157 10.4481V12.3396H89.3243V17.2763H83.7157V37.8733C83.7157 43.1007 80.976 45.9969 75.2049 45.9969L75.2086 46.0006ZM63.7698 36.6276V31.3615H41.7822L60.7163 20.5423L60.8271 20.4798L58.1797 15.9239L39.1329 26.8057L50.064 8.06344L50.1286 7.95304L45.5908 5.35864L45.528 5.32184L34.5323 24.1726V2.4128H29.2283V24.1947L18.3009 5.44696L18.2382 5.33656L13.6985 7.93096L13.6338 7.9696L24.6295 26.8222L5.69354 16.003L5.58277 15.9405L2.93723 20.4963L21.9803 31.3781H0V36.6313H19.8277C25.44 36.0517 28.4566 32.9384 30 30.4231C30.8808 28.9734 31.5192 27.3906 31.8905 25.7366C32.1028 26.7008 32.6252 28.5334 33.7828 30.4231C35.3262 32.9329 38.3409 36.048 43.968 36.6313H63.7698V36.6276Z" fill="#e8e8ed"/>
</g>
<defs>
<clipPath id="clip0_280_1633">
<rect width="240" height="46" fill="white"/>
</clipPath>
</defs>
</svg>
