<svg width="28" height="28" viewBox="0 0 28 28" fill="none" xmlns="http://www.w3.org/2000/svg">
<path d="M21.0811 11V17.0859C21.0811 17.3338 21.0613 17.5817 21.0205 17.8262L20.2002 22.7471C20.0795 23.47 19.4537 23.9999 18.7207 24H9.62696C8.89398 23.9999 8.26817 23.47 8.14746 22.7471L7.32715 17.8262C7.28634 17.5815 7.26563 17.334 7.26562 17.0859V11H21.0811Z" stroke="#121217"/>
<path d="M18.1969 10.4996V8.59961C18.1969 6.94276 16.8537 5.59961 15.1969 5.59961H12.7969C11.14 5.59961 9.79688 6.94276 9.79688 8.59961V10.4996" stroke="#121217"/>
<path d="M14.0016 18.8996C14.7748 18.8996 15.4016 18.2728 15.4016 17.4996C15.4016 16.7264 14.7748 16.0996 14.0016 16.0996C13.2284 16.0996 12.6016 16.7264 12.6016 17.4996C12.6016 18.2728 13.2284 18.8996 14.0016 18.8996Z" fill="#121217"/>
</svg>
