<svg width="24" height="24" viewBox="0 0 24 24" fill="none" xmlns="http://www.w3.org/2000/svg">
<path d="M4.405 12.6346C3.73767 12.6346 3.17 12.3996 2.702 11.9296C2.234 11.4596 2 10.889 2 10.2176C2 9.54631 2.23333 8.97997 2.7 8.51864C3.16667 8.05731 3.73433 7.82664 4.403 7.82664C5.06967 7.82664 5.63733 8.05864 6.106 8.52264C6.57467 8.98664 6.80867 9.54964 6.808 10.2116C6.808 10.885 6.57433 11.457 6.107 11.9276C5.63967 12.399 5.07233 12.6346 4.405 12.6346ZM3 18.2296V16.9996H21V18.2296H3ZM12.001 12.6136C11.3337 12.6136 10.766 12.3803 10.298 11.9136C9.83 11.4463 9.596 10.879 9.596 10.2116C9.596 9.54431 9.82967 8.97664 10.297 8.50864C10.7643 8.04064 11.3317 7.80664 11.999 7.80664C12.6663 7.80664 13.234 8.03997 13.702 8.50664C14.17 8.97397 14.404 9.54131 14.404 10.2086C14.404 10.876 14.1703 11.4436 13.703 11.9116C13.2357 12.3796 12.6683 12.6136 12.001 12.6136ZM19.597 12.6136C18.9303 12.6136 18.3627 12.3803 17.894 11.9136C17.426 11.4463 17.192 10.879 17.192 10.2116C17.192 9.54364 17.4257 8.97564 17.893 8.50764C18.3603 8.04031 18.9277 7.80664 19.595 7.80664C20.2623 7.80664 20.83 8.03997 21.298 8.50664C21.766 8.97331 22 9.54097 22 10.2096C22 10.8783 21.7667 11.446 21.3 11.9126C20.8333 12.3793 20.2657 12.6123 19.597 12.6136Z" fill="#121217"/>
</svg>
