<svg width="24" height="24" viewBox="0 0 24 24" fill="none" xmlns="http://www.w3.org/2000/svg">
<path d="M4.405 12.6348C3.73767 12.6348 3.17 12.3998 2.702 11.9298C2.234 11.4598 2 10.8891 2 10.2178C2 9.54647 2.23333 8.98014 2.7 8.5188C3.16667 8.05747 3.73433 7.82681 4.403 7.82681C5.06967 7.82681 5.63733 8.0588 6.106 8.5228C6.57467 8.9868 6.80867 9.5498 6.808 10.2118C6.808 10.8851 6.57433 11.4571 6.107 11.9278C5.63967 12.3991 5.07233 12.6348 4.405 12.6348ZM19.597 12.6148C18.9303 12.6148 18.3627 12.3815 17.894 11.9148C17.426 11.4475 17.192 10.8801 17.192 10.2128C17.192 9.54547 17.4257 8.9778 17.893 8.5098C18.3603 8.0418 18.9277 7.80781 19.595 7.80781C20.2623 7.80781 20.83 8.04114 21.298 8.5078C21.766 8.9758 22 9.54347 22 10.2108C22 10.8775 21.7667 11.4451 21.3 11.9138C20.8333 12.3825 20.2657 12.6165 19.597 12.6158M14.135 11.3228L10.927 8.0768C11.079 7.9868 11.247 7.91947 11.431 7.8748C11.615 7.83014 11.8047 7.80781 12 7.80781C12.668 7.80781 13.2357 8.04114 13.703 8.5078C14.1697 8.9758 14.403 9.5438 14.403 10.2118C14.403 10.4138 14.381 10.6101 14.337 10.8008C14.293 10.9915 14.2257 11.1655 14.135 11.3228ZM20.492 21.9078L16.815 18.2308H3V16.9998H15.585L2.092 3.5078L2.8 2.7998L21.2 21.1998L20.492 21.9078Z" fill="#121217"/>
</svg>
